{"glyphs":{"0":{"ha":665,"x_min":47,"x_max":618,"o":"m 332 -11 q 137 31 196 -11 q 63 167 78 72 q 47 478 47 261 q 63 789 47 694 q 137 925 78 883 q 332 967 196 967 q 528 925 469 967 q 603 789 588 883 q 618 478 618 694 q 603 167 618 261 q 528 31 588 72 q 332 -11 469 -11 m 332 178 q 381 192 368 178 q 397 260 393 206 q 400 478 400 315 q 397 695 400 640 q 381 764 393 750 q 332 778 368 778 q 284 764 296 778 q 269 695 272 750 q 265 478 265 640 q 269 260 265 315 q 284 192 272 206 q 332 178 296 178 z "},"1":{"ha":443,"x_min":17,"x_max":378,"o":"m 156 0 l 156 713 l 17 657 l 17 853 l 214 956 l 378 956 l 378 0 l 156 0 z "},"2":{"ha":633,"x_min":46,"x_max":586,"o":"m 265 190 l 586 190 l 586 0 l 46 0 l 46 125 q 51 324 46 261 q 78 425 57 386 q 151 492 100 464 l 297 568 q 340 594 328 583 q 358 623 353 604 q 364 681 364 642 q 355 747 364 728 q 324 772 346 767 q 250 778 303 778 q 58 767 176 778 l 58 942 q 178 960 107 953 q 310 967 250 967 q 456 949 399 967 q 550 872 514 932 q 586 693 586 813 q 556 510 586 567 q 468 426 525 454 q 311 346 419 400 q 288 331 299 339 q 274 314 278 324 q 267 271 268 300 q 265 200 265 242 l 265 190 z "},"3":{"ha":615,"x_min":33,"x_max":572,"o":"m 278 -11 q 153 -3 222 -11 q 33 15 85 4 l 33 188 q 229 178 154 178 q 306 183 283 178 q 339 210 329 189 q 349 278 349 231 q 341 353 349 329 q 315 383 333 376 q 257 390 296 390 l 128 390 l 128 576 l 257 576 q 311 583 294 576 q 335 611 328 590 q 342 681 342 632 q 333 747 342 728 q 302 772 325 767 q 222 778 279 778 q 35 767 131 778 l 35 942 q 157 960 88 953 q 279 967 226 967 q 442 944 381 967 q 534 867 504 921 q 564 719 564 813 q 533 563 564 617 q 436 490 501 508 l 436 485 q 540 415 507 465 q 572 251 572 365 q 544 99 572 156 q 451 15 515 42 q 278 -11 388 -11 z "},"4":{"ha":657,"x_min":25,"x_max":639,"o":"m 344 0 l 344 181 l 25 181 l 25 346 l 203 956 l 433 956 l 242 369 l 347 369 l 410 585 l 564 585 l 564 369 l 639 369 l 639 181 l 564 181 l 564 0 l 344 0 z "},"5":{"ha":638,"x_min":63,"x_max":599,"o":"m 63 188 q 247 178 176 178 q 333 185 308 178 q 367 216 358 192 q 376 300 376 240 q 367 385 376 360 q 333 417 358 410 q 247 425 308 425 q 68 415 160 425 l 68 956 l 558 956 l 558 765 l 269 765 l 269 604 q 369 613 304 613 q 549 540 500 613 q 599 321 599 467 q 574 125 599 196 q 488 22 550 54 q 307 -11 425 -11 q 184 -3 253 -11 q 63 15 115 4 l 63 188 z "},"6":{"ha":660,"x_min":47,"x_max":621,"o":"m 340 -11 q 206 2 257 -11 q 122 53 156 15 q 69 165 89 90 q 47 478 47 254 q 79 797 47 707 q 178 929 113 892 q 367 967 244 967 q 474 958 413 967 q 588 938 536 950 l 588 764 q 407 778 479 778 q 310 763 339 778 q 274 702 282 747 q 265 547 265 657 l 278 547 q 324 592 290 572 q 418 613 358 613 q 533 592 490 613 q 598 510 575 572 q 621 326 621 449 q 598 123 621 194 q 515 20 575 51 q 340 -11 454 -11 m 336 175 q 383 182 369 175 q 403 214 397 189 q 408 300 408 239 q 403 387 408 361 q 383 419 397 413 q 336 425 369 425 q 289 417 303 425 q 271 387 275 410 q 267 307 267 364 q 273 216 267 243 q 292 182 279 189 q 336 175 306 175 z "},"7":{"ha":593,"x_min":29,"x_max":572,"o":"m 79 0 l 342 765 l 29 765 l 29 956 l 572 956 l 572 788 l 314 0 l 79 0 z "},"8":{"ha":679,"x_min":43,"x_max":636,"o":"m 340 -11 q 165 15 229 -11 q 72 99 100 42 q 43 251 43 156 q 76 416 43 365 q 179 485 108 467 l 179 490 q 83 563 114 508 q 51 719 51 617 q 81 867 51 814 q 174 944 111 921 q 340 967 236 967 q 506 944 443 967 q 598 867 568 921 q 628 719 628 814 q 597 563 628 617 q 500 490 565 508 l 500 485 q 603 416 571 467 q 636 251 636 365 q 608 99 636 156 q 515 15 579 42 q 340 -11 450 -11 m 340 568 q 388 574 374 568 q 406 602 401 581 q 410 676 410 624 q 406 752 410 731 q 388 780 401 774 q 340 786 374 786 q 292 780 306 786 q 274 752 278 774 q 269 676 269 731 q 274 602 269 624 q 292 574 278 581 q 340 568 306 568 m 340 169 q 388 176 374 169 q 408 206 403 183 q 413 282 413 229 q 408 360 413 338 q 388 391 403 383 q 340 399 374 399 q 291 391 306 399 q 272 360 276 383 q 267 282 267 338 q 272 206 267 229 q 292 176 278 183 q 340 169 307 169 z "},"9":{"ha":660,"x_min":40,"x_max":614,"o":"m 294 -11 q 185 -3 247 -11 q 72 18 124 6 l 72 192 q 253 178 179 178 q 350 193 322 178 q 386 253 378 208 q 394 408 394 297 l 383 408 q 335 362 371 381 q 243 343 299 343 q 128 363 171 343 q 63 445 86 383 q 40 629 40 507 q 63 833 40 761 q 146 935 86 904 q 319 967 206 967 q 455 954 404 967 q 538 907 506 942 q 588 804 571 872 q 614 478 614 704 q 576 146 614 249 q 478 24 544 60 q 294 -11 413 -11 m 324 531 q 371 538 357 531 q 389 569 385 546 q 393 649 393 592 q 387 740 393 713 q 367 774 381 767 q 324 781 354 781 q 278 774 292 781 q 258 742 264 767 q 253 656 253 717 q 258 569 253 594 q 277 537 264 543 q 324 531 290 531 z "},"\u0000":{"ha":0,"x_min":0,"x_max":0,"o":""},"\r":{"ha":247,"x_min":0,"x_max":0,"o":""}," ":{"ha":247,"x_min":0,"x_max":0,"o":""},"A":{"ha":707,"x_min":7,"x_max":700,"o":"m 476 0 l 447 178 l 256 178 l 226 0 l 7 0 l 192 956 l 515 956 l 700 0 l 476 0 m 356 753 l 346 753 l 285 363 l 417 363 l 356 753 z "},"Á":{"ha":706,"x_min":7,"x_max":700,"o":"m 476 0 l 447 178 l 256 178 l 226 0 l 7 0 l 192 956 l 515 956 l 700 0 l 476 0 m 356 753 l 346 753 l 285 363 l 417 363 l 356 753 m 251 1042 l 251 1049 l 325 1246 l 525 1246 l 525 1239 l 414 1042 l 251 1042 z "},"Ă":{"ha":707,"x_min":7,"x_max":700,"o":"m 476 0 l 447 178 l 256 178 l 226 0 l 7 0 l 192 956 l 515 956 l 700 0 l 476 0 m 356 753 l 346 753 l 285 363 l 417 363 l 356 753 m 542 1233 q 528 1132 542 1172 q 472 1068 514 1092 q 353 1044 431 1044 q 234 1068 275 1044 q 179 1132 193 1092 q 165 1233 165 1172 l 288 1233 q 291 1192 288 1207 q 308 1169 294 1178 q 353 1160 322 1160 q 408 1177 397 1160 q 419 1233 419 1194 l 542 1233 z "},"Ắ":{"ha":707,"x_min":7,"x_max":700,"o":"m 476 0 l 447 178 l 256 178 l 226 0 l 7 0 l 192 956 l 515 956 l 700 0 l 476 0 m 356 753 l 346 753 l 285 363 l 417 363 l 356 753 m 542 1233 q 528 1132 542 1172 q 472 1068 514 1092 q 353 1044 431 1044 q 234 1068 275 1044 q 179 1132 193 1092 q 165 1233 165 1172 l 288 1233 q 291 1192 288 1207 q 308 1169 294 1178 q 353 1160 322 1160 q 408 1177 397 1160 q 419 1233 419 1194 l 542 1233 m 263 1269 l 263 1276 l 336 1474 l 536 1474 l 536 1467 l 425 1269 l 263 1269 z "},"Ặ":{"ha":707,"x_min":7,"x_max":700,"o":"m 476 0 l 447 178 l 256 178 l 226 0 l 7 0 l 192 956 l 515 956 l 700 0 l 476 0 m 356 753 l 346 753 l 285 363 l 417 363 l 356 753 m 243 -285 l 243 -86 l 464 -86 l 464 -285 l 243 -285 m 542 1233 q 528 1132 542 1172 q 472 1068 514 1092 q 353 1044 431 1044 q 234 1068 275 1044 q 179 1132 193 1092 q 165 1233 165 1172 l 288 1233 q 291 1192 288 1207 q 308 1169 294 1178 q 353 1160 322 1160 q 408 1177 397 1160 q 419 1233 419 1194 l 542 1233 z "},"Ằ":{"ha":707,"x_min":7,"x_max":700,"o":"m 476 0 l 447 178 l 256 178 l 226 0 l 7 0 l 192 956 l 515 956 l 700 0 l 476 0 m 356 753 l 346 753 l 285 363 l 417 363 l 356 753 m 543 1233 q 529 1132 543 1172 q 474 1068 515 1092 q 354 1044 432 1044 q 235 1068 276 1044 q 181 1132 194 1092 q 167 1233 167 1172 l 289 1233 q 292 1192 289 1207 q 310 1169 296 1178 q 354 1160 324 1160 q 410 1177 399 1160 q 421 1233 421 1194 l 543 1233 m 276 1269 l 165 1467 l 165 1474 l 365 1474 l 439 1276 l 439 1269 l 276 1269 z "},"Ẳ":{"ha":707,"x_min":7,"x_max":700,"o":"m 476 0 l 447 178 l 256 178 l 226 0 l 7 0 l 192 956 l 515 956 l 700 0 l 476 0 m 356 753 l 346 753 l 285 363 l 417 363 l 356 753 m 531 1233 q 517 1132 531 1172 q 461 1068 503 1092 q 342 1044 419 1044 q 223 1068 264 1044 q 168 1132 182 1092 q 154 1233 154 1172 l 276 1233 q 280 1192 276 1207 q 297 1169 283 1178 q 342 1160 311 1160 q 397 1177 386 1160 q 408 1233 408 1194 l 531 1233 m 278 1271 q 290 1323 278 1307 q 332 1349 301 1339 l 347 1354 q 396 1375 385 1368 q 407 1396 407 1382 q 396 1416 407 1413 q 349 1419 385 1419 q 207 1415 274 1419 l 207 1525 q 372 1543 294 1543 q 506 1519 460 1543 q 551 1422 551 1496 q 536 1345 551 1369 q 474 1303 521 1321 l 457 1294 q 417 1277 428 1283 q 404 1264 407 1271 q 401 1242 401 1257 l 278 1242 l 278 1271 z "},"Ẵ":{"ha":707,"x_min":7,"x_max":700,"o":"m 476 0 l 447 178 l 256 178 l 226 0 l 7 0 l 192 956 l 515 956 l 700 0 l 476 0 m 356 753 l 346 753 l 285 363 l 417 363 l 356 753 m 539 1233 q 525 1132 539 1172 q 469 1068 511 1092 q 350 1044 428 1044 q 231 1068 272 1044 q 176 1132 190 1092 q 163 1233 163 1172 l 285 1233 q 288 1192 285 1207 q 306 1169 292 1178 q 350 1160 319 1160 q 406 1177 394 1160 q 417 1233 417 1194 l 539 1233 m 576 1489 q 571 1378 576 1415 q 542 1320 565 1342 q 467 1299 518 1299 q 343 1319 421 1299 q 310 1327 335 1321 q 272 1333 286 1333 q 251 1323 256 1333 q 247 1283 247 1313 l 132 1283 q 138 1393 132 1357 q 167 1451 143 1429 q 243 1472 190 1472 q 367 1451 289 1472 q 438 1439 419 1439 q 458 1449 454 1439 q 461 1489 461 1458 l 576 1489 z "},"Ǎ":{"ha":707,"x_min":7,"x_max":700,"o":"m 476 0 l 447 178 l 256 178 l 226 0 l 7 0 l 192 956 l 515 956 l 700 0 l 476 0 m 356 753 l 346 753 l 285 363 l 417 363 l 356 753 m 253 1051 l 150 1222 l 150 1233 l 289 1233 l 354 1143 l 419 1233 l 558 1233 l 558 1222 l 453 1051 l 253 1051 z "},"Â":{"ha":706,"x_min":7,"x_max":700,"o":"m 476 0 l 447 178 l 256 178 l 226 0 l 7 0 l 192 956 l 515 956 l 700 0 l 476 0 m 356 753 l 346 753 l 285 363 l 417 363 l 356 753 m 149 1042 l 149 1054 l 251 1224 l 451 1224 l 557 1054 l 557 1042 l 418 1042 l 351 1132 l 288 1042 l 149 1042 z "},"Ấ":{"ha":707,"x_min":7,"x_max":700,"o":"m 476 0 l 447 178 l 256 178 l 226 0 l 7 0 l 192 956 l 515 956 l 700 0 l 476 0 m 356 753 l 346 753 l 285 363 l 417 363 l 356 753 m 150 1014 l 150 1026 l 253 1196 l 453 1196 l 558 1026 l 558 1014 l 419 1014 l 353 1104 l 289 1014 l 150 1014 m 379 1232 l 379 1239 l 453 1436 l 653 1436 l 653 1429 l 542 1232 l 379 1232 z "},"Ậ":{"ha":707,"x_min":7,"x_max":700,"o":"m 476 0 l 447 178 l 256 178 l 226 0 l 7 0 l 192 956 l 515 956 l 700 0 l 476 0 m 356 753 l 346 753 l 285 363 l 417 363 l 356 753 m 243 -285 l 243 -86 l 464 -86 l 464 -285 l 243 -285 m 150 1051 l 150 1064 l 253 1233 l 453 1233 l 558 1064 l 558 1051 l 419 1051 l 353 1142 l 289 1051 l 150 1051 z "},"Ầ":{"ha":707,"x_min":7,"x_max":700,"o":"m 476 0 l 447 178 l 256 178 l 226 0 l 7 0 l 192 956 l 515 956 l 700 0 l 476 0 m 356 753 l 346 753 l 285 363 l 417 363 l 356 753 m 136 1011 l 136 1024 l 239 1193 l 439 1193 l 544 1024 l 544 1011 l 406 1011 l 339 1101 l 275 1011 l 136 1011 m 408 1229 l 297 1426 l 297 1433 l 497 1433 l 571 1236 l 571 1229 l 408 1229 z "},"Ẩ":{"ha":707,"x_min":7,"x_max":700,"o":"m 476 0 l 447 178 l 256 178 l 226 0 l 7 0 l 192 956 l 515 956 l 700 0 l 476 0 m 356 753 l 346 753 l 285 363 l 417 363 l 356 753 m 150 1011 l 150 1024 l 253 1193 l 453 1193 l 558 1024 l 558 1011 l 419 1011 l 353 1101 l 289 1011 l 150 1011 m 424 1251 q 435 1303 424 1288 q 478 1329 447 1319 l 493 1335 q 542 1356 531 1349 q 553 1376 553 1363 q 542 1397 553 1393 q 494 1400 531 1400 q 353 1396 419 1400 l 353 1506 q 518 1524 440 1524 q 651 1500 606 1524 q 697 1403 697 1476 q 682 1326 697 1350 q 619 1283 667 1301 l 603 1275 q 563 1258 574 1264 q 550 1244 553 1251 q 547 1222 547 1238 l 424 1222 l 424 1251 z "},"Ẫ":{"ha":707,"x_min":7,"x_max":700,"o":"m 476 0 l 447 178 l 256 178 l 226 0 l 7 0 l 192 956 l 515 956 l 700 0 l 476 0 m 356 753 l 346 753 l 285 363 l 417 363 l 356 753 m 147 1011 l 147 1024 l 250 1193 l 450 1193 l 556 1024 l 556 1011 l 417 1011 l 350 1101 l 286 1011 l 147 1011 m 575 1433 q 569 1323 575 1360 q 540 1265 564 1286 q 465 1243 517 1243 q 342 1264 419 1243 q 309 1272 333 1265 q 271 1278 285 1278 q 250 1267 254 1278 q 246 1228 246 1257 l 131 1228 q 136 1338 131 1301 q 165 1395 142 1374 q 242 1417 189 1417 q 365 1396 288 1417 q 436 1383 418 1383 q 456 1393 453 1383 q 460 1433 460 1403 l 575 1433 z "},"Ȁ":{"ha":707,"x_min":7,"x_max":700,"o":"m 476 0 l 447 178 l 256 178 l 226 0 l 7 0 l 192 956 l 515 956 l 700 0 l 476 0 m 356 753 l 346 753 l 285 363 l 417 363 l 356 753 m 321 1050 l 188 1050 l 99 1210 l 99 1215 l 261 1215 l 321 1056 l 321 1050 m 528 1050 l 394 1050 l 306 1210 l 306 1215 l 469 1215 l 528 1056 l 528 1050 z "},"Ä":{"ha":706,"x_min":7,"x_max":700,"o":"m 476 0 l 447 178 l 256 178 l 226 0 l 7 0 l 192 956 l 515 956 l 700 0 l 476 0 m 356 753 l 346 753 l 285 363 l 417 363 l 356 753 m 143 1079 l 143 1232 l 317 1232 l 317 1079 l 143 1079 m 389 1079 l 389 1232 l 563 1232 l 563 1079 l 389 1079 z "},"Ạ":{"ha":707,"x_min":7,"x_max":700,"o":"m 476 0 l 447 178 l 256 178 l 226 0 l 7 0 l 192 956 l 515 956 l 700 0 l 476 0 m 356 753 l 346 753 l 285 363 l 417 363 l 356 753 m 243 -285 l 243 -86 l 464 -86 l 464 -285 l 243 -285 z "},"À":{"ha":706,"x_min":7,"x_max":700,"o":"m 476 0 l 447 178 l 256 178 l 226 0 l 7 0 l 192 956 l 515 956 l 700 0 l 476 0 m 356 753 l 346 753 l 285 363 l 417 363 l 356 753 m 283 1040 l 172 1238 l 172 1244 l 372 1244 l 446 1047 l 446 1040 l 283 1040 z "},"Ả":{"ha":707,"x_min":7,"x_max":700,"o":"m 476 0 l 447 178 l 256 178 l 226 0 l 7 0 l 192 956 l 515 956 l 700 0 l 476 0 m 356 753 l 346 753 l 285 363 l 417 363 l 356 753 m 253 1039 q 264 1090 253 1074 q 307 1118 275 1107 l 322 1124 q 371 1143 360 1136 q 382 1165 382 1150 q 371 1184 382 1181 q 324 1188 360 1188 q 182 1185 271 1188 l 182 1293 q 347 1313 276 1313 q 481 1289 435 1313 q 526 1190 526 1265 q 511 1114 526 1138 q 449 1071 496 1090 l 432 1063 q 392 1045 403 1051 q 379 1032 382 1039 q 376 1010 376 1025 l 253 1010 l 253 1039 z "},"Ȃ":{"ha":707,"x_min":7,"x_max":700,"o":"m 476 0 l 447 178 l 256 178 l 226 0 l 7 0 l 192 956 l 515 956 l 700 0 l 476 0 m 356 753 l 346 753 l 285 363 l 417 363 l 356 753 m 165 1053 q 179 1154 165 1114 q 235 1218 193 1194 q 354 1242 276 1242 q 473 1218 432 1242 q 528 1154 514 1194 q 542 1053 542 1114 l 419 1053 q 416 1094 419 1079 q 399 1117 413 1108 q 354 1126 385 1126 q 299 1109 310 1126 q 288 1053 288 1092 l 165 1053 z "},"Ā":{"ha":707,"x_min":7,"x_max":700,"o":"m 476 0 l 447 178 l 256 178 l 226 0 l 7 0 l 192 956 l 515 956 l 700 0 l 476 0 m 356 753 l 346 753 l 285 363 l 417 363 l 356 753 m 208 1054 l 208 1233 l 499 1233 l 499 1054 l 208 1054 z "},"Ą":{"ha":706,"x_min":7,"x_max":699,"o":"m 563 -112 q 574 -149 563 -136 q 615 -162 585 -162 l 632 -161 l 632 -267 q 551 -272 588 -272 q 438 -238 472 -272 q 403 -149 403 -204 q 423 -72 403 -112 q 475 3 443 -32 l 446 178 l 256 178 l 226 0 l 7 0 l 190 956 l 515 956 l 699 0 l 625 0 q 582 -52 601 -21 q 563 -112 563 -83 m 285 361 l 417 361 l 356 753 l 346 753 l 285 361 z "},"Å":{"ha":707,"x_min":7,"x_max":700,"o":"m 700 0 l 476 0 l 447 178 l 256 178 l 226 0 l 7 0 l 190 954 q 169 999 174 972 q 165 1072 165 1025 q 176 1168 165 1136 q 226 1217 186 1200 q 353 1233 265 1233 q 481 1217 440 1233 q 531 1168 521 1200 q 542 1072 542 1136 q 537 999 542 1026 q 517 954 532 972 l 700 0 m 353 1133 q 311 1128 324 1133 q 296 1112 299 1124 q 293 1072 293 1100 q 296 1033 293 1044 q 311 1016 299 1021 q 353 1011 324 1011 q 397 1016 383 1011 q 413 1033 410 1021 q 415 1072 415 1044 q 413 1112 415 1100 q 397 1128 410 1124 q 353 1133 383 1133 m 285 363 l 417 363 l 356 753 l 346 753 l 285 363 z "},"Ǻ":{"ha":707,"x_min":7,"x_max":700,"o":"m 700 0 l 476 0 l 447 178 l 256 178 l 226 0 l 7 0 l 190 954 q 169 999 174 972 q 165 1072 165 1025 q 176 1168 165 1136 q 226 1217 186 1200 q 353 1233 265 1233 q 481 1217 440 1233 q 531 1168 521 1200 q 542 1072 542 1136 q 537 999 542 1026 q 517 954 532 972 l 700 0 m 353 1133 q 311 1128 324 1133 q 296 1112 299 1124 q 293 1072 293 1100 q 296 1033 293 1044 q 311 1016 299 1021 q 353 1011 324 1011 q 397 1016 383 1011 q 413 1033 410 1021 q 415 1072 415 1044 q 413 1112 415 1100 q 397 1128 410 1124 q 353 1133 383 1133 m 285 363 l 417 363 l 356 753 l 346 753 l 285 363 m 271 1307 l 271 1314 l 344 1511 l 544 1511 l 544 1504 l 433 1307 l 271 1307 z "},"Ã":{"ha":706,"x_min":7,"x_max":700,"o":"m 476 0 l 447 178 l 256 178 l 226 0 l 7 0 l 192 956 l 515 956 l 700 0 l 476 0 m 356 753 l 346 753 l 285 363 l 417 363 l 356 753 m 575 1247 q 569 1137 575 1174 q 540 1078 564 1100 q 465 1057 517 1057 q 342 1078 419 1057 q 309 1085 333 1079 q 271 1092 285 1092 q 250 1081 254 1092 q 246 1042 246 1071 l 131 1042 q 136 1151 131 1115 q 165 1209 142 1188 q 242 1231 189 1231 q 365 1210 288 1231 q 436 1197 418 1197 q 456 1207 453 1197 q 460 1247 460 1217 l 575 1247 z "},"Æ":{"ha":954,"x_min":-21,"x_max":906,"o":"m 453 0 l 435 178 l 240 178 l 199 0 l -21 0 l 233 956 l 906 956 l 906 765 l 588 765 l 608 576 l 869 576 l 869 388 l 628 388 l 651 189 l 906 189 l 906 0 l 453 0 m 381 757 l 372 757 l 282 364 l 418 364 l 381 757 z "},"Ǽ":{"ha":954,"x_min":-21,"x_max":906,"o":"m 453 0 l 435 178 l 240 178 l 199 0 l -21 0 l 233 956 l 906 956 l 906 765 l 588 765 l 608 576 l 869 576 l 869 388 l 628 388 l 651 189 l 906 189 l 906 0 l 453 0 m 381 757 l 372 757 l 282 364 l 418 364 l 381 757 m 394 1029 l 394 1036 l 468 1233 l 668 1233 l 668 1226 l 557 1029 l 394 1029 z "},"B":{"ha":681,"x_min":64,"x_max":643,"o":"m 64 956 l 407 956 q 636 715 636 956 q 606 560 636 613 q 508 490 575 508 l 508 485 q 610 417 578 467 q 643 256 643 368 q 587 63 643 126 q 407 0 531 0 l 64 0 l 64 956 m 346 574 q 392 580 378 574 q 413 606 407 586 q 418 669 418 625 q 413 735 418 717 q 394 760 408 754 q 346 767 381 767 l 282 767 l 282 574 l 346 574 m 347 189 q 397 195 382 189 q 416 222 411 201 q 421 290 421 242 q 415 358 421 338 q 395 385 410 379 q 347 392 381 392 l 282 392 l 282 189 l 347 189 z "},"C":{"ha":556,"x_min":47,"x_max":518,"o":"m 518 14 q 439 -4 488 3 q 349 -11 390 -11 q 151 33 214 -11 q 67 178 88 78 q 47 478 47 278 q 68 776 47 676 q 153 922 89 876 q 349 967 217 967 q 442 960 396 967 q 515 943 489 953 l 515 768 q 393 776 439 776 q 306 759 329 776 q 277 687 283 742 q 271 478 271 632 q 277 269 271 324 q 306 197 283 214 q 393 179 329 179 q 518 188 468 179 l 518 14 z "},"Ć":{"ha":556,"x_min":47,"x_max":518,"o":"m 518 14 q 439 -4 488 3 q 349 -11 390 -11 q 151 33 214 -11 q 67 178 88 78 q 47 478 47 278 q 68 776 47 676 q 153 922 89 876 q 349 967 217 967 q 442 960 396 967 q 515 943 489 953 l 515 768 q 393 776 439 776 q 306 759 329 776 q 277 687 283 742 q 271 478 271 632 q 277 269 271 324 q 306 197 283 214 q 393 179 329 179 q 518 188 468 179 l 518 14 m 196 1029 l 196 1036 l 269 1233 l 469 1233 l 469 1226 l 358 1029 l 196 1029 z "},"Č":{"ha":556,"x_min":47,"x_max":518,"o":"m 518 14 q 439 -4 488 3 q 349 -11 390 -11 q 151 33 214 -11 q 67 178 88 78 q 47 478 47 278 q 68 776 47 676 q 153 922 89 876 q 349 967 217 967 q 442 960 396 967 q 515 943 489 953 l 515 768 q 393 776 439 776 q 306 759 329 776 q 277 687 283 742 q 271 478 271 632 q 277 269 271 324 q 306 197 283 214 q 393 179 329 179 q 518 188 468 179 l 518 14 m 176 1051 l 74 1222 l 74 1233 l 213 1233 l 278 1143 l 343 1233 l 482 1233 l 482 1222 l 376 1051 l 176 1051 z "},"Ç":{"ha":556,"x_min":47,"x_max":518,"o":"m 393 179 q 518 188 468 179 l 518 14 q 439 -4 488 3 q 349 -11 390 -11 l 344 -11 l 300 -262 l 122 -262 l 122 -256 l 213 4 q 106 79 142 25 q 59 225 71 133 q 47 478 47 317 q 68 776 47 676 q 153 922 89 876 q 349 967 217 967 q 442 960 396 967 q 515 943 489 953 l 515 768 q 393 776 439 776 q 306 759 329 776 q 277 687 283 742 q 271 478 271 632 q 277 269 271 324 q 306 197 283 214 q 393 179 329 179 z "},"Ĉ":{"ha":556,"x_min":47,"x_max":518,"o":"m 518 14 q 439 -4 488 3 q 349 -11 390 -11 q 151 33 214 -11 q 67 178 88 78 q 47 478 47 278 q 68 776 47 676 q 153 922 89 876 q 349 967 217 967 q 442 960 396 967 q 515 943 489 953 l 515 768 q 393 776 439 776 q 306 759 329 776 q 277 687 283 742 q 271 478 271 632 q 277 269 271 324 q 306 197 283 214 q 393 179 329 179 q 518 188 468 179 l 518 14 m 74 1051 l 74 1064 l 176 1233 l 376 1233 l 482 1064 l 482 1051 l 343 1051 l 276 1142 l 213 1051 l 74 1051 z "},"Ċ":{"ha":556,"x_min":47,"x_max":518,"o":"m 518 14 q 439 -4 488 3 q 349 -11 390 -11 q 151 33 214 -11 q 67 178 88 78 q 47 478 47 278 q 68 776 47 676 q 153 922 89 876 q 349 967 217 967 q 442 960 396 967 q 515 943 489 953 l 515 768 q 393 776 439 776 q 306 759 329 776 q 277 687 283 742 q 271 478 271 632 q 277 269 271 324 q 306 197 283 214 q 393 179 329 179 q 518 188 468 179 l 518 14 m 192 1063 l 192 1215 l 364 1215 l 364 1063 l 192 1063 z "},"D":{"ha":692,"x_min":64,"x_max":644,"o":"m 64 956 l 333 956 q 549 913 485 956 q 629 781 614 871 q 644 478 644 690 q 629 176 644 267 q 549 42 614 85 q 333 0 485 0 l 64 0 l 64 956 m 332 190 q 398 203 382 190 q 419 269 414 217 q 424 478 424 322 q 419 685 424 632 q 397 752 414 739 q 332 765 381 765 l 285 765 l 285 190 l 332 190 z "},"Ǳ":{"ha":1311,"x_min":64,"x_max":1269,"o":"m 64 956 l 333 956 q 549 913 485 956 q 629 781 614 871 q 644 478 644 690 q 629 176 644 267 q 549 42 614 85 q 333 0 485 0 l 64 0 l 64 956 m 332 190 q 398 203 382 190 q 419 269 414 217 q 424 478 424 322 q 419 685 424 632 q 397 752 414 739 q 332 765 381 765 l 285 765 l 285 190 l 332 190 m 733 0 l 733 179 l 1018 765 l 743 765 l 743 956 l 1268 956 l 1268 779 l 982 189 l 1269 189 l 1269 0 l 733 0 z "},"Ǆ":{"ha":1311,"x_min":64,"x_max":1269,"o":"m 64 956 l 333 956 q 549 913 485 956 q 629 781 614 871 q 644 478 644 690 q 629 176 644 267 q 549 42 614 85 q 333 0 485 0 l 64 0 l 64 956 m 332 190 q 398 203 382 190 q 419 269 414 217 q 424 478 424 322 q 419 685 424 632 q 397 752 414 739 q 332 765 381 765 l 285 765 l 285 190 l 332 190 m 733 0 l 733 179 l 1018 765 l 743 765 l 743 956 l 1268 956 l 1268 779 l 982 189 l 1269 189 l 1269 0 l 733 0 m 906 1051 l 803 1222 l 803 1233 l 942 1233 l 1007 1143 l 1072 1233 l 1211 1233 l 1211 1222 l 1106 1051 l 906 1051 z "},"Ð":{"ha":693,"x_min":1,"x_max":644,"o":"m 64 393 l 1 393 l 1 574 l 64 574 l 64 956 l 333 956 q 549 913 485 956 q 629 781 614 871 q 644 478 644 690 q 629 176 644 267 q 549 42 614 85 q 333 0 485 0 l 64 0 l 64 393 m 332 190 q 398 203 382 190 q 419 269 414 217 q 424 478 424 322 q 419 685 424 632 q 397 752 414 739 q 332 765 381 765 l 285 765 l 285 574 l 356 574 l 356 393 l 285 393 l 285 190 l 332 190 z "},"Ď":{"ha":692,"x_min":64,"x_max":644,"o":"m 64 956 l 333 956 q 549 913 485 956 q 629 781 614 871 q 644 478 644 690 q 629 176 644 267 q 549 42 614 85 q 333 0 485 0 l 64 0 l 64 956 m 332 190 q 398 203 382 190 q 419 269 414 217 q 424 478 424 322 q 419 685 424 632 q 397 752 414 739 q 332 765 381 765 l 285 765 l 285 190 l 332 190 m 244 1051 l 142 1222 l 142 1233 l 281 1233 l 346 1143 l 411 1233 l 550 1233 l 550 1222 l 444 1051 l 244 1051 z "},"Đ":{"ha":693,"x_min":1,"x_max":644,"o":"m 64 393 l 1 393 l 1 574 l 64 574 l 64 956 l 333 956 q 549 913 485 956 q 629 781 614 871 q 644 478 644 690 q 629 176 644 267 q 549 42 614 85 q 333 0 485 0 l 64 0 l 64 393 m 332 190 q 398 203 382 190 q 419 269 414 217 q 424 478 424 322 q 419 685 424 632 q 397 752 414 739 q 332 765 381 765 l 285 765 l 285 574 l 356 574 l 356 393 l 285 393 l 285 190 l 332 190 z "},"Ḍ":{"ha":692,"x_min":64,"x_max":644,"o":"m 64 956 l 333 956 q 549 913 485 956 q 629 781 614 871 q 644 478 644 690 q 629 176 644 267 q 549 42 614 85 q 333 0 485 0 l 64 0 l 64 956 m 332 190 q 398 203 382 190 q 419 269 414 217 q 424 478 424 322 q 419 685 424 632 q 397 752 414 739 q 332 765 381 765 l 285 765 l 285 190 l 332 190 m 235 -285 l 235 -86 l 456 -86 l 456 -285 l 235 -285 z "},"ǲ":{"ha":1250,"x_min":64,"x_max":1208,"o":"m 64 956 l 333 956 q 549 913 485 956 q 629 781 614 871 q 644 478 644 690 q 629 176 644 267 q 549 42 614 85 q 333 0 485 0 l 64 0 l 64 956 m 332 190 q 398 203 382 190 q 419 269 414 217 q 424 478 424 322 q 419 685 424 632 q 397 752 414 739 q 332 765 381 765 l 285 765 l 285 190 l 332 190 m 733 0 l 733 157 l 964 540 l 743 540 l 743 708 l 1206 708 l 1206 553 l 976 168 l 1208 168 l 1208 0 l 733 0 z "},"ǅ":{"ha":1250,"x_min":64,"x_max":1208,"o":"m 64 956 l 333 956 q 549 913 485 956 q 629 781 614 871 q 644 478 644 690 q 629 176 644 267 q 549 42 614 85 q 333 0 485 0 l 64 0 l 64 956 m 332 190 q 398 203 382 190 q 419 269 414 217 q 424 478 424 322 q 419 685 424 632 q 397 752 414 739 q 332 765 381 765 l 285 765 l 285 190 l 332 190 m 733 0 l 733 157 l 964 540 l 743 540 l 743 708 l 1206 708 l 1206 553 l 976 168 l 1208 168 l 1208 0 l 733 0 m 871 850 l 768 1021 l 768 1032 l 907 1032 l 972 942 l 1038 1032 l 1176 1032 l 1176 1021 l 1071 850 l 871 850 z "},"E":{"ha":589,"x_min":64,"x_max":540,"o":"m 64 0 l 64 956 l 540 956 l 540 765 l 286 765 l 286 578 l 506 578 l 506 388 l 286 388 l 286 190 l 540 190 l 540 0 l 64 0 z "},"É":{"ha":586,"x_min":64,"x_max":540,"o":"m 64 0 l 64 956 l 540 956 l 540 765 l 286 765 l 286 578 l 506 578 l 506 388 l 286 388 l 286 190 l 540 190 l 540 0 l 64 0 m 218 1042 l 218 1049 l 292 1246 l 492 1246 l 492 1239 l 381 1042 l 218 1042 z "},"Ĕ":{"ha":589,"x_min":64,"x_max":540,"o":"m 64 0 l 64 956 l 540 956 l 540 765 l 286 765 l 286 578 l 506 578 l 506 388 l 286 388 l 286 190 l 540 190 l 540 0 l 64 0 m 488 1233 q 474 1132 488 1172 q 418 1068 460 1092 q 299 1044 376 1044 q 180 1068 221 1044 q 125 1132 139 1092 q 111 1233 111 1172 l 233 1233 q 237 1192 233 1207 q 254 1169 240 1178 q 299 1160 268 1160 q 354 1177 343 1160 q 365 1233 365 1194 l 488 1233 z "},"Ě":{"ha":589,"x_min":64,"x_max":540,"o":"m 64 0 l 64 956 l 540 956 l 540 765 l 286 765 l 286 578 l 506 578 l 506 388 l 286 388 l 286 190 l 540 190 l 540 0 l 64 0 m 199 1051 l 96 1222 l 96 1233 l 235 1233 l 300 1143 l 365 1233 l 504 1233 l 504 1222 l 399 1051 l 199 1051 z "},"Ê":{"ha":586,"x_min":64,"x_max":540,"o":"m 64 0 l 64 956 l 540 956 l 540 765 l 286 765 l 286 578 l 506 578 l 506 388 l 286 388 l 286 190 l 540 190 l 540 0 l 64 0 m 96 1042 l 96 1054 l 199 1224 l 399 1224 l 504 1054 l 504 1042 l 365 1042 l 299 1132 l 235 1042 l 96 1042 z "},"Ế":{"ha":589,"x_min":64,"x_max":599,"o":"m 64 0 l 64 956 l 540 956 l 540 765 l 286 765 l 286 578 l 506 578 l 506 388 l 286 388 l 286 190 l 540 190 l 540 0 l 64 0 m 96 1014 l 96 1026 l 199 1196 l 399 1196 l 504 1026 l 504 1014 l 365 1014 l 299 1104 l 235 1014 l 96 1014 m 325 1232 l 325 1239 l 399 1436 l 599 1436 l 599 1429 l 488 1232 l 325 1232 z "},"Ệ":{"ha":589,"x_min":64,"x_max":540,"o":"m 64 0 l 64 956 l 540 956 l 540 765 l 286 765 l 286 578 l 506 578 l 506 388 l 286 388 l 286 190 l 540 190 l 540 0 l 64 0 m 189 -285 l 189 -86 l 410 -86 l 410 -285 l 189 -285 m 96 1051 l 96 1064 l 199 1233 l 399 1233 l 504 1064 l 504 1051 l 365 1051 l 299 1142 l 235 1051 l 96 1051 z "},"Ề":{"ha":589,"x_min":64,"x_max":540,"o":"m 64 0 l 64 956 l 540 956 l 540 765 l 286 765 l 286 578 l 506 578 l 506 388 l 286 388 l 286 190 l 540 190 l 540 0 l 64 0 m 82 1011 l 82 1024 l 185 1193 l 385 1193 l 490 1024 l 490 1011 l 351 1011 l 285 1101 l 221 1011 l 82 1011 m 354 1229 l 243 1426 l 243 1433 l 443 1433 l 517 1236 l 517 1229 l 354 1229 z "},"Ể":{"ha":589,"x_min":64,"x_max":643,"o":"m 64 0 l 64 956 l 540 956 l 540 765 l 286 765 l 286 578 l 506 578 l 506 388 l 286 388 l 286 190 l 540 190 l 540 0 l 64 0 m 96 1011 l 96 1024 l 199 1193 l 399 1193 l 504 1024 l 504 1011 l 365 1011 l 299 1101 l 235 1011 l 96 1011 m 369 1251 q 381 1303 369 1288 q 424 1329 393 1319 l 439 1335 q 488 1356 476 1349 q 499 1376 499 1363 q 488 1397 499 1393 q 440 1400 476 1400 q 299 1396 365 1400 l 299 1506 q 464 1524 386 1524 q 597 1500 551 1524 q 643 1403 643 1476 q 628 1326 643 1350 q 565 1283 613 1301 l 549 1275 q 509 1258 519 1264 q 496 1244 499 1251 q 493 1222 493 1238 l 369 1222 l 369 1251 z "},"Ễ":{"ha":589,"x_min":64,"x_max":540,"o":"m 64 0 l 64 956 l 540 956 l 540 765 l 286 765 l 286 578 l 506 578 l 506 388 l 286 388 l 286 190 l 540 190 l 540 0 l 64 0 m 93 1011 l 93 1024 l 196 1193 l 396 1193 l 501 1024 l 501 1011 l 363 1011 l 296 1101 l 232 1011 l 93 1011 m 521 1433 q 515 1323 521 1360 q 486 1265 510 1286 q 411 1243 463 1243 q 288 1264 365 1243 q 255 1272 279 1265 q 217 1278 231 1278 q 196 1267 200 1278 q 192 1228 192 1257 l 76 1228 q 82 1338 76 1301 q 111 1395 88 1374 q 188 1417 135 1417 q 311 1396 233 1417 q 382 1383 364 1383 q 402 1393 399 1383 q 406 1433 406 1403 l 521 1433 z "},"Ȅ":{"ha":589,"x_min":44,"x_max":540,"o":"m 64 0 l 64 956 l 540 956 l 540 765 l 286 765 l 286 578 l 506 578 l 506 388 l 286 388 l 286 190 l 540 190 l 540 0 l 64 0 m 267 1050 l 133 1050 l 44 1210 l 44 1215 l 207 1215 l 267 1056 l 267 1050 m 474 1050 l 340 1050 l 251 1210 l 251 1215 l 415 1215 l 474 1056 l 474 1050 z "},"Ë":{"ha":586,"x_min":64,"x_max":540,"o":"m 64 0 l 64 956 l 540 956 l 540 765 l 286 765 l 286 578 l 506 578 l 506 388 l 286 388 l 286 190 l 540 190 l 540 0 l 64 0 m 93 1074 l 93 1226 l 267 1226 l 267 1074 l 93 1074 m 339 1074 l 339 1226 l 513 1226 l 513 1074 l 339 1074 z "},"Ė":{"ha":589,"x_min":64,"x_max":540,"o":"m 64 0 l 64 956 l 540 956 l 540 765 l 286 765 l 286 578 l 506 578 l 506 388 l 286 388 l 286 190 l 540 190 l 540 0 l 64 0 m 214 1063 l 214 1215 l 386 1215 l 386 1063 l 214 1063 z "},"Ẹ":{"ha":589,"x_min":64,"x_max":540,"o":"m 64 0 l 64 956 l 540 956 l 540 765 l 286 765 l 286 578 l 506 578 l 506 388 l 286 388 l 286 190 l 540 190 l 540 0 l 64 0 m 189 -285 l 189 -86 l 410 -86 l 410 -285 l 189 -285 z "},"È":{"ha":586,"x_min":64,"x_max":540,"o":"m 64 0 l 64 956 l 540 956 l 540 765 l 286 765 l 286 578 l 506 578 l 506 388 l 286 388 l 286 190 l 540 190 l 540 0 l 64 0 m 240 1042 l 129 1239 l 129 1246 l 329 1246 l 403 1049 l 403 1042 l 240 1042 z "},"Ẻ":{"ha":589,"x_min":64,"x_max":540,"o":"m 64 0 l 64 956 l 540 956 l 540 765 l 286 765 l 286 578 l 506 578 l 506 388 l 286 388 l 286 190 l 540 190 l 540 0 l 64 0 m 199 1039 q 210 1090 199 1074 q 253 1118 221 1107 l 268 1124 q 317 1143 306 1136 q 328 1165 328 1150 q 317 1184 328 1181 q 269 1188 306 1188 q 128 1185 217 1188 l 128 1293 q 293 1313 222 1313 q 426 1289 381 1313 q 472 1190 472 1265 q 457 1114 472 1138 q 394 1071 442 1090 l 378 1063 q 338 1045 349 1051 q 325 1032 328 1039 q 322 1010 322 1025 l 199 1010 l 199 1039 z "},"Ȇ":{"ha":589,"x_min":64,"x_max":540,"o":"m 64 0 l 64 956 l 540 956 l 540 765 l 286 765 l 286 578 l 506 578 l 506 388 l 286 388 l 286 190 l 540 190 l 540 0 l 64 0 m 111 1053 q 125 1154 111 1114 q 181 1218 139 1194 q 300 1242 222 1242 q 419 1218 378 1242 q 474 1154 460 1194 q 488 1053 488 1114 l 365 1053 q 362 1094 365 1079 q 344 1117 358 1108 q 300 1126 331 1126 q 244 1109 256 1126 q 233 1053 233 1092 l 111 1053 z "},"Ē":{"ha":589,"x_min":64,"x_max":540,"o":"m 64 0 l 64 956 l 540 956 l 540 765 l 286 765 l 286 578 l 506 578 l 506 388 l 286 388 l 286 190 l 540 190 l 540 0 l 64 0 m 154 1054 l 154 1233 l 444 1233 l 444 1054 l 154 1054 z "},"Ę":{"ha":586,"x_min":63,"x_max":539,"o":"m 449 -272 q 333 -239 368 -272 q 297 -156 297 -206 q 386 0 297 -76 l 63 0 l 63 956 l 539 956 l 539 767 l 285 767 l 285 576 l 503 576 l 503 389 l 285 389 l 285 189 l 539 189 l 539 0 q 482 -51 507 -21 q 457 -117 457 -82 q 510 -162 457 -162 q 528 -161 519 -162 l 528 -267 q 449 -272 486 -272 z "},"Ẽ":{"ha":589,"x_min":64,"x_max":540,"o":"m 64 0 l 64 956 l 540 956 l 540 765 l 286 765 l 286 578 l 506 578 l 506 388 l 286 388 l 286 190 l 540 190 l 540 0 l 64 0 m 521 1233 q 515 1123 521 1160 q 486 1065 510 1086 q 411 1043 463 1043 q 288 1064 365 1043 q 255 1072 279 1065 q 217 1078 231 1078 q 196 1067 200 1078 q 192 1028 192 1057 l 76 1028 q 82 1138 76 1101 q 111 1195 88 1174 q 188 1217 135 1217 q 311 1196 233 1217 q 382 1183 364 1183 q 402 1193 399 1183 q 406 1233 406 1203 l 521 1233 z "},"F":{"ha":549,"x_min":64,"x_max":519,"o":"m 64 0 l 64 956 l 519 956 l 519 765 l 286 765 l 286 554 l 490 554 l 490 364 l 286 364 l 286 0 l 64 0 z "},"G":{"ha":681,"x_min":47,"x_max":624,"o":"m 351 383 l 351 565 l 624 565 l 624 19 q 501 -3 574 6 q 365 -11 428 -11 q 165 29 231 -11 q 73 171 99 69 q 47 478 47 272 q 74 783 47 681 q 171 926 101 885 q 381 967 240 967 q 510 958 440 967 q 621 938 579 950 l 621 763 q 524 772 576 768 q 446 776 472 776 q 322 763 354 776 q 279 691 290 749 q 268 478 268 633 q 274 272 268 332 q 301 192 281 213 q 372 172 322 172 q 424 175 396 172 l 424 383 l 351 383 z "},"Ǵ":{"ha":681,"x_min":47,"x_max":624,"o":"m 351 383 l 351 565 l 624 565 l 624 19 q 501 -3 574 6 q 365 -11 428 -11 q 165 29 231 -11 q 73 171 99 69 q 47 478 47 272 q 74 783 47 681 q 171 926 101 885 q 381 967 240 967 q 510 958 440 967 q 621 938 579 950 l 621 763 q 524 772 576 768 q 446 776 472 776 q 322 763 354 776 q 279 691 290 749 q 268 478 268 633 q 274 272 268 332 q 301 192 281 213 q 372 172 322 172 q 424 175 396 172 l 424 383 l 351 383 m 258 1029 l 258 1036 l 332 1233 l 532 1233 l 532 1226 l 421 1029 l 258 1029 z "},"Ğ":{"ha":681,"x_min":47,"x_max":624,"o":"m 351 383 l 351 565 l 624 565 l 624 19 q 501 -3 574 6 q 365 -11 428 -11 q 165 29 231 -11 q 73 171 99 69 q 47 478 47 272 q 74 783 47 681 q 171 926 101 885 q 381 967 240 967 q 510 958 440 967 q 621 938 579 950 l 621 763 q 524 772 576 768 q 446 776 472 776 q 322 763 354 776 q 279 691 290 749 q 268 478 268 633 q 274 272 268 332 q 301 192 281 213 q 372 172 322 172 q 424 175 396 172 l 424 383 l 351 383 m 528 1233 q 514 1132 528 1172 q 458 1068 500 1092 q 339 1044 417 1044 q 220 1068 261 1044 q 165 1132 179 1092 q 151 1233 151 1172 l 274 1233 q 277 1192 274 1207 q 294 1169 281 1178 q 339 1160 308 1160 q 394 1177 383 1160 q 406 1233 406 1194 l 528 1233 z "},"Ǧ":{"ha":681,"x_min":47,"x_max":624,"o":"m 351 383 l 351 565 l 624 565 l 624 19 q 501 -3 574 6 q 365 -11 428 -11 q 165 29 231 -11 q 73 171 99 69 q 47 478 47 272 q 74 783 47 681 q 171 926 101 885 q 381 967 240 967 q 510 958 440 967 q 621 938 579 950 l 621 763 q 524 772 576 768 q 446 776 472 776 q 322 763 354 776 q 279 691 290 749 q 268 478 268 633 q 274 272 268 332 q 301 192 281 213 q 372 172 322 172 q 424 175 396 172 l 424 383 l 351 383 m 239 1051 l 136 1222 l 136 1233 l 275 1233 l 340 1143 l 406 1233 l 544 1233 l 544 1222 l 439 1051 l 239 1051 z "},"Ĝ":{"ha":681,"x_min":47,"x_max":624,"o":"m 351 383 l 351 565 l 624 565 l 624 19 q 501 -3 574 6 q 365 -11 428 -11 q 165 29 231 -11 q 73 171 99 69 q 47 478 47 272 q 74 783 47 681 q 171 926 101 885 q 381 967 240 967 q 510 958 440 967 q 621 938 579 950 l 621 763 q 524 772 576 768 q 446 776 472 776 q 322 763 354 776 q 279 691 290 749 q 268 478 268 633 q 274 272 268 332 q 301 192 281 213 q 372 172 322 172 q 424 175 396 172 l 424 383 l 351 383 m 136 1051 l 136 1064 l 239 1233 l 439 1233 l 544 1064 l 544 1051 l 406 1051 l 339 1142 l 275 1051 l 136 1051 z "},"Ģ":{"ha":681,"x_min":47,"x_max":624,"o":"m 351 383 l 351 565 l 624 565 l 624 19 q 501 -3 574 6 q 365 -11 428 -11 q 165 29 231 -11 q 73 171 99 69 q 47 478 47 272 q 74 783 47 681 q 171 926 101 885 q 381 967 240 967 q 510 958 440 967 q 621 938 579 950 l 621 763 q 524 772 576 768 q 446 776 472 776 q 322 763 354 776 q 279 691 290 749 q 268 478 268 633 q 274 272 268 332 q 301 192 281 213 q 372 172 322 172 q 424 175 396 172 l 424 383 l 351 383 m 238 -315 q 299 -303 285 -315 q 314 -253 314 -290 l 314 -236 l 238 -236 l 238 -85 l 446 -85 l 446 -178 q 432 -317 446 -272 q 375 -382 418 -362 q 238 -401 332 -401 l 238 -315 z "},"Ġ":{"ha":681,"x_min":47,"x_max":624,"o":"m 351 383 l 351 565 l 624 565 l 624 19 q 501 -3 574 6 q 365 -11 428 -11 q 165 29 231 -11 q 73 171 99 69 q 47 478 47 272 q 74 783 47 681 q 171 926 101 885 q 381 967 240 967 q 510 958 440 967 q 621 938 579 950 l 621 763 q 524 772 576 768 q 446 776 472 776 q 322 763 354 776 q 279 691 290 749 q 268 478 268 633 q 274 272 268 332 q 301 192 281 213 q 372 172 322 172 q 424 175 396 172 l 424 383 l 351 383 m 254 1063 l 254 1215 l 426 1215 l 426 1063 l 254 1063 z "},"H":{"ha":721,"x_min":63,"x_max":657,"o":"m 435 0 l 435 381 l 285 381 l 285 0 l 63 0 l 63 956 l 285 956 l 285 582 l 435 582 l 435 956 l 657 956 l 657 0 l 435 0 z "},"Ħ":{"ha":721,"x_min":63,"x_max":657,"o":"m 435 956 l 657 956 l 657 0 l 435 0 l 435 325 l 285 325 l 285 0 l 63 0 l 63 956 l 285 956 l 285 836 l 435 836 l 435 956 m 285 526 l 435 526 l 435 657 l 285 657 l 285 526 z "},"Ĥ":{"ha":721,"x_min":63,"x_max":657,"o":"m 435 0 l 435 381 l 285 381 l 285 0 l 63 0 l 63 956 l 285 956 l 285 582 l 435 582 l 435 956 l 657 956 l 657 0 l 435 0 m 157 1051 l 157 1064 l 260 1233 l 460 1233 l 565 1064 l 565 1051 l 426 1051 l 360 1142 l 296 1051 l 157 1051 z "},"Ḥ":{"ha":721,"x_min":63,"x_max":657,"o":"m 435 0 l 435 381 l 285 381 l 285 0 l 63 0 l 63 956 l 285 956 l 285 582 l 435 582 l 435 956 l 657 956 l 657 0 l 435 0 m 250 -285 l 250 -86 l 471 -86 l 471 -285 l 250 -285 z "},"I":{"ha":349,"x_min":64,"x_max":286,"o":"m 64 0 l 64 956 l 286 956 l 286 0 l 64 0 z "},"Ĳ":{"ha":781,"x_min":64,"x_max":722,"o":"m 64 0 l 64 956 l 286 956 l 286 0 l 64 0 m 363 178 q 460 188 433 178 q 493 228 486 197 q 500 343 500 258 l 500 956 l 722 956 l 722 444 q 703 131 722 214 q 617 24 685 47 q 363 0 549 0 l 363 178 z "},"Í":{"ha":349,"x_min":64,"x_max":340,"o":"m 64 0 l 64 956 l 286 956 l 286 0 l 64 0 m 67 1042 l 67 1049 l 140 1246 l 340 1246 l 340 1239 l 229 1042 l 67 1042 z "},"Ĭ":{"ha":349,"x_min":-14,"x_max":363,"o":"m 64 0 l 64 956 l 286 956 l 286 0 l 64 0 m 363 1233 q 349 1132 363 1172 q 293 1068 335 1092 q 174 1044 251 1044 q 55 1068 96 1044 q 0 1132 14 1092 q -14 1233 -14 1172 l 108 1233 q 112 1192 108 1207 q 129 1169 115 1178 q 174 1160 143 1160 q 229 1177 218 1160 q 240 1233 240 1194 l 363 1233 z "},"Ǐ":{"ha":349,"x_min":-29,"x_max":379,"o":"m 64 0 l 64 956 l 286 956 l 286 0 l 64 0 m 74 1051 l -29 1222 l -29 1233 l 110 1233 l 175 1143 l 240 1233 l 379 1233 l 379 1222 l 274 1051 l 74 1051 z "},"Î":{"ha":349,"x_min":-31,"x_max":378,"o":"m 64 0 l 64 956 l 286 956 l 286 0 l 64 0 m -31 1042 l -31 1054 l 72 1224 l 272 1224 l 378 1054 l 378 1042 l 239 1042 l 172 1132 l 108 1042 l -31 1042 z "},"Ȉ":{"ha":349,"x_min":-81,"x_max":349,"o":"m 64 0 l 64 956 l 286 956 l 286 0 l 64 0 m 142 1050 l 8 1050 l -81 1210 l -81 1215 l 82 1215 l 142 1056 l 142 1050 m 349 1050 l 215 1050 l 126 1210 l 126 1215 l 290 1215 l 349 1056 l 349 1050 z "},"Ï":{"ha":349,"x_min":-35,"x_max":385,"o":"m 64 0 l 64 956 l 286 956 l 286 0 l 64 0 m -35 1079 l -35 1232 l 139 1232 l 139 1079 l -35 1079 m 211 1079 l 211 1232 l 385 1232 l 385 1079 l 211 1079 z "},"İ":{"ha":349,"x_min":64,"x_max":286,"o":"m 64 0 l 64 956 l 286 956 l 286 0 l 64 0 m 89 1063 l 89 1215 l 261 1215 l 261 1063 l 89 1063 z "},"Ị":{"ha":349,"x_min":64,"x_max":286,"o":"m 64 0 l 64 956 l 286 956 l 286 0 l 64 0 m 64 -285 l 64 -86 l 285 -86 l 285 -285 l 64 -285 z "},"Ì":{"ha":349,"x_min":13,"x_max":286,"o":"m 64 0 l 64 956 l 286 956 l 286 0 l 64 0 m 124 1042 l 13 1239 l 13 1246 l 213 1246 l 286 1049 l 286 1042 l 124 1042 z "},"Ỉ":{"ha":349,"x_min":3,"x_max":347,"o":"m 64 0 l 64 956 l 286 956 l 286 0 l 64 0 m 74 1039 q 85 1090 74 1074 q 128 1118 96 1107 l 143 1124 q 192 1143 181 1136 q 203 1165 203 1150 q 192 1184 203 1181 q 144 1188 181 1188 q 3 1185 92 1188 l 3 1293 q 168 1313 97 1313 q 301 1289 256 1313 q 347 1190 347 1265 q 332 1114 347 1138 q 269 1071 317 1090 l 253 1063 q 213 1045 224 1051 q 200 1032 203 1039 q 197 1010 197 1025 l 74 1010 l 74 1039 z "},"Ȋ":{"ha":349,"x_min":-14,"x_max":363,"o":"m 64 0 l 64 956 l 286 956 l 286 0 l 64 0 m -14 1053 q 0 1154 -14 1114 q 56 1218 14 1194 q 175 1242 97 1242 q 294 1218 253 1242 q 349 1154 335 1194 q 363 1053 363 1114 l 240 1053 q 237 1094 240 1079 q 219 1117 233 1108 q 175 1126 206 1126 q 119 1109 131 1126 q 108 1053 108 1092 l -14 1053 z "},"Ī":{"ha":349,"x_min":29,"x_max":319,"o":"m 64 0 l 64 956 l 286 956 l 286 0 l 64 0 m 29 1054 l 29 1233 l 319 1233 l 319 1054 l 29 1054 z "},"Į":{"ha":349,"x_min":57,"x_max":288,"o":"m 206 -272 q 92 -238 126 -272 q 57 -150 57 -204 q 78 -74 57 -112 q 133 0 99 -35 l 64 0 l 64 956 l 286 956 l 286 0 q 239 -51 261 -19 q 217 -112 217 -83 q 228 -149 217 -136 q 269 -162 239 -162 q 288 -161 279 -162 l 288 -267 q 206 -272 246 -272 z "},"Ĩ":{"ha":349,"x_min":-49,"x_max":396,"o":"m 64 0 l 64 956 l 286 956 l 286 0 l 64 0 m 396 1233 q 390 1123 396 1160 q 361 1065 385 1086 q 286 1043 338 1043 q 163 1064 240 1043 q 130 1072 154 1065 q 92 1078 106 1078 q 71 1067 75 1078 q 67 1028 67 1057 l -49 1028 q -43 1138 -49 1101 q -14 1195 -37 1174 q 63 1217 10 1217 q 186 1196 108 1217 q 257 1183 239 1183 q 277 1193 274 1183 q 281 1233 281 1203 l 396 1233 z "},"J":{"ha":432,"x_min":14,"x_max":374,"o":"m 14 178 q 111 188 85 178 q 144 228 138 197 q 151 343 151 258 l 151 956 l 374 956 l 374 444 q 355 131 374 214 q 268 24 336 47 q 14 0 200 0 l 14 178 z "},"Ĵ":{"ha":432,"x_min":14,"x_max":467,"o":"m 14 178 q 111 188 85 178 q 144 228 138 197 q 151 343 151 258 l 151 956 l 374 956 l 374 444 q 355 131 374 214 q 268 24 336 47 q 14 0 200 0 l 14 178 m 58 1051 l 58 1064 l 161 1233 l 361 1233 l 467 1064 l 467 1051 l 328 1051 l 261 1142 l 197 1051 l 58 1051 z "},"K":{"ha":694,"x_min":64,"x_max":689,"o":"m 451 0 l 319 388 l 286 388 l 286 0 l 64 0 l 64 956 l 286 956 l 286 582 l 319 582 l 456 956 l 686 956 l 494 499 l 689 0 l 451 0 z "},"Ķ":{"ha":694,"x_min":64,"x_max":689,"o":"m 451 0 l 319 388 l 286 388 l 286 0 l 64 0 l 64 956 l 286 956 l 286 582 l 319 582 l 456 956 l 686 956 l 494 499 l 689 0 l 451 0 m 244 -315 q 306 -303 292 -315 q 321 -253 321 -290 l 321 -236 l 244 -236 l 244 -85 l 453 -85 l 453 -178 q 439 -317 453 -272 q 382 -382 425 -362 q 244 -401 339 -401 l 244 -315 z "},"L":{"ha":531,"x_min":64,"x_max":513,"o":"m 64 0 l 64 956 l 286 956 l 286 196 l 513 196 l 513 0 l 64 0 z "},"Ǉ":{"ha":963,"x_min":64,"x_max":904,"o":"m 64 0 l 64 956 l 286 956 l 286 196 l 513 196 l 513 0 l 64 0 m 544 178 q 642 188 615 178 q 675 228 668 197 q 682 343 682 258 l 682 956 l 904 956 l 904 444 q 885 131 904 214 q 799 24 867 47 q 544 0 731 0 l 544 178 z "},"Ĺ":{"ha":531,"x_min":64,"x_max":513,"o":"m 64 0 l 64 956 l 286 956 l 286 196 l 513 196 l 513 0 l 64 0 m 114 1029 l 114 1036 l 188 1233 l 388 1233 l 388 1226 l 276 1029 l 114 1029 z "},"Ľ":{"ha":531,"x_min":64,"x_max":618,"o":"m 64 0 l 64 956 l 286 956 l 286 196 l 513 196 l 513 0 l 64 0 m 407 621 l 428 922 l 428 989 l 618 989 l 618 922 l 556 621 l 407 621 z "},"Ļ":{"ha":531,"x_min":64,"x_max":513,"o":"m 64 0 l 64 956 l 286 956 l 286 196 l 513 196 l 513 0 l 64 0 m 168 -315 q 230 -303 215 -315 q 244 -253 244 -290 l 244 -236 l 168 -236 l 168 -85 l 376 -85 l 376 -178 q 363 -317 376 -272 q 306 -382 349 -362 q 168 -401 263 -401 l 168 -315 z "},"Ŀ":{"ha":582,"x_min":64,"x_max":579,"o":"m 64 0 l 64 956 l 286 956 l 286 196 l 513 196 l 513 0 l 64 0 m 358 422 l 358 621 l 579 621 l 579 422 l 358 422 z "},"ǈ":{"ha":850,"x_min":64,"x_max":794,"o":"m 64 0 l 64 956 l 286 956 l 286 196 l 513 196 l 513 0 l 64 0 m 586 850 l 586 1032 l 794 1032 l 794 850 l 586 850 m 507 -122 q 561 -115 544 -122 q 582 -94 578 -108 q 586 -51 586 -81 l 586 708 l 794 708 l 794 32 q 772 -174 794 -111 q 692 -256 749 -237 q 507 -275 635 -275 l 507 -122 z "},"Ł":{"ha":529,"x_min":6,"x_max":513,"o":"m 286 196 l 513 196 l 513 0 l 64 0 l 64 351 l 6 329 l 6 500 l 64 522 l 64 956 l 286 956 l 286 606 l 421 656 l 421 485 l 286 435 l 286 196 z "},"M":{"ha":992,"x_min":63,"x_max":928,"o":"m 715 0 l 715 676 l 704 676 l 592 0 l 394 0 l 283 676 l 272 676 l 272 0 l 63 0 l 63 956 l 396 956 l 493 336 l 504 336 l 601 956 l 928 956 l 928 0 l 715 0 z "},"N":{"ha":726,"x_min":63,"x_max":664,"o":"m 467 0 l 281 471 l 275 471 l 275 0 l 63 0 l 63 956 l 276 956 l 444 535 l 453 535 l 453 956 l 664 956 l 664 0 l 467 0 z "},"Ǌ":{"ha":1158,"x_min":63,"x_max":1100,"o":"m 467 0 l 281 471 l 275 471 l 275 0 l 63 0 l 63 956 l 276 956 l 444 535 l 453 535 l 453 956 l 664 956 l 664 0 l 467 0 m 740 178 q 838 188 811 178 q 871 228 864 197 q 878 343 878 258 l 878 956 l 1100 956 l 1100 444 q 1081 131 1100 214 q 994 24 1063 47 q 740 0 926 0 l 740 178 z "},"Ń":{"ha":726,"x_min":63,"x_max":664,"o":"m 467 0 l 281 471 l 275 471 l 275 0 l 63 0 l 63 956 l 276 956 l 444 535 l 453 535 l 453 956 l 664 956 l 664 0 l 467 0 m 282 1029 l 282 1036 l 356 1233 l 556 1233 l 556 1226 l 444 1029 l 282 1029 z "},"Ň":{"ha":726,"x_min":63,"x_max":664,"o":"m 467 0 l 281 471 l 275 471 l 275 0 l 63 0 l 63 956 l 276 956 l 444 535 l 453 535 l 453 956 l 664 956 l 664 0 l 467 0 m 263 1051 l 160 1222 l 160 1233 l 299 1233 l 364 1143 l 429 1233 l 568 1233 l 568 1222 l 463 1051 l 263 1051 z "},"Ņ":{"ha":726,"x_min":63,"x_max":664,"o":"m 467 0 l 281 471 l 275 471 l 275 0 l 63 0 l 63 956 l 276 956 l 444 535 l 453 535 l 453 956 l 664 956 l 664 0 l 467 0 m 261 -315 q 323 -303 308 -315 q 338 -253 338 -290 l 338 -236 l 261 -236 l 261 -85 l 469 -85 l 469 -178 q 456 -317 469 -272 q 399 -382 442 -362 q 261 -401 356 -401 l 261 -315 z "},"Ṅ":{"ha":726,"x_min":63,"x_max":664,"o":"m 467 0 l 281 471 l 275 471 l 275 0 l 63 0 l 63 956 l 276 956 l 444 535 l 453 535 l 453 956 l 664 956 l 664 0 l 467 0 m 278 1063 l 278 1215 l 450 1215 l 450 1063 l 278 1063 z "},"Ŋ":{"ha":726,"x_min":63,"x_max":664,"o":"m 664 956 l 664 3 q 637 -183 661 -126 q 556 -258 613 -240 q 374 -275 499 -275 l 374 -122 q 428 -115 411 -122 q 449 -94 444 -108 q 453 -51 453 -81 l 453 43 l 281 471 l 275 471 l 275 0 l 63 0 l 63 956 l 276 956 l 444 535 l 453 535 l 453 956 l 664 956 z "},"Ɲ":{"ha":726,"x_min":-17,"x_max":664,"o":"m 664 956 l 664 0 l 467 0 l 281 471 l 275 471 l 275 32 q 251 -174 275 -111 q 170 -256 228 -237 q -17 -275 113 -275 l -17 -122 q 38 -115 21 -122 q 58 -94 54 -108 q 63 -51 63 -81 l 63 956 l 276 956 l 444 535 l 453 535 l 453 956 l 664 956 z "},"ǋ":{"ha":1046,"x_min":63,"x_max":990,"o":"m 467 0 l 281 471 l 275 471 l 275 0 l 63 0 l 63 956 l 276 956 l 444 535 l 453 535 l 453 956 l 664 956 l 664 0 l 467 0 m 782 850 l 782 1032 l 990 1032 l 990 850 l 782 850 m 703 -122 q 757 -115 740 -122 q 778 -94 774 -108 q 782 -51 782 -81 l 782 708 l 990 708 l 990 32 q 967 -174 990 -111 q 888 -256 944 -237 q 703 -275 831 -275 l 703 -122 z "},"Ñ":{"ha":726,"x_min":63,"x_max":664,"o":"m 467 0 l 281 471 l 275 471 l 275 0 l 63 0 l 63 956 l 276 956 l 444 535 l 453 535 l 453 956 l 664 956 l 664 0 l 467 0 m 585 1249 q 579 1138 585 1175 q 550 1080 574 1101 q 475 1058 526 1058 q 351 1079 429 1058 q 319 1087 343 1081 q 281 1093 294 1093 q 260 1083 264 1093 q 256 1043 256 1072 l 140 1043 q 146 1153 140 1117 q 175 1210 151 1189 q 251 1232 199 1232 q 375 1211 297 1232 q 446 1199 428 1199 q 466 1208 463 1199 q 469 1249 469 1218 l 585 1249 z "},"O":{"ha":704,"x_min":47,"x_max":657,"o":"m 351 -11 q 140 33 203 -11 q 63 169 78 76 q 47 478 47 261 q 63 788 47 694 q 140 924 78 881 q 351 967 203 967 q 563 924 500 967 q 642 788 626 881 q 657 478 657 694 q 642 169 657 261 q 563 33 626 76 q 351 -11 500 -11 m 351 179 q 410 193 396 179 q 429 261 425 207 q 433 478 433 315 q 429 694 433 640 q 410 763 425 749 q 351 776 396 776 q 294 763 308 776 q 275 694 279 749 q 271 478 271 640 q 275 261 271 315 q 294 193 279 207 q 351 179 308 179 z "},"Ó":{"ha":703,"x_min":47,"x_max":657,"o":"m 351 -11 q 140 33 203 -11 q 63 169 78 76 q 47 478 47 261 q 63 788 47 694 q 140 924 78 881 q 351 967 203 967 q 563 924 500 967 q 642 788 626 881 q 657 478 657 694 q 642 169 657 261 q 563 33 626 76 q 351 -11 500 -11 m 351 179 q 410 193 396 179 q 429 261 425 207 q 433 478 433 315 q 429 694 433 640 q 410 763 425 749 q 351 776 396 776 q 294 763 308 776 q 275 694 279 749 q 271 478 271 640 q 275 261 271 315 q 294 193 279 207 q 351 179 308 179 m 258 1042 l 258 1049 l 332 1246 l 532 1246 l 532 1239 l 421 1042 l 258 1042 z "},"Ŏ":{"ha":704,"x_min":47,"x_max":657,"o":"m 351 -11 q 140 33 203 -11 q 63 169 78 76 q 47 478 47 261 q 63 788 47 694 q 140 924 78 881 q 351 967 203 967 q 563 924 500 967 q 642 788 626 881 q 657 478 657 694 q 642 169 657 261 q 563 33 626 76 q 351 -11 500 -11 m 351 179 q 410 193 396 179 q 429 261 425 207 q 433 478 433 315 q 429 694 433 640 q 410 763 425 749 q 351 776 396 776 q 294 763 308 776 q 275 694 279 749 q 271 478 271 640 q 275 261 271 315 q 294 193 279 207 q 351 179 308 179 m 540 1233 q 526 1132 540 1172 q 471 1068 513 1092 q 351 1044 429 1044 q 233 1068 274 1044 q 178 1132 192 1092 q 164 1233 164 1172 l 286 1233 q 290 1192 286 1207 q 307 1169 293 1178 q 351 1160 321 1160 q 407 1177 396 1160 q 418 1233 418 1194 l 540 1233 z "},"Ǒ":{"ha":704,"x_min":47,"x_max":657,"o":"m 351 -11 q 140 33 203 -11 q 63 169 78 76 q 47 478 47 261 q 63 788 47 694 q 140 924 78 881 q 351 967 203 967 q 563 924 500 967 q 642 788 626 881 q 657 478 657 694 q 642 169 657 261 q 563 33 626 76 q 351 -11 500 -11 m 351 179 q 410 193 396 179 q 429 261 425 207 q 433 478 433 315 q 429 694 433 640 q 410 763 425 749 q 351 776 396 776 q 294 763 308 776 q 275 694 279 749 q 271 478 271 640 q 275 261 271 315 q 294 193 279 207 q 351 179 308 179 m 251 1051 l 149 1222 l 149 1233 l 288 1233 l 353 1143 l 418 1233 l 557 1233 l 557 1222 l 451 1051 l 251 1051 z "},"Ô":{"ha":703,"x_min":47,"x_max":657,"o":"m 351 -11 q 140 33 203 -11 q 63 169 78 76 q 47 478 47 261 q 63 788 47 694 q 140 924 78 881 q 351 967 203 967 q 563 924 500 967 q 642 788 626 881 q 657 478 657 694 q 642 169 657 261 q 563 33 626 76 q 351 -11 500 -11 m 351 179 q 410 193 396 179 q 429 261 425 207 q 433 478 433 315 q 429 694 433 640 q 410 763 425 749 q 351 776 396 776 q 294 763 308 776 q 275 694 279 749 q 271 478 271 640 q 275 261 271 315 q 294 193 279 207 q 351 179 308 179 m 146 1042 l 146 1054 l 249 1224 l 449 1224 l 554 1054 l 554 1042 l 415 1042 l 349 1132 l 285 1042 l 146 1042 z "},"Ố":{"ha":704,"x_min":47,"x_max":657,"o":"m 351 -11 q 140 33 203 -11 q 63 169 78 76 q 47 478 47 261 q 63 788 47 694 q 140 924 78 881 q 351 967 203 967 q 563 924 500 967 q 642 788 626 881 q 657 478 657 694 q 642 169 657 261 q 563 33 626 76 q 351 -11 500 -11 m 351 179 q 410 193 396 179 q 429 261 425 207 q 433 478 433 315 q 429 694 433 640 q 410 763 425 749 q 351 776 396 776 q 294 763 308 776 q 275 694 279 749 q 271 478 271 640 q 275 261 271 315 q 294 193 279 207 q 351 179 308 179 m 149 1014 l 149 1026 l 251 1196 l 451 1196 l 557 1026 l 557 1014 l 418 1014 l 351 1104 l 288 1014 l 149 1014 m 378 1232 l 378 1239 l 451 1436 l 651 1436 l 651 1429 l 540 1232 l 378 1232 z "},"Ộ":{"ha":704,"x_min":47,"x_max":657,"o":"m 351 -11 q 140 33 203 -11 q 63 169 78 76 q 47 478 47 261 q 63 788 47 694 q 140 924 78 881 q 351 967 203 967 q 563 924 500 967 q 642 788 626 881 q 657 478 657 694 q 642 169 657 261 q 563 33 626 76 q 351 -11 500 -11 m 351 179 q 410 193 396 179 q 429 261 425 207 q 433 478 433 315 q 429 694 433 640 q 410 763 425 749 q 351 776 396 776 q 294 763 308 776 q 275 694 279 749 q 271 478 271 640 q 275 261 271 315 q 294 193 279 207 q 351 179 308 179 m 242 -285 l 242 -86 l 463 -86 l 463 -285 l 242 -285 m 149 1051 l 149 1064 l 251 1233 l 451 1233 l 557 1064 l 557 1051 l 418 1051 l 351 1142 l 288 1051 l 149 1051 z "},"Ồ":{"ha":704,"x_min":47,"x_max":657,"o":"m 351 -11 q 140 33 203 -11 q 63 169 78 76 q 47 478 47 261 q 63 788 47 694 q 140 924 78 881 q 351 967 203 967 q 563 924 500 967 q 642 788 626 881 q 657 478 657 694 q 642 169 657 261 q 563 33 626 76 q 351 -11 500 -11 m 351 179 q 410 193 396 179 q 429 261 425 207 q 433 478 433 315 q 429 694 433 640 q 410 763 425 749 q 351 776 396 776 q 294 763 308 776 q 275 694 279 749 q 271 478 271 640 q 275 261 271 315 q 294 193 279 207 q 351 179 308 179 m 135 1011 l 135 1024 l 238 1193 l 438 1193 l 543 1024 l 543 1011 l 404 1011 l 338 1101 l 274 1011 l 135 1011 m 407 1229 l 296 1426 l 296 1433 l 496 1433 l 569 1236 l 569 1229 l 407 1229 z "},"Ổ":{"ha":704,"x_min":47,"x_max":696,"o":"m 351 -11 q 140 33 203 -11 q 63 169 78 76 q 47 478 47 261 q 63 788 47 694 q 140 924 78 881 q 351 967 203 967 q 563 924 500 967 q 642 788 626 881 q 657 478 657 694 q 642 169 657 261 q 563 33 626 76 q 351 -11 500 -11 m 351 179 q 410 193 396 179 q 429 261 425 207 q 433 478 433 315 q 429 694 433 640 q 410 763 425 749 q 351 776 396 776 q 294 763 308 776 q 275 694 279 749 q 271 478 271 640 q 275 261 271 315 q 294 193 279 207 q 351 179 308 179 m 149 1011 l 149 1024 l 251 1193 l 451 1193 l 557 1024 l 557 1011 l 418 1011 l 351 1101 l 288 1011 l 149 1011 m 422 1251 q 434 1303 422 1288 q 476 1329 446 1319 l 492 1335 q 540 1356 529 1349 q 551 1376 551 1363 q 540 1397 551 1393 q 493 1400 529 1400 q 351 1396 418 1400 l 351 1506 q 517 1524 439 1524 q 650 1500 604 1524 q 696 1403 696 1476 q 681 1326 696 1350 q 618 1283 665 1301 l 601 1275 q 562 1258 572 1264 q 549 1244 551 1251 q 546 1222 546 1238 l 422 1222 l 422 1251 z "},"Ỗ":{"ha":704,"x_min":47,"x_max":657,"o":"m 351 -11 q 140 33 203 -11 q 63 169 78 76 q 47 478 47 261 q 63 788 47 694 q 140 924 78 881 q 351 967 203 967 q 563 924 500 967 q 642 788 626 881 q 657 478 657 694 q 642 169 657 261 q 563 33 626 76 q 351 -11 500 -11 m 351 179 q 410 193 396 179 q 429 261 425 207 q 433 478 433 315 q 429 694 433 640 q 410 763 425 749 q 351 776 396 776 q 294 763 308 776 q 275 694 279 749 q 271 478 271 640 q 275 261 271 315 q 294 193 279 207 q 351 179 308 179 m 146 1011 l 146 1024 l 249 1193 l 449 1193 l 554 1024 l 554 1011 l 415 1011 l 349 1101 l 285 1011 l 146 1011 m 574 1433 q 568 1323 574 1360 q 539 1265 563 1286 q 464 1243 515 1243 q 340 1264 418 1243 q 308 1272 332 1265 q 269 1278 283 1278 q 249 1267 253 1278 q 244 1228 244 1257 l 129 1228 q 135 1338 129 1301 q 164 1395 140 1374 q 240 1417 188 1417 q 364 1396 286 1417 q 435 1383 417 1383 q 455 1393 451 1383 q 458 1433 458 1403 l 574 1433 z "},"Ȍ":{"ha":704,"x_min":47,"x_max":657,"o":"m 351 -11 q 140 33 203 -11 q 63 169 78 76 q 47 478 47 261 q 63 788 47 694 q 140 924 78 881 q 351 967 203 967 q 563 924 500 967 q 642 788 626 881 q 657 478 657 694 q 642 169 657 261 q 563 33 626 76 q 351 -11 500 -11 m 351 179 q 410 193 396 179 q 429 261 425 207 q 433 478 433 315 q 429 694 433 640 q 410 763 425 749 q 351 776 396 776 q 294 763 308 776 q 275 694 279 749 q 271 478 271 640 q 275 261 271 315 q 294 193 279 207 q 351 179 308 179 m 319 1050 l 186 1050 l 97 1210 l 97 1215 l 260 1215 l 319 1056 l 319 1050 m 526 1050 l 393 1050 l 304 1210 l 304 1215 l 468 1215 l 526 1056 l 526 1050 z "},"Ö":{"ha":703,"x_min":47,"x_max":657,"o":"m 351 -11 q 140 33 203 -11 q 63 169 78 76 q 47 478 47 261 q 63 788 47 694 q 140 924 78 881 q 351 967 203 967 q 563 924 500 967 q 642 788 626 881 q 657 478 657 694 q 642 169 657 261 q 563 33 626 76 q 351 -11 500 -11 m 351 179 q 410 193 396 179 q 429 261 425 207 q 433 478 433 315 q 429 694 433 640 q 410 763 425 749 q 351 776 396 776 q 294 763 308 776 q 275 694 279 749 q 271 478 271 640 q 275 261 271 315 q 294 193 279 207 q 351 179 308 179 m 142 1079 l 142 1232 l 315 1232 l 315 1079 l 142 1079 m 388 1079 l 388 1232 l 561 1232 l 561 1079 l 388 1079 z "},"Ọ":{"ha":704,"x_min":47,"x_max":657,"o":"m 351 -11 q 140 33 203 -11 q 63 169 78 76 q 47 478 47 261 q 63 788 47 694 q 140 924 78 881 q 351 967 203 967 q 563 924 500 967 q 642 788 626 881 q 657 478 657 694 q 642 169 657 261 q 563 33 626 76 q 351 -11 500 -11 m 351 179 q 410 193 396 179 q 429 261 425 207 q 433 478 433 315 q 429 694 433 640 q 410 763 425 749 q 351 776 396 776 q 294 763 308 776 q 275 694 279 749 q 271 478 271 640 q 275 261 271 315 q 294 193 279 207 q 351 179 308 179 m 242 -285 l 242 -86 l 463 -86 l 463 -285 l 242 -285 z "},"Ò":{"ha":703,"x_min":47,"x_max":657,"o":"m 351 -11 q 140 33 203 -11 q 63 169 78 76 q 47 478 47 261 q 63 788 47 694 q 140 924 78 881 q 351 967 203 967 q 563 924 500 967 q 642 788 626 881 q 657 478 657 694 q 642 169 657 261 q 563 33 626 76 q 351 -11 500 -11 m 351 179 q 410 193 396 179 q 429 261 425 207 q 433 478 433 315 q 429 694 433 640 q 410 763 425 749 q 351 776 396 776 q 294 763 308 776 q 275 694 279 749 q 271 478 271 640 q 275 261 271 315 q 294 193 279 207 q 351 179 308 179 m 275 1042 l 164 1239 l 164 1246 l 364 1246 l 438 1049 l 438 1042 l 275 1042 z "},"Ỏ":{"ha":704,"x_min":47,"x_max":657,"o":"m 351 -11 q 140 33 203 -11 q 63 169 78 76 q 47 478 47 261 q 63 788 47 694 q 140 924 78 881 q 351 967 203 967 q 563 924 500 967 q 642 788 626 881 q 657 478 657 694 q 642 169 657 261 q 563 33 626 76 q 351 -11 500 -11 m 351 179 q 410 193 396 179 q 429 261 425 207 q 433 478 433 315 q 429 694 433 640 q 410 763 425 749 q 351 776 396 776 q 294 763 308 776 q 275 694 279 749 q 271 478 271 640 q 275 261 271 315 q 294 193 279 207 q 351 179 308 179 m 251 1039 q 263 1090 251 1074 q 306 1118 274 1107 l 321 1124 q 369 1143 358 1136 q 381 1165 381 1150 q 369 1184 381 1181 q 322 1188 358 1188 q 181 1185 269 1188 l 181 1293 q 346 1313 275 1313 q 479 1289 433 1313 q 525 1190 525 1265 q 510 1114 525 1138 q 447 1071 494 1090 l 431 1063 q 391 1045 401 1051 q 378 1032 381 1039 q 375 1010 375 1025 l 251 1010 l 251 1039 z "},"Ơ":{"ha":704,"x_min":47,"x_max":732,"o":"m 732 1081 l 732 1056 q 723 957 732 992 q 688 902 714 922 q 610 875 663 882 q 649 738 642 824 q 657 478 657 653 q 642 169 657 261 q 563 33 626 76 q 351 -11 500 -11 q 140 33 203 -11 q 63 169 78 76 q 47 478 47 261 q 63 788 47 694 q 140 924 78 881 q 351 967 203 967 q 482 956 433 967 l 519 956 q 583 972 568 956 q 599 1032 599 988 l 599 1081 l 732 1081 m 351 179 q 410 193 396 179 q 429 261 425 207 q 433 478 433 315 q 429 694 433 640 q 410 763 425 749 q 351 776 396 776 q 294 763 308 776 q 275 694 279 749 q 271 478 271 640 q 275 261 271 315 q 294 193 279 207 q 351 179 308 179 z "},"Ớ":{"ha":704,"x_min":47,"x_max":732,"o":"m 732 1081 l 732 1056 q 723 957 732 992 q 688 902 714 922 q 610 875 663 882 q 649 738 642 824 q 657 478 657 653 q 642 169 657 261 q 563 33 626 76 q 351 -11 500 -11 q 140 33 203 -11 q 63 169 78 76 q 47 478 47 261 q 63 788 47 694 q 140 924 78 881 q 351 967 203 967 q 482 956 433 967 l 519 956 q 583 972 568 956 q 599 1032 599 988 l 599 1081 l 732 1081 m 351 179 q 410 193 396 179 q 429 261 425 207 q 433 478 433 315 q 429 694 433 640 q 410 763 425 749 q 351 776 396 776 q 294 763 308 776 q 275 694 279 749 q 271 478 271 640 q 275 261 271 315 q 294 193 279 207 q 351 179 308 179 m 271 1029 l 271 1036 l 344 1233 l 544 1233 l 544 1226 l 433 1029 l 271 1029 z "},"Ợ":{"ha":704,"x_min":47,"x_max":732,"o":"m 732 1081 l 732 1056 q 723 957 732 992 q 688 902 714 922 q 610 875 663 882 q 649 738 642 824 q 657 478 657 653 q 642 169 657 261 q 563 33 626 76 q 351 -11 500 -11 q 140 33 203 -11 q 63 169 78 76 q 47 478 47 261 q 63 788 47 694 q 140 924 78 881 q 351 967 203 967 q 482 956 433 967 l 519 956 q 583 972 568 956 q 599 1032 599 988 l 599 1081 l 732 1081 m 351 179 q 410 193 396 179 q 429 261 425 207 q 433 478 433 315 q 429 694 433 640 q 410 763 425 749 q 351 776 396 776 q 294 763 308 776 q 275 694 279 749 q 271 478 271 640 q 275 261 271 315 q 294 193 279 207 q 351 179 308 179 m 242 -285 l 242 -86 l 463 -86 l 463 -285 l 242 -285 z "},"Ờ":{"ha":704,"x_min":47,"x_max":732,"o":"m 732 1081 l 732 1056 q 723 957 732 992 q 688 902 714 922 q 610 875 663 882 q 649 738 642 824 q 657 478 657 653 q 642 169 657 261 q 563 33 626 76 q 351 -11 500 -11 q 140 33 203 -11 q 63 169 78 76 q 47 478 47 261 q 63 788 47 694 q 140 924 78 881 q 351 967 203 967 q 482 956 433 967 l 519 956 q 583 972 568 956 q 599 1032 599 988 l 599 1081 l 732 1081 m 351 179 q 410 193 396 179 q 429 261 425 207 q 433 478 433 315 q 429 694 433 640 q 410 763 425 749 q 351 776 396 776 q 294 763 308 776 q 275 694 279 749 q 271 478 271 640 q 275 261 271 315 q 294 193 279 207 q 351 179 308 179 m 276 1029 l 165 1226 l 165 1233 l 365 1233 l 439 1036 l 439 1029 l 276 1029 z "},"Ở":{"ha":704,"x_min":47,"x_max":732,"o":"m 732 1081 l 732 1056 q 723 957 732 992 q 688 902 714 922 q 610 875 663 882 q 649 738 642 824 q 657 478 657 653 q 642 169 657 261 q 563 33 626 76 q 351 -11 500 -11 q 140 33 203 -11 q 63 169 78 76 q 47 478 47 261 q 63 788 47 694 q 140 924 78 881 q 351 967 203 967 q 482 956 433 967 l 519 956 q 583 972 568 956 q 599 1032 599 988 l 599 1081 l 732 1081 m 351 179 q 410 193 396 179 q 429 261 425 207 q 433 478 433 315 q 429 694 433 640 q 410 763 425 749 q 351 776 396 776 q 294 763 308 776 q 275 694 279 749 q 271 478 271 640 q 275 261 271 315 q 294 193 279 207 q 351 179 308 179 m 251 1039 q 263 1090 251 1074 q 306 1118 274 1107 l 321 1124 q 369 1143 358 1136 q 381 1165 381 1150 q 369 1184 381 1181 q 322 1188 358 1188 q 181 1185 269 1188 l 181 1293 q 346 1313 275 1313 q 479 1289 433 1313 q 525 1190 525 1265 q 510 1114 525 1138 q 447 1071 494 1090 l 431 1063 q 391 1045 401 1051 q 378 1032 381 1039 q 375 1010 375 1025 l 251 1010 l 251 1039 z "},"Ỡ":{"ha":704,"x_min":47,"x_max":732,"o":"m 732 1081 l 732 1056 q 723 957 732 992 q 688 902 714 922 q 610 875 663 882 q 649 738 642 824 q 657 478 657 653 q 642 169 657 261 q 563 33 626 76 q 351 -11 500 -11 q 140 33 203 -11 q 63 169 78 76 q 47 478 47 261 q 63 788 47 694 q 140 924 78 881 q 351 967 203 967 q 482 956 433 967 l 519 956 q 583 972 568 956 q 599 1032 599 988 l 599 1081 l 732 1081 m 351 179 q 410 193 396 179 q 429 261 425 207 q 433 478 433 315 q 429 694 433 640 q 410 763 425 749 q 351 776 396 776 q 294 763 308 776 q 275 694 279 749 q 271 478 271 640 q 275 261 271 315 q 294 193 279 207 q 351 179 308 179 m 574 1233 q 568 1123 574 1160 q 539 1065 563 1086 q 464 1043 515 1043 q 340 1064 418 1043 q 308 1072 332 1065 q 269 1078 283 1078 q 249 1067 253 1078 q 244 1028 244 1057 l 129 1028 q 135 1138 129 1101 q 164 1195 140 1174 q 240 1217 188 1217 q 364 1196 286 1217 q 435 1183 417 1183 q 455 1193 451 1183 q 458 1233 458 1203 l 574 1233 z "},"Ő":{"ha":704,"x_min":47,"x_max":657,"o":"m 351 -11 q 140 33 203 -11 q 63 169 78 76 q 47 478 47 261 q 63 788 47 694 q 140 924 78 881 q 351 967 203 967 q 563 924 500 967 q 642 788 626 881 q 657 478 657 694 q 642 169 657 261 q 563 33 626 76 q 351 -11 500 -11 m 351 179 q 410 193 396 179 q 429 261 425 207 q 433 478 433 315 q 429 694 433 640 q 410 763 425 749 q 351 776 396 776 q 294 763 308 776 q 275 694 279 749 q 271 478 271 640 q 275 261 271 315 q 294 193 279 207 q 351 179 308 179 m 190 1050 l 190 1056 l 249 1215 l 413 1215 l 413 1210 l 324 1050 l 190 1050 m 397 1050 l 397 1056 l 457 1215 l 619 1215 l 619 1210 l 531 1050 l 397 1050 z "},"Ȏ":{"ha":704,"x_min":47,"x_max":657,"o":"m 351 -11 q 140 33 203 -11 q 63 169 78 76 q 47 478 47 261 q 63 788 47 694 q 140 924 78 881 q 351 967 203 967 q 563 924 500 967 q 642 788 626 881 q 657 478 657 694 q 642 169 657 261 q 563 33 626 76 q 351 -11 500 -11 m 351 179 q 410 193 396 179 q 429 261 425 207 q 433 478 433 315 q 429 694 433 640 q 410 763 425 749 q 351 776 396 776 q 294 763 308 776 q 275 694 279 749 q 271 478 271 640 q 275 261 271 315 q 294 193 279 207 q 351 179 308 179 m 164 1053 q 178 1154 164 1114 q 233 1218 192 1194 q 353 1242 275 1242 q 472 1218 431 1242 q 526 1154 513 1194 q 540 1053 540 1114 l 418 1053 q 415 1094 418 1079 q 397 1117 411 1108 q 353 1126 383 1126 q 297 1109 308 1126 q 286 1053 286 1092 l 164 1053 z "},"Ō":{"ha":704,"x_min":47,"x_max":657,"o":"m 351 -11 q 140 33 203 -11 q 63 169 78 76 q 47 478 47 261 q 63 788 47 694 q 140 924 78 881 q 351 967 203 967 q 563 924 500 967 q 642 788 626 881 q 657 478 657 694 q 642 169 657 261 q 563 33 626 76 q 351 -11 500 -11 m 351 179 q 410 193 396 179 q 429 261 425 207 q 433 478 433 315 q 429 694 433 640 q 410 763 425 749 q 351 776 396 776 q 294 763 308 776 q 275 694 279 749 q 271 478 271 640 q 275 261 271 315 q 294 193 279 207 q 351 179 308 179 m 207 1054 l 207 1233 l 497 1233 l 497 1054 l 207 1054 z "},"Ǫ":{"ha":703,"x_min":47,"x_max":656,"o":"m 469 -272 q 354 -238 389 -272 q 319 -151 319 -204 q 374 -11 319 -83 l 351 -11 q 140 32 203 -11 q 63 168 78 75 q 47 478 47 261 q 63 788 47 694 q 140 924 78 881 q 351 967 203 967 q 563 924 500 967 q 640 788 625 881 q 656 478 656 694 q 651 258 656 335 q 628 126 646 181 q 569 39 610 71 q 506 -30 532 11 q 479 -115 479 -71 q 531 -162 479 -162 q 549 -161 540 -162 l 549 -267 q 469 -272 504 -272 m 351 178 q 410 192 396 178 q 429 261 425 206 q 433 478 433 317 q 429 694 433 639 q 410 764 425 750 q 351 778 396 778 q 292 764 307 778 q 274 694 278 750 q 269 478 269 639 q 274 261 269 317 q 292 192 278 206 q 351 178 307 178 z "},"Ø":{"ha":703,"x_min":47,"x_max":657,"o":"m 599 890 q 647 753 638 840 q 657 478 657 665 q 642 169 657 261 q 563 33 626 76 q 351 -11 500 -11 q 254 -6 292 -11 l 226 -76 l 47 -76 l 103 68 q 56 206 65 118 q 47 478 47 293 q 63 788 47 694 q 140 924 78 881 q 351 967 203 967 q 447 961 408 967 l 475 1032 l 656 1032 l 599 890 m 351 179 q 410 193 396 179 q 429 261 425 207 q 433 478 433 315 q 429 694 433 640 q 410 763 425 749 q 351 776 396 776 q 294 763 308 776 q 275 694 279 749 q 271 478 271 640 q 275 261 271 315 q 294 193 279 207 q 351 179 308 179 z "},"Ǿ":{"ha":703,"x_min":47,"x_max":657,"o":"m 599 890 q 647 753 638 840 q 657 478 657 665 q 642 169 657 261 q 563 33 626 76 q 351 -11 500 -11 q 254 -6 292 -11 l 226 -76 l 47 -76 l 103 68 q 56 206 65 118 q 47 478 47 293 q 63 788 47 694 q 140 924 78 881 q 351 967 203 967 q 447 961 408 967 l 475 1032 l 656 1032 l 599 890 m 351 179 q 410 193 396 179 q 429 261 425 207 q 433 478 433 315 q 429 694 433 640 q 410 763 425 749 q 351 776 396 776 q 294 763 308 776 q 275 694 279 749 q 271 478 271 640 q 275 261 271 315 q 294 193 279 207 q 351 179 308 179 m 236 1029 l 236 1036 l 310 1233 l 510 1233 l 510 1226 l 399 1029 l 236 1029 z "},"Õ":{"ha":703,"x_min":47,"x_max":657,"o":"m 351 -11 q 140 33 203 -11 q 63 169 78 76 q 47 478 47 261 q 63 788 47 694 q 140 924 78 881 q 351 967 203 967 q 563 924 500 967 q 642 788 626 881 q 657 478 657 694 q 642 169 657 261 q 563 33 626 76 q 351 -11 500 -11 m 351 179 q 410 193 396 179 q 429 261 425 207 q 433 478 433 315 q 429 694 433 640 q 410 763 425 749 q 351 776 396 776 q 294 763 308 776 q 275 694 279 749 q 271 478 271 640 q 275 261 271 315 q 294 193 279 207 q 351 179 308 179 m 575 1247 q 569 1137 575 1174 q 540 1078 564 1100 q 465 1057 517 1057 q 342 1078 419 1057 q 309 1085 333 1079 q 271 1092 285 1092 q 250 1081 254 1092 q 246 1042 246 1071 l 131 1042 q 136 1151 131 1115 q 165 1209 142 1188 q 242 1231 189 1231 q 365 1210 288 1231 q 436 1197 418 1197 q 456 1207 453 1197 q 460 1247 460 1217 l 575 1247 z "},"Œ":{"ha":992,"x_min":47,"x_max":943,"o":"m 351 0 q 140 42 203 0 q 63 176 78 85 q 47 478 47 267 q 63 781 47 690 q 140 913 78 871 q 351 956 203 956 l 943 956 l 943 765 l 713 765 q 633 774 669 765 q 656 576 651 706 l 907 576 l 907 388 l 657 388 q 633 182 654 250 q 713 189 661 189 l 943 189 l 943 0 l 351 0 m 351 189 q 410 203 396 189 q 429 269 425 217 q 433 478 433 322 q 429 685 433 633 q 410 751 425 738 q 351 765 396 765 q 294 751 308 765 q 275 685 279 738 q 271 478 271 633 q 275 269 271 322 q 294 203 279 217 q 351 189 308 189 z "},"P":{"ha":667,"x_min":64,"x_max":642,"o":"m 64 956 l 393 956 q 551 919 497 956 q 623 814 604 883 q 642 625 642 744 q 624 443 642 513 q 553 334 607 374 q 393 294 500 294 l 286 294 l 286 0 l 64 0 l 64 956 m 336 483 q 392 492 376 483 q 413 528 407 500 q 418 625 418 556 q 413 722 418 694 q 392 758 408 750 q 338 767 376 767 l 286 767 l 286 483 l 336 483 z "},"Þ":{"ha":667,"x_min":64,"x_max":642,"o":"m 64 956 l 286 956 l 286 819 l 393 819 q 551 783 497 819 q 623 678 604 747 q 642 489 642 608 q 625 307 642 376 q 554 198 608 238 q 393 158 500 158 l 286 158 l 286 0 l 64 0 l 64 956 m 336 347 q 392 356 376 347 q 413 392 407 364 q 418 489 418 419 q 413 586 418 558 q 392 622 408 614 q 338 631 376 631 l 286 631 l 286 347 l 336 347 z "},"Q":{"ha":703,"x_min":47,"x_max":713,"o":"m 396 -10 q 351 -11 382 -11 q 140 32 203 -11 q 63 168 78 75 q 47 478 47 261 q 63 788 47 694 q 140 924 78 881 q 351 967 203 967 q 563 924 500 967 q 640 788 625 881 q 656 478 656 694 q 643 197 656 289 q 585 57 631 106 l 713 -151 l 713 -160 l 483 -160 l 396 -10 m 351 178 q 410 192 396 178 q 429 261 425 206 q 433 478 433 317 q 429 694 433 639 q 410 764 425 750 q 351 778 396 778 q 292 764 307 778 q 274 694 278 750 q 269 478 269 639 q 274 261 269 317 q 292 192 278 206 q 351 178 307 178 z "},"R":{"ha":693,"x_min":64,"x_max":671,"o":"m 442 0 l 357 322 l 286 322 l 286 0 l 64 0 l 64 956 l 400 956 q 558 921 504 956 q 631 819 613 886 q 649 639 649 753 q 631 466 649 533 q 561 364 614 399 l 671 0 l 442 0 m 344 507 q 400 515 385 507 q 421 548 415 522 q 426 638 426 574 q 422 726 426 701 q 401 759 417 751 q 344 767 385 767 l 286 767 l 286 507 l 344 507 z "},"Ŕ":{"ha":693,"x_min":64,"x_max":671,"o":"m 442 0 l 357 322 l 286 322 l 286 0 l 64 0 l 64 956 l 400 956 q 558 921 504 956 q 631 819 613 886 q 649 639 649 753 q 631 466 649 533 q 561 364 614 399 l 671 0 l 442 0 m 344 507 q 400 515 385 507 q 421 548 415 522 q 426 638 426 574 q 422 726 426 701 q 401 759 417 751 q 344 767 385 767 l 286 767 l 286 507 l 344 507 m 264 1029 l 264 1036 l 338 1233 l 538 1233 l 538 1226 l 426 1029 l 264 1029 z "},"Ř":{"ha":693,"x_min":64,"x_max":671,"o":"m 442 0 l 357 322 l 286 322 l 286 0 l 64 0 l 64 956 l 400 956 q 558 921 504 956 q 631 819 613 886 q 649 639 649 753 q 631 466 649 533 q 561 364 614 399 l 671 0 l 442 0 m 344 507 q 400 515 385 507 q 421 548 415 522 q 426 638 426 574 q 422 726 426 701 q 401 759 417 751 q 344 767 385 767 l 286 767 l 286 507 l 344 507 m 244 1051 l 142 1222 l 142 1233 l 281 1233 l 346 1143 l 411 1233 l 550 1233 l 550 1222 l 444 1051 l 244 1051 z "},"Ŗ":{"ha":693,"x_min":64,"x_max":671,"o":"m 442 0 l 357 322 l 286 322 l 286 0 l 64 0 l 64 956 l 400 956 q 558 921 504 956 q 631 819 613 886 q 649 639 649 753 q 631 466 649 533 q 561 364 614 399 l 671 0 l 442 0 m 344 507 q 400 515 385 507 q 421 548 415 522 q 426 638 426 574 q 422 726 426 701 q 401 759 417 751 q 344 767 385 767 l 286 767 l 286 507 l 344 507 m 243 -315 q 305 -303 290 -315 q 319 -253 319 -290 l 319 -236 l 243 -236 l 243 -85 l 451 -85 l 451 -178 q 438 -317 451 -272 q 381 -382 424 -362 q 243 -401 338 -401 l 243 -315 z "},"Ȑ":{"ha":693,"x_min":64,"x_max":671,"o":"m 442 0 l 357 322 l 286 322 l 286 0 l 64 0 l 64 956 l 400 956 q 558 921 504 956 q 631 819 613 886 q 649 639 649 753 q 631 466 649 533 q 561 364 614 399 l 671 0 l 442 0 m 344 507 q 400 515 385 507 q 421 548 415 522 q 426 638 426 574 q 422 726 426 701 q 401 759 417 751 q 344 767 385 767 l 286 767 l 286 507 l 344 507 m 313 1050 l 179 1050 l 90 1210 l 90 1215 l 253 1215 l 313 1056 l 313 1050 m 519 1050 l 386 1050 l 297 1210 l 297 1215 l 461 1215 l 519 1056 l 519 1050 z "},"Ṛ":{"ha":693,"x_min":64,"x_max":671,"o":"m 442 0 l 357 322 l 286 322 l 286 0 l 64 0 l 64 956 l 400 956 q 558 921 504 956 q 631 819 613 886 q 649 639 649 753 q 631 466 649 533 q 561 364 614 399 l 671 0 l 442 0 m 344 507 q 400 515 385 507 q 421 548 415 522 q 426 638 426 574 q 422 726 426 701 q 401 759 417 751 q 344 767 385 767 l 286 767 l 286 507 l 344 507 m 235 -285 l 235 -86 l 456 -86 l 456 -285 l 235 -285 z "},"Ȓ":{"ha":693,"x_min":64,"x_max":671,"o":"m 442 0 l 357 322 l 286 322 l 286 0 l 64 0 l 64 956 l 400 956 q 558 921 504 956 q 631 819 613 886 q 649 639 649 753 q 631 466 649 533 q 561 364 614 399 l 671 0 l 442 0 m 344 507 q 400 515 385 507 q 421 548 415 522 q 426 638 426 574 q 422 726 426 701 q 401 759 417 751 q 344 767 385 767 l 286 767 l 286 507 l 344 507 m 157 1053 q 171 1154 157 1114 q 226 1218 185 1194 q 346 1242 268 1242 q 465 1218 424 1242 q 519 1154 506 1194 q 533 1053 533 1114 l 411 1053 q 408 1094 411 1079 q 390 1117 404 1108 q 346 1126 376 1126 q 290 1109 301 1126 q 279 1053 279 1092 l 157 1053 z "},"S":{"ha":619,"x_min":36,"x_max":585,"o":"m 310 -11 q 175 -4 244 -11 q 54 14 106 3 l 54 189 q 247 179 181 179 q 315 183 293 179 q 347 199 338 186 q 360 225 357 208 q 363 274 363 242 q 358 339 363 319 q 336 367 353 358 q 279 383 319 376 l 158 406 q 63 484 89 417 q 36 674 36 551 q 72 860 36 796 q 169 945 108 924 q 325 967 231 967 q 550 942 431 967 l 550 767 q 381 776 479 776 q 311 774 333 776 q 278 761 289 771 q 263 735 267 753 q 258 682 258 717 q 262 628 258 644 q 277 603 265 611 q 317 590 289 596 l 431 569 q 510 540 478 560 q 563 468 543 519 q 585 306 585 410 q 551 99 585 168 q 460 10 517 31 q 310 -11 403 -11 z "},"Ś":{"ha":619,"x_min":36,"x_max":585,"o":"m 310 -11 q 175 -4 244 -11 q 54 14 106 3 l 54 189 q 247 179 181 179 q 315 183 293 179 q 347 199 338 186 q 360 225 357 208 q 363 274 363 242 q 358 339 363 319 q 336 367 353 358 q 279 383 319 376 l 158 406 q 63 484 89 417 q 36 674 36 551 q 72 860 36 796 q 169 945 108 924 q 325 967 231 967 q 550 942 431 967 l 550 767 q 381 776 479 776 q 311 774 333 776 q 278 761 289 771 q 263 735 267 753 q 258 682 258 717 q 262 628 258 644 q 277 603 265 611 q 317 590 289 596 l 431 569 q 510 540 478 560 q 563 468 543 519 q 585 306 585 410 q 551 99 585 168 q 460 10 517 31 q 310 -11 403 -11 m 229 1029 l 229 1036 l 303 1233 l 503 1233 l 503 1226 l 392 1029 l 229 1029 z "},"Ꞌ":{"ha":257,"x_min":33,"x_max":224,"o":"m 33 365 l 33 956 l 224 956 l 224 725 l 182 365 l 33 365 z "},"Š":{"ha":618,"x_min":36,"x_max":585,"o":"m 310 -11 q 175 -4 244 -11 q 54 14 106 3 l 54 189 q 247 179 181 179 q 315 183 293 179 q 347 199 338 186 q 360 225 357 208 q 363 274 363 242 q 358 339 363 319 q 336 367 353 358 q 279 383 319 376 l 158 406 q 63 484 89 417 q 36 674 36 551 q 72 860 36 796 q 169 945 108 924 q 325 967 231 967 q 550 942 431 967 l 550 767 q 381 776 479 776 q 311 774 333 776 q 278 761 289 771 q 263 735 267 753 q 258 682 258 717 q 262 628 258 644 q 277 603 265 611 q 317 590 289 596 l 431 569 q 510 540 478 560 q 563 468 543 519 q 585 306 585 410 q 551 99 585 168 q 460 10 517 31 q 310 -11 403 -11 m 213 1042 l 110 1213 l 110 1224 l 249 1224 l 314 1133 l 379 1224 l 518 1224 l 518 1213 l 413 1042 l 213 1042 z "},"Ş":{"ha":619,"x_min":36,"x_max":585,"o":"m 585 306 q 560 121 585 188 q 490 26 535 54 q 378 -8 444 -3 l 333 -262 l 156 -262 l 156 -256 l 242 -10 q 54 14 129 -3 l 54 189 q 247 179 181 179 q 315 183 293 179 q 347 199 338 186 q 360 225 357 208 q 363 274 363 242 q 358 339 363 319 q 336 367 353 358 q 279 383 319 376 l 158 406 q 63 484 89 417 q 36 674 36 551 q 72 860 36 796 q 169 945 108 924 q 325 967 231 967 q 550 942 431 967 l 550 767 q 381 776 479 776 q 311 774 333 776 q 278 761 289 771 q 263 735 267 753 q 258 682 258 717 q 262 628 258 644 q 277 603 265 611 q 317 590 289 596 l 431 569 q 510 540 478 560 q 563 468 543 519 q 585 306 585 410 z "},"Ŝ":{"ha":619,"x_min":36,"x_max":585,"o":"m 310 -11 q 175 -4 244 -11 q 54 14 106 3 l 54 189 q 247 179 181 179 q 315 183 293 179 q 347 199 338 186 q 360 225 357 208 q 363 274 363 242 q 358 339 363 319 q 336 367 353 358 q 279 383 319 376 l 158 406 q 63 484 89 417 q 36 674 36 551 q 72 860 36 796 q 169 945 108 924 q 325 967 231 967 q 550 942 431 967 l 550 767 q 381 776 479 776 q 311 774 333 776 q 278 761 289 771 q 263 735 267 753 q 258 682 258 717 q 262 628 258 644 q 277 603 265 611 q 317 590 289 596 l 431 569 q 510 540 478 560 q 563 468 543 519 q 585 306 585 410 q 551 99 585 168 q 460 10 517 31 q 310 -11 403 -11 m 107 1051 l 107 1064 l 210 1233 l 410 1233 l 515 1064 l 515 1051 l 376 1051 l 310 1142 l 246 1051 l 107 1051 z "},"Ș":{"ha":619,"x_min":36,"x_max":585,"o":"m 310 -11 q 175 -4 244 -11 q 54 14 106 3 l 54 189 q 247 179 181 179 q 315 183 293 179 q 347 199 338 186 q 360 225 357 208 q 363 274 363 242 q 358 339 363 319 q 336 367 353 358 q 279 383 319 376 l 158 406 q 63 484 89 417 q 36 674 36 551 q 72 860 36 796 q 169 945 108 924 q 325 967 231 967 q 550 942 431 967 l 550 767 q 381 776 479 776 q 311 774 333 776 q 278 761 289 771 q 263 735 267 753 q 258 682 258 717 q 262 628 258 644 q 277 603 265 611 q 317 590 289 596 l 431 569 q 510 540 478 560 q 563 468 543 519 q 585 306 585 410 q 551 99 585 168 q 460 10 517 31 q 310 -11 403 -11 m 208 -315 q 270 -303 256 -315 q 285 -253 285 -290 l 285 -236 l 208 -236 l 208 -85 l 417 -85 l 417 -178 q 403 -317 417 -272 q 346 -382 389 -362 q 208 -401 303 -401 l 208 -315 z "},"Ṣ":{"ha":619,"x_min":36,"x_max":585,"o":"m 310 -11 q 175 -4 244 -11 q 54 14 106 3 l 54 189 q 247 179 181 179 q 315 183 293 179 q 347 199 338 186 q 360 225 357 208 q 363 274 363 242 q 358 339 363 319 q 336 367 353 358 q 279 383 319 376 l 158 406 q 63 484 89 417 q 36 674 36 551 q 72 860 36 796 q 169 945 108 924 q 325 967 231 967 q 550 942 431 967 l 550 767 q 381 776 479 776 q 311 774 333 776 q 278 761 289 771 q 263 735 267 753 q 258 682 258 717 q 262 628 258 644 q 277 603 265 611 q 317 590 289 596 l 431 569 q 510 540 478 560 q 563 468 543 519 q 585 306 585 410 q 551 99 585 168 q 460 10 517 31 q 310 -11 403 -11 m 200 -285 l 200 -86 l 421 -86 l 421 -285 l 200 -285 z "},"ẞ":{"ha":811,"x_min":58,"x_max":774,"o":"m 583 532 q 727 454 681 517 q 774 251 774 392 q 747 98 774 156 q 660 15 719 40 q 499 -11 600 -11 q 420 -3 464 -11 q 344 15 376 4 l 344 188 q 438 178 403 178 q 511 184 489 178 q 542 210 533 190 q 551 278 551 231 q 542 353 551 329 q 511 383 533 376 q 443 390 489 390 l 361 390 l 361 546 l 497 774 q 419 778 456 778 q 322 759 349 778 q 288 684 294 740 q 281 476 281 628 l 281 0 l 58 0 l 58 476 q 82 783 58 683 q 177 925 106 883 q 400 967 249 967 q 569 957 478 967 q 733 935 661 947 l 733 779 l 583 532 z "},"Ə":{"ha":699,"x_min":47,"x_max":650,"o":"m 322 967 q 536 921 467 967 q 628 775 606 875 q 650 478 650 675 q 635 168 650 261 q 557 32 619 75 q 347 -11 494 -11 q 139 32 201 -11 q 62 168 76 75 q 47 478 47 261 l 47 578 l 426 578 q 413 712 425 672 q 372 764 401 751 q 271 776 342 776 q 121 768 182 776 l 121 942 q 213 960 158 953 q 322 967 267 967 m 347 178 q 407 188 390 178 q 430 240 424 199 q 438 388 436 281 l 260 388 q 267 240 261 281 q 288 188 272 199 q 347 178 304 178 z "},"T":{"ha":590,"x_min":11,"x_max":579,"o":"m 185 0 l 185 760 l 11 760 l 11 956 l 579 956 l 579 760 l 407 760 l 407 0 l 185 0 z "},"Ŧ":{"ha":590,"x_min":11,"x_max":579,"o":"m 579 760 l 407 760 l 407 563 l 547 563 l 547 397 l 407 397 l 407 0 l 185 0 l 185 397 l 43 397 l 43 563 l 185 563 l 185 760 l 11 760 l 11 956 l 579 956 l 579 760 z "},"Ť":{"ha":590,"x_min":11,"x_max":579,"o":"m 185 0 l 185 760 l 11 760 l 11 956 l 579 956 l 579 760 l 407 760 l 407 0 l 185 0 m 194 1051 l 92 1222 l 92 1233 l 231 1233 l 296 1143 l 361 1233 l 500 1233 l 500 1222 l 394 1051 l 194 1051 z "},"Ţ":{"ha":590,"x_min":11,"x_max":579,"o":"m 11 956 l 579 956 l 579 760 l 407 760 l 407 0 l 364 0 l 318 -262 l 140 -262 l 140 -256 l 229 0 l 185 0 l 185 760 l 11 760 l 11 956 z "},"Ț":{"ha":590,"x_min":11,"x_max":579,"o":"m 185 0 l 185 760 l 11 760 l 11 956 l 579 956 l 579 760 l 407 760 l 407 0 l 185 0 m 193 -315 q 255 -303 240 -315 q 269 -253 269 -290 l 269 -236 l 193 -236 l 193 -85 l 401 -85 l 401 -178 q 388 -317 401 -272 q 331 -382 374 -362 q 193 -401 288 -401 l 193 -315 z "},"Ṭ":{"ha":590,"x_min":11,"x_max":579,"o":"m 185 0 l 185 760 l 11 760 l 11 956 l 579 956 l 579 760 l 407 760 l 407 0 l 185 0 m 185 -285 l 185 -86 l 406 -86 l 406 -285 l 185 -285 z "},"U":{"ha":701,"x_min":58,"x_max":643,"o":"m 643 956 l 643 426 q 628 151 643 236 q 551 28 613 67 q 350 -11 490 -11 q 149 28 210 -11 q 74 151 89 67 q 58 426 58 235 l 58 956 l 281 956 l 281 361 q 284 231 281 265 q 301 188 288 197 q 350 178 314 178 q 401 188 388 178 q 417 231 414 197 q 421 361 421 265 l 421 956 l 643 956 z "},"Ú":{"ha":701,"x_min":58,"x_max":643,"o":"m 643 956 l 643 426 q 628 151 643 236 q 551 28 613 67 q 350 -11 490 -11 q 149 28 210 -11 q 74 151 89 67 q 58 426 58 235 l 58 956 l 281 956 l 281 361 q 284 231 281 265 q 301 188 288 197 q 350 178 314 178 q 401 188 388 178 q 417 231 414 197 q 421 361 421 265 l 421 956 l 643 956 m 264 1042 l 264 1049 l 338 1246 l 538 1246 l 538 1239 l 426 1042 l 264 1042 z "},"Ŭ":{"ha":701,"x_min":58,"x_max":643,"o":"m 643 956 l 643 426 q 628 151 643 236 q 551 28 613 67 q 350 -11 490 -11 q 149 28 210 -11 q 74 151 89 67 q 58 426 58 235 l 58 956 l 281 956 l 281 361 q 284 231 281 265 q 301 188 288 197 q 350 178 314 178 q 401 188 388 178 q 417 231 414 197 q 421 361 421 265 l 421 956 l 643 956 m 539 1233 q 525 1132 539 1172 q 469 1068 511 1092 q 350 1044 428 1044 q 231 1068 272 1044 q 176 1132 190 1092 q 163 1233 163 1172 l 285 1233 q 288 1192 285 1207 q 306 1169 292 1178 q 350 1160 319 1160 q 406 1177 394 1160 q 417 1233 417 1194 l 539 1233 z "},"Ǔ":{"ha":701,"x_min":58,"x_max":643,"o":"m 643 956 l 643 426 q 628 151 643 236 q 551 28 613 67 q 350 -11 490 -11 q 149 28 210 -11 q 74 151 89 67 q 58 426 58 235 l 58 956 l 281 956 l 281 361 q 284 231 281 265 q 301 188 288 197 q 350 178 314 178 q 401 188 388 178 q 417 231 414 197 q 421 361 421 265 l 421 956 l 643 956 m 250 1051 l 147 1222 l 147 1233 l 286 1233 l 351 1143 l 417 1233 l 556 1233 l 556 1222 l 450 1051 l 250 1051 z "},"Û":{"ha":701,"x_min":58,"x_max":643,"o":"m 643 956 l 643 426 q 628 151 643 236 q 551 28 613 67 q 350 -11 490 -11 q 149 28 210 -11 q 74 151 89 67 q 58 426 58 235 l 58 956 l 281 956 l 281 361 q 284 231 281 265 q 301 188 288 197 q 350 178 314 178 q 401 188 388 178 q 417 231 414 197 q 421 361 421 265 l 421 956 l 643 956 m 147 1042 l 147 1054 l 250 1224 l 450 1224 l 556 1054 l 556 1042 l 417 1042 l 350 1132 l 286 1042 l 147 1042 z "},"Ȕ":{"ha":701,"x_min":58,"x_max":643,"o":"m 643 956 l 643 426 q 628 151 643 236 q 551 28 613 67 q 350 -11 490 -11 q 149 28 210 -11 q 74 151 89 67 q 58 426 58 235 l 58 956 l 281 956 l 281 361 q 284 231 281 265 q 301 188 288 197 q 350 178 314 178 q 401 188 388 178 q 417 231 414 197 q 421 361 421 265 l 421 956 l 643 956 m 318 1050 l 185 1050 l 96 1210 l 96 1215 l 258 1215 l 318 1056 l 318 1050 m 525 1050 l 392 1050 l 303 1210 l 303 1215 l 467 1215 l 525 1056 l 525 1050 z "},"Ü":{"ha":701,"x_min":58,"x_max":643,"o":"m 643 956 l 643 426 q 628 151 643 236 q 551 28 613 67 q 350 -11 490 -11 q 149 28 210 -11 q 74 151 89 67 q 58 426 58 235 l 58 956 l 281 956 l 281 361 q 284 231 281 265 q 301 188 288 197 q 350 178 314 178 q 401 188 388 178 q 417 231 414 197 q 421 361 421 265 l 421 956 l 643 956 m 140 1079 l 140 1232 l 314 1232 l 314 1079 l 140 1079 m 386 1079 l 386 1232 l 560 1232 l 560 1079 l 386 1079 z "},"Ǘ":{"ha":701,"x_min":58,"x_max":643,"o":"m 315 1206 l 315 1063 l 142 1063 l 142 1215 l 274 1215 l 346 1410 l 546 1410 l 546 1403 l 440 1215 l 561 1215 l 561 1063 l 388 1063 l 388 1206 l 315 1206 m 643 956 l 643 426 q 628 151 643 236 q 551 28 613 67 q 350 -11 490 -11 q 149 28 210 -11 q 74 151 89 67 q 58 426 58 235 l 58 956 l 281 956 l 281 361 q 284 231 281 265 q 301 188 288 197 q 350 178 314 178 q 401 188 388 178 q 417 231 414 197 q 421 361 421 265 l 421 956 l 643 956 z "},"Ǚ":{"ha":701,"x_min":58,"x_max":643,"o":"m 643 956 l 643 426 q 628 151 643 236 q 551 28 613 67 q 350 -11 490 -11 q 149 28 210 -11 q 74 151 89 67 q 58 426 58 235 l 58 956 l 281 956 l 281 361 q 284 231 281 265 q 301 188 288 197 q 350 178 314 178 q 401 188 388 178 q 417 231 414 197 q 421 361 421 265 l 421 956 l 643 956 m 142 1063 l 142 1215 l 315 1215 l 315 1063 l 142 1063 m 388 1063 l 388 1215 l 561 1215 l 561 1063 l 388 1063 m 253 1228 l 150 1399 l 150 1410 l 289 1410 l 354 1319 l 419 1410 l 558 1410 l 558 1399 l 453 1228 l 253 1228 z "},"Ǜ":{"ha":701,"x_min":58,"x_max":643,"o":"m 315 1206 l 315 1063 l 142 1063 l 142 1215 l 272 1215 l 167 1403 l 167 1410 l 367 1410 l 439 1215 l 561 1215 l 561 1063 l 388 1063 l 388 1206 l 315 1206 m 643 956 l 643 426 q 628 151 643 236 q 551 28 613 67 q 350 -11 490 -11 q 149 28 210 -11 q 74 151 89 67 q 58 426 58 235 l 58 956 l 281 956 l 281 361 q 284 231 281 265 q 301 188 288 197 q 350 178 314 178 q 401 188 388 178 q 417 231 414 197 q 421 361 421 265 l 421 956 l 643 956 z "},"Ǖ":{"ha":701,"x_min":58,"x_max":643,"o":"m 315 1214 l 315 1063 l 142 1063 l 142 1215 l 208 1215 l 208 1363 l 499 1363 l 499 1215 l 561 1215 l 561 1063 l 388 1063 l 388 1214 l 315 1214 m 643 956 l 643 426 q 628 151 643 236 q 551 28 613 67 q 350 -11 490 -11 q 149 28 210 -11 q 74 151 89 67 q 58 426 58 235 l 58 956 l 281 956 l 281 361 q 284 231 281 265 q 301 188 288 197 q 350 178 314 178 q 401 188 388 178 q 417 231 414 197 q 421 361 421 265 l 421 956 l 643 956 z "},"Ụ":{"ha":701,"x_min":58,"x_max":643,"o":"m 643 956 l 643 426 q 628 151 643 236 q 551 28 613 67 q 350 -11 490 -11 q 149 28 210 -11 q 74 151 89 67 q 58 426 58 235 l 58 956 l 281 956 l 281 361 q 284 231 281 265 q 301 188 288 197 q 350 178 314 178 q 401 188 388 178 q 417 231 414 197 q 421 361 421 265 l 421 956 l 643 956 m 240 -285 l 240 -86 l 461 -86 l 461 -285 l 240 -285 z "},"Ù":{"ha":701,"x_min":58,"x_max":643,"o":"m 643 956 l 643 426 q 628 151 643 236 q 551 28 613 67 q 350 -11 490 -11 q 149 28 210 -11 q 74 151 89 67 q 58 426 58 235 l 58 956 l 281 956 l 281 361 q 284 231 281 265 q 301 188 288 197 q 350 178 314 178 q 401 188 388 178 q 417 231 414 197 q 421 361 421 265 l 421 956 l 643 956 m 278 1042 l 167 1239 l 167 1246 l 367 1246 l 440 1049 l 440 1042 l 278 1042 z "},"Ủ":{"ha":701,"x_min":58,"x_max":643,"o":"m 643 956 l 643 426 q 628 151 643 236 q 551 28 613 67 q 350 -11 490 -11 q 149 28 210 -11 q 74 151 89 67 q 58 426 58 235 l 58 956 l 281 956 l 281 361 q 284 231 281 265 q 301 188 288 197 q 350 178 314 178 q 401 188 388 178 q 417 231 414 197 q 421 361 421 265 l 421 956 l 643 956 m 250 1039 q 261 1090 250 1074 q 304 1118 272 1107 l 319 1124 q 368 1143 357 1136 q 379 1165 379 1150 q 368 1184 379 1181 q 321 1188 357 1188 q 179 1185 268 1188 l 179 1293 q 344 1313 274 1313 q 478 1289 432 1313 q 524 1190 524 1265 q 508 1114 524 1138 q 446 1071 493 1090 l 429 1063 q 390 1045 400 1051 q 376 1032 379 1039 q 374 1010 374 1025 l 250 1010 l 250 1039 z "},"Ư":{"ha":701,"x_min":58,"x_max":735,"o":"m 735 1081 l 735 1056 q 717 932 735 969 q 643 881 700 894 l 643 426 q 628 151 643 236 q 551 28 613 67 q 350 -11 490 -11 q 149 28 210 -11 q 74 151 89 67 q 58 426 58 235 l 58 956 l 281 956 l 281 361 q 284 231 281 265 q 301 188 288 197 q 350 178 314 178 q 401 188 388 178 q 417 231 414 197 q 421 361 421 265 l 421 956 l 522 956 q 586 972 571 956 q 601 1032 601 988 l 601 1081 l 735 1081 z "},"Ứ":{"ha":701,"x_min":58,"x_max":735,"o":"m 735 1081 l 735 1056 q 717 932 735 969 q 643 881 700 894 l 643 426 q 628 151 643 236 q 551 28 613 67 q 350 -11 490 -11 q 149 28 210 -11 q 74 151 89 67 q 58 426 58 235 l 58 956 l 281 956 l 281 361 q 284 231 281 265 q 301 188 288 197 q 350 178 314 178 q 401 188 388 178 q 417 231 414 197 q 421 361 421 265 l 421 956 l 522 956 q 586 972 571 956 q 601 1032 601 988 l 601 1081 l 735 1081 m 269 1029 l 269 1036 l 343 1233 l 543 1233 l 543 1226 l 432 1029 l 269 1029 z "},"Ự":{"ha":701,"x_min":58,"x_max":735,"o":"m 735 1081 l 735 1056 q 717 932 735 969 q 643 881 700 894 l 643 426 q 628 151 643 236 q 551 28 613 67 q 350 -11 490 -11 q 149 28 210 -11 q 74 151 89 67 q 58 426 58 235 l 58 956 l 281 956 l 281 361 q 284 231 281 265 q 301 188 288 197 q 350 178 314 178 q 401 188 388 178 q 417 231 414 197 q 421 361 421 265 l 421 956 l 522 956 q 586 972 571 956 q 601 1032 601 988 l 601 1081 l 735 1081 m 240 -285 l 240 -86 l 461 -86 l 461 -285 l 240 -285 z "},"Ừ":{"ha":701,"x_min":58,"x_max":735,"o":"m 735 1081 l 735 1056 q 717 932 735 969 q 643 881 700 894 l 643 426 q 628 151 643 236 q 551 28 613 67 q 350 -11 490 -11 q 149 28 210 -11 q 74 151 89 67 q 58 426 58 235 l 58 956 l 281 956 l 281 361 q 284 231 281 265 q 301 188 288 197 q 350 178 314 178 q 401 188 388 178 q 417 231 414 197 q 421 361 421 265 l 421 956 l 522 956 q 586 972 571 956 q 601 1032 601 988 l 601 1081 l 735 1081 m 275 1029 l 164 1226 l 164 1233 l 364 1233 l 438 1036 l 438 1029 l 275 1029 z "},"Ử":{"ha":701,"x_min":58,"x_max":735,"o":"m 735 1081 l 735 1056 q 717 932 735 969 q 643 881 700 894 l 643 426 q 628 151 643 236 q 551 28 613 67 q 350 -11 490 -11 q 149 28 210 -11 q 74 151 89 67 q 58 426 58 235 l 58 956 l 281 956 l 281 361 q 284 231 281 265 q 301 188 288 197 q 350 178 314 178 q 401 188 388 178 q 417 231 414 197 q 421 361 421 265 l 421 956 l 522 956 q 586 972 571 956 q 601 1032 601 988 l 601 1081 l 735 1081 m 250 1039 q 261 1090 250 1074 q 304 1118 272 1107 l 319 1124 q 368 1143 357 1136 q 379 1165 379 1150 q 368 1184 379 1181 q 321 1188 357 1188 q 179 1185 268 1188 l 179 1293 q 344 1313 274 1313 q 478 1289 432 1313 q 524 1190 524 1265 q 508 1114 524 1138 q 446 1071 493 1090 l 429 1063 q 390 1045 400 1051 q 376 1032 379 1039 q 374 1010 374 1025 l 250 1010 l 250 1039 z "},"Ữ":{"ha":701,"x_min":58,"x_max":735,"o":"m 735 1081 l 735 1056 q 717 932 735 969 q 643 881 700 894 l 643 426 q 628 151 643 236 q 551 28 613 67 q 350 -11 490 -11 q 149 28 210 -11 q 74 151 89 67 q 58 426 58 235 l 58 956 l 281 956 l 281 361 q 284 231 281 265 q 301 188 288 197 q 350 178 314 178 q 401 188 388 178 q 417 231 414 197 q 421 361 421 265 l 421 956 l 522 956 q 586 972 571 956 q 601 1032 601 988 l 601 1081 l 735 1081 m 572 1233 q 567 1123 572 1160 q 538 1065 561 1086 q 463 1043 514 1043 q 339 1064 417 1043 q 306 1072 331 1065 q 268 1078 282 1078 q 247 1067 251 1078 q 243 1028 243 1057 l 128 1028 q 133 1138 128 1101 q 163 1195 139 1174 q 239 1217 186 1217 q 363 1196 285 1217 q 433 1183 415 1183 q 453 1193 450 1183 q 457 1233 457 1203 l 572 1233 z "},"Ű":{"ha":701,"x_min":58,"x_max":643,"o":"m 643 956 l 643 426 q 628 151 643 236 q 551 28 613 67 q 350 -11 490 -11 q 149 28 210 -11 q 74 151 89 67 q 58 426 58 235 l 58 956 l 281 956 l 281 361 q 284 231 281 265 q 301 188 288 197 q 350 178 314 178 q 401 188 388 178 q 417 231 414 197 q 421 361 421 265 l 421 956 l 643 956 m 189 1050 l 189 1056 l 247 1215 l 411 1215 l 411 1210 l 322 1050 l 189 1050 m 396 1050 l 396 1056 l 456 1215 l 618 1215 l 618 1210 l 529 1050 l 396 1050 z "},"Ȗ":{"ha":701,"x_min":58,"x_max":643,"o":"m 643 956 l 643 426 q 628 151 643 236 q 551 28 613 67 q 350 -11 490 -11 q 149 28 210 -11 q 74 151 89 67 q 58 426 58 235 l 58 956 l 281 956 l 281 361 q 284 231 281 265 q 301 188 288 197 q 350 178 314 178 q 401 188 388 178 q 417 231 414 197 q 421 361 421 265 l 421 956 l 643 956 m 163 1053 q 176 1154 163 1114 q 232 1218 190 1194 q 351 1242 274 1242 q 470 1218 429 1242 q 525 1154 511 1194 q 539 1053 539 1114 l 417 1053 q 413 1094 417 1079 q 396 1117 410 1108 q 351 1126 382 1126 q 296 1109 307 1126 q 285 1053 285 1092 l 163 1053 z "},"Ū":{"ha":701,"x_min":58,"x_max":643,"o":"m 643 956 l 643 426 q 628 151 643 236 q 551 28 613 67 q 350 -11 490 -11 q 149 28 210 -11 q 74 151 89 67 q 58 426 58 235 l 58 956 l 281 956 l 281 361 q 284 231 281 265 q 301 188 288 197 q 350 178 314 178 q 401 188 388 178 q 417 231 414 197 q 421 361 421 265 l 421 956 l 643 956 m 206 1054 l 206 1233 l 496 1233 l 496 1054 l 206 1054 z "},"Ų":{"ha":701,"x_min":58,"x_max":643,"o":"m 643 956 l 643 426 q 638 226 643 297 q 614 106 633 156 q 554 29 594 57 q 464 -112 464 -29 q 475 -149 464 -136 q 517 -162 486 -162 l 533 -161 l 533 -267 q 451 -272 486 -272 q 339 -238 374 -272 q 304 -149 304 -204 q 364 -11 304 -82 l 350 -11 q 149 28 210 -11 q 74 151 89 67 q 58 426 58 235 l 58 956 l 281 956 l 281 361 q 284 231 281 265 q 301 188 288 197 q 350 178 314 178 q 401 188 388 178 q 417 231 414 197 q 421 361 421 265 l 421 956 l 643 956 z "},"Ů":{"ha":701,"x_min":58,"x_max":643,"o":"m 643 956 l 643 426 q 628 151 643 236 q 551 28 613 67 q 350 -11 490 -11 q 149 28 210 -11 q 74 151 89 67 q 58 426 58 235 l 58 956 l 281 956 l 281 361 q 284 231 281 265 q 301 188 288 197 q 350 178 314 178 q 401 188 388 178 q 417 231 414 197 q 421 361 421 265 l 421 956 l 643 956 m 351 1001 q 226 1017 265 1001 q 177 1064 188 1033 q 167 1157 167 1094 q 177 1251 167 1219 q 226 1298 188 1282 q 351 1314 265 1314 q 475 1298 436 1314 q 524 1251 514 1282 q 535 1157 535 1219 q 524 1064 535 1094 q 475 1017 514 1033 q 351 1001 436 1001 m 351 1097 q 393 1102 381 1097 q 408 1118 406 1107 q 411 1157 411 1129 q 408 1196 411 1185 q 393 1212 406 1207 q 351 1217 381 1217 q 310 1212 322 1217 q 294 1196 297 1207 q 292 1157 292 1185 q 294 1118 292 1129 q 310 1102 297 1107 q 351 1097 322 1097 z "},"Ũ":{"ha":701,"x_min":58,"x_max":643,"o":"m 643 956 l 643 426 q 628 151 643 236 q 551 28 613 67 q 350 -11 490 -11 q 149 28 210 -11 q 74 151 89 67 q 58 426 58 235 l 58 956 l 281 956 l 281 361 q 284 231 281 265 q 301 188 288 197 q 350 178 314 178 q 401 188 388 178 q 417 231 414 197 q 421 361 421 265 l 421 956 l 643 956 m 572 1233 q 567 1123 572 1160 q 538 1065 561 1086 q 463 1043 514 1043 q 339 1064 417 1043 q 306 1072 331 1065 q 268 1078 282 1078 q 247 1067 251 1078 q 243 1028 243 1057 l 128 1028 q 133 1138 128 1101 q 163 1195 139 1174 q 239 1217 186 1217 q 363 1196 285 1217 q 433 1183 415 1183 q 453 1193 450 1183 q 457 1233 457 1203 l 572 1233 z "},"V":{"ha":683,"x_min":11,"x_max":672,"o":"m 181 0 l 11 956 l 236 956 l 339 228 l 353 228 l 451 956 l 672 956 l 503 0 l 181 0 z "},"W":{"ha":1067,"x_min":19,"x_max":1053,"o":"m 622 0 l 540 624 l 531 624 l 450 0 l 146 0 l 19 956 l 243 956 l 307 233 l 318 233 l 411 956 l 668 956 l 764 233 l 775 233 l 833 956 l 1053 956 l 925 0 l 622 0 z "},"Ẃ":{"ha":1067,"x_min":19,"x_max":1053,"o":"m 622 0 l 540 624 l 531 624 l 450 0 l 146 0 l 19 956 l 243 956 l 307 233 l 318 233 l 411 956 l 668 956 l 764 233 l 775 233 l 833 956 l 1053 956 l 925 0 l 622 0 m 453 1029 l 453 1036 l 526 1233 l 726 1233 l 726 1226 l 615 1029 l 453 1029 z "},"Ŵ":{"ha":1067,"x_min":19,"x_max":1053,"o":"m 622 0 l 540 624 l 531 624 l 450 0 l 146 0 l 19 956 l 243 956 l 307 233 l 318 233 l 411 956 l 668 956 l 764 233 l 775 233 l 833 956 l 1053 956 l 925 0 l 622 0 m 331 1051 l 331 1064 l 433 1233 l 633 1233 l 739 1064 l 739 1051 l 600 1051 l 533 1142 l 469 1051 l 331 1051 z "},"Ẅ":{"ha":1067,"x_min":19,"x_max":1053,"o":"m 622 0 l 540 624 l 531 624 l 450 0 l 146 0 l 19 956 l 243 956 l 307 233 l 318 233 l 411 956 l 668 956 l 764 233 l 775 233 l 833 956 l 1053 956 l 925 0 l 622 0 m 325 1063 l 325 1215 l 499 1215 l 499 1063 l 325 1063 m 571 1063 l 571 1215 l 744 1215 l 744 1063 l 571 1063 z "},"Ẁ":{"ha":1067,"x_min":19,"x_max":1053,"o":"m 622 0 l 540 624 l 531 624 l 450 0 l 146 0 l 19 956 l 243 956 l 307 233 l 318 233 l 411 956 l 668 956 l 764 233 l 775 233 l 833 956 l 1053 956 l 925 0 l 622 0 m 458 1029 l 347 1226 l 347 1233 l 547 1233 l 621 1036 l 621 1029 l 458 1029 z "},"X":{"ha":708,"x_min":13,"x_max":697,"o":"m 457 0 l 357 324 l 344 324 l 243 0 l 13 0 l 200 481 l 15 956 l 254 956 l 351 646 l 363 646 l 463 956 l 693 956 l 510 486 l 697 0 l 457 0 z "},"Y":{"ha":661,"x_min":-1,"x_max":663,"o":"m 219 0 l 219 324 l -1 956 l 224 956 l 329 556 l 343 556 l 443 956 l 663 956 l 442 324 l 442 0 l 219 0 z "},"Ý":{"ha":661,"x_min":-1,"x_max":663,"o":"m 219 0 l 219 324 l -1 956 l 224 956 l 329 556 l 343 556 l 443 956 l 663 956 l 442 324 l 442 0 l 219 0 m 251 1042 l 251 1049 l 325 1246 l 525 1246 l 525 1239 l 414 1042 l 251 1042 z "},"Ŷ":{"ha":661,"x_min":-1,"x_max":663,"o":"m 219 0 l 219 324 l -1 956 l 224 956 l 329 556 l 343 556 l 443 956 l 663 956 l 442 324 l 442 0 l 219 0 m 126 1051 l 126 1064 l 229 1233 l 429 1233 l 535 1064 l 535 1051 l 396 1051 l 329 1142 l 265 1051 l 126 1051 z "},"Ÿ":{"ha":661,"x_min":-1,"x_max":663,"o":"m 219 0 l 219 324 l -1 956 l 224 956 l 329 556 l 343 556 l 443 956 l 663 956 l 442 324 l 442 0 l 219 0 m 126 1079 l 126 1232 l 300 1232 l 300 1079 l 126 1079 m 372 1079 l 372 1232 l 546 1232 l 546 1079 l 372 1079 z "},"Ỵ":{"ha":661,"x_min":-1,"x_max":663,"o":"m 219 0 l 219 324 l -1 956 l 224 956 l 329 556 l 343 556 l 443 956 l 663 956 l 442 324 l 442 0 l 219 0 m 219 -285 l 219 -86 l 440 -86 l 440 -285 l 219 -285 z "},"Ỳ":{"ha":661,"x_min":-1,"x_max":663,"o":"m 219 0 l 219 324 l -1 956 l 224 956 l 329 556 l 343 556 l 443 956 l 663 956 l 442 324 l 442 0 l 219 0 m 254 1029 l 143 1226 l 143 1233 l 343 1233 l 417 1036 l 417 1029 l 254 1029 z "},"Ỷ":{"ha":661,"x_min":-1,"x_max":663,"o":"m 219 0 l 219 324 l -1 956 l 224 956 l 329 556 l 343 556 l 443 956 l 663 956 l 442 324 l 442 0 l 219 0 m 229 1039 q 240 1090 229 1074 q 283 1118 251 1107 l 299 1124 q 347 1143 336 1136 q 358 1165 358 1150 q 347 1184 358 1181 q 300 1188 336 1188 q 158 1185 247 1188 l 158 1293 q 324 1313 253 1313 q 457 1289 411 1313 q 503 1190 503 1265 q 488 1114 503 1138 q 425 1071 472 1090 l 408 1063 q 369 1045 379 1051 q 356 1032 358 1039 q 353 1010 353 1025 l 229 1010 l 229 1039 z "},"Ȳ":{"ha":661,"x_min":-1,"x_max":663,"o":"m 219 0 l 219 324 l -1 956 l 224 956 l 329 556 l 343 556 l 443 956 l 663 956 l 442 324 l 442 0 l 219 0 m 185 1054 l 185 1233 l 475 1233 l 475 1054 l 185 1054 z "},"Ỹ":{"ha":661,"x_min":-1,"x_max":663,"o":"m 219 0 l 219 324 l -1 956 l 224 956 l 329 556 l 343 556 l 443 956 l 663 956 l 442 324 l 442 0 l 219 0 m 551 1233 q 546 1123 551 1160 q 517 1065 540 1086 q 442 1043 493 1043 q 318 1064 396 1043 q 285 1072 310 1065 q 247 1078 261 1078 q 226 1067 231 1078 q 222 1028 222 1057 l 107 1028 q 113 1138 107 1101 q 142 1195 118 1174 q 218 1217 165 1217 q 342 1196 264 1217 q 413 1183 394 1183 q 433 1193 429 1183 q 436 1233 436 1203 l 551 1233 z "},"Z":{"ha":619,"x_min":42,"x_max":578,"o":"m 42 0 l 42 179 l 326 765 l 51 765 l 51 956 l 576 956 l 576 779 l 290 189 l 578 189 l 578 0 l 42 0 z "},"Ź":{"ha":619,"x_min":42,"x_max":578,"o":"m 42 0 l 42 179 l 326 765 l 51 765 l 51 956 l 576 956 l 576 779 l 290 189 l 578 189 l 578 0 l 42 0 m 228 1029 l 228 1036 l 301 1233 l 501 1233 l 501 1226 l 390 1029 l 228 1029 z "},"Ž":{"ha":618,"x_min":42,"x_max":578,"o":"m 42 0 l 42 179 l 326 765 l 51 765 l 51 956 l 576 956 l 576 779 l 290 189 l 578 189 l 578 0 l 42 0 m 218 1043 l 115 1214 l 115 1225 l 254 1225 l 319 1135 l 385 1225 l 524 1225 l 524 1214 l 418 1043 l 218 1043 z "},"Ż":{"ha":619,"x_min":42,"x_max":578,"o":"m 42 0 l 42 179 l 326 765 l 51 765 l 51 956 l 576 956 l 576 779 l 290 189 l 578 189 l 578 0 l 42 0 m 224 1063 l 224 1215 l 396 1215 l 396 1063 l 224 1063 z "},"Ẓ":{"ha":619,"x_min":42,"x_max":578,"o":"m 42 0 l 42 179 l 326 765 l 51 765 l 51 956 l 576 956 l 576 779 l 290 189 l 578 189 l 578 0 l 42 0 m 199 -285 l 199 -86 l 419 -86 l 419 -285 l 199 -285 z "},"a":{"ha":599,"x_min":31,"x_max":544,"o":"m 189 -11 q 67 42 103 -11 q 31 206 31 94 q 47 335 31 288 q 104 403 64 382 q 217 424 144 424 q 338 418 268 424 l 338 449 q 330 520 338 500 q 299 546 322 540 q 218 551 276 551 q 64 544 161 551 l 64 700 q 283 719 188 719 q 449 691 393 719 q 524 602 504 663 q 544 431 544 542 l 544 0 l 346 0 l 340 81 l 328 81 q 273 11 310 33 q 189 -11 236 -11 m 279 161 q 310 166 299 161 q 329 185 322 171 q 338 263 338 204 l 338 299 l 278 299 q 238 285 247 299 q 228 225 228 271 q 236 174 228 186 q 279 161 244 161 z "},"á":{"ha":599,"x_min":31,"x_max":544,"o":"m 189 -11 q 67 42 103 -11 q 31 206 31 94 q 47 335 31 288 q 104 403 64 382 q 217 424 144 424 q 338 418 268 424 l 338 449 q 330 520 338 500 q 299 546 322 540 q 218 551 276 551 q 64 544 161 551 l 64 700 q 283 719 188 719 q 449 691 393 719 q 524 602 504 663 q 544 431 544 542 l 544 0 l 346 0 l 340 81 l 328 81 q 273 11 310 33 q 189 -11 236 -11 m 279 161 q 310 166 299 161 q 329 185 322 171 q 338 263 338 204 l 338 299 l 278 299 q 238 285 247 299 q 228 225 228 271 q 236 174 228 186 q 279 161 244 161 m 215 828 l 215 835 l 289 1032 l 489 1032 l 489 1025 l 378 828 l 215 828 z "},"ă":{"ha":599,"x_min":31,"x_max":544,"o":"m 189 -11 q 67 42 103 -11 q 31 206 31 94 q 47 335 31 288 q 104 403 64 382 q 217 424 144 424 q 338 418 268 424 l 338 449 q 330 520 338 500 q 299 546 322 540 q 218 551 276 551 q 64 544 161 551 l 64 700 q 283 719 188 719 q 449 691 393 719 q 524 602 504 663 q 544 431 544 542 l 544 0 l 346 0 l 340 81 l 328 81 q 273 11 310 33 q 189 -11 236 -11 m 279 161 q 310 166 299 161 q 329 185 322 171 q 338 263 338 204 l 338 299 l 278 299 q 238 285 247 299 q 228 225 228 271 q 236 174 228 186 q 279 161 244 161 m 488 1032 q 474 931 488 971 q 418 867 460 890 q 299 843 376 843 q 180 867 221 843 q 125 931 139 890 q 111 1032 111 971 l 233 1032 q 237 991 233 1006 q 254 967 240 976 q 299 958 268 958 q 354 976 343 958 q 365 1032 365 993 l 488 1032 z "},"ắ":{"ha":599,"x_min":31,"x_max":544,"o":"m 189 -11 q 67 42 103 -11 q 31 206 31 94 q 47 335 31 288 q 104 403 64 382 q 217 424 144 424 q 338 418 268 424 l 338 449 q 330 520 338 500 q 299 546 322 540 q 218 551 276 551 q 64 544 161 551 l 64 700 q 283 719 188 719 q 449 691 393 719 q 524 602 504 663 q 544 431 544 542 l 544 0 l 346 0 l 340 81 l 328 81 q 273 11 310 33 q 189 -11 236 -11 m 279 161 q 310 166 299 161 q 329 185 322 171 q 338 263 338 204 l 338 299 l 278 299 q 238 285 247 299 q 228 225 228 271 q 236 174 228 186 q 279 161 244 161 m 482 1032 q 468 931 482 971 q 413 867 454 890 q 293 843 371 843 q 174 867 215 843 q 119 931 133 890 q 106 1032 106 971 l 228 1032 q 231 991 228 1006 q 249 967 235 976 q 293 958 263 958 q 349 976 338 958 q 360 1032 360 993 l 482 1032 m 203 1068 l 203 1075 l 276 1272 l 476 1272 l 476 1265 l 365 1068 l 203 1068 z "},"ặ":{"ha":599,"x_min":31,"x_max":544,"o":"m 189 -11 q 67 42 103 -11 q 31 206 31 94 q 47 335 31 288 q 104 403 64 382 q 217 424 144 424 q 338 418 268 424 l 338 449 q 330 520 338 500 q 299 546 322 540 q 218 551 276 551 q 64 544 161 551 l 64 700 q 283 719 188 719 q 449 691 393 719 q 524 602 504 663 q 544 431 544 542 l 544 0 l 346 0 l 340 81 l 328 81 q 273 11 310 33 q 189 -11 236 -11 m 279 161 q 310 166 299 161 q 329 185 322 171 q 338 263 338 204 l 338 299 l 278 299 q 238 285 247 299 q 228 225 228 271 q 236 174 228 186 q 279 161 244 161 m 189 -285 l 189 -86 l 410 -86 l 410 -285 l 189 -285 m 488 1032 q 474 931 488 971 q 418 867 460 890 q 299 843 376 843 q 180 867 221 843 q 125 931 139 890 q 111 1032 111 971 l 233 1032 q 237 991 233 1006 q 254 967 240 976 q 299 958 268 958 q 354 976 343 958 q 365 1032 365 993 l 488 1032 z "},"ằ":{"ha":599,"x_min":31,"x_max":544,"o":"m 189 -11 q 67 42 103 -11 q 31 206 31 94 q 47 335 31 288 q 104 403 64 382 q 217 424 144 424 q 338 418 268 424 l 338 449 q 330 520 338 500 q 299 546 322 540 q 218 551 276 551 q 64 544 161 551 l 64 700 q 283 719 188 719 q 449 691 393 719 q 524 602 504 663 q 544 431 544 542 l 544 0 l 346 0 l 340 81 l 328 81 q 273 11 310 33 q 189 -11 236 -11 m 279 161 q 310 166 299 161 q 329 185 322 171 q 338 263 338 204 l 338 299 l 278 299 q 238 285 247 299 q 228 225 228 271 q 236 174 228 186 q 279 161 244 161 m 494 1032 q 481 931 494 971 q 425 867 467 890 q 306 843 383 843 q 187 867 228 843 q 132 931 146 890 q 118 1032 118 971 l 240 1032 q 244 991 240 1006 q 261 967 247 976 q 306 958 275 958 q 361 976 350 958 q 372 1032 372 993 l 494 1032 m 228 1068 l 117 1265 l 117 1272 l 317 1272 l 390 1075 l 390 1068 l 228 1068 z "},"ẳ":{"ha":599,"x_min":31,"x_max":544,"o":"m 189 -11 q 67 42 103 -11 q 31 206 31 94 q 47 335 31 288 q 104 403 64 382 q 217 424 144 424 q 338 418 268 424 l 338 449 q 330 520 338 500 q 299 546 322 540 q 218 551 276 551 q 64 544 161 551 l 64 700 q 283 719 188 719 q 449 691 393 719 q 524 602 504 663 q 544 431 544 542 l 544 0 l 346 0 l 340 81 l 328 81 q 273 11 310 33 q 189 -11 236 -11 m 279 161 q 310 166 299 161 q 329 185 322 171 q 338 263 338 204 l 338 299 l 278 299 q 238 285 247 299 q 228 225 228 271 q 236 174 228 186 q 279 161 244 161 m 476 1032 q 463 931 476 971 q 407 867 449 890 q 288 843 365 843 q 169 867 210 843 q 114 931 128 890 q 100 1032 100 971 l 222 1032 q 226 991 222 1006 q 243 967 229 976 q 288 958 257 958 q 343 976 332 958 q 354 1032 354 993 l 476 1032 m 224 1069 q 235 1122 224 1106 q 278 1147 247 1138 l 293 1153 q 342 1174 331 1167 q 353 1194 353 1181 q 342 1215 353 1211 q 294 1218 331 1218 q 153 1214 219 1218 l 153 1324 q 318 1342 240 1342 q 451 1318 406 1342 q 497 1221 497 1294 q 482 1144 497 1168 q 419 1101 467 1119 l 403 1093 q 363 1076 374 1082 q 350 1063 353 1069 q 347 1040 347 1056 l 224 1040 l 224 1069 z "},"ẵ":{"ha":599,"x_min":31,"x_max":544,"o":"m 189 -11 q 67 42 103 -11 q 31 206 31 94 q 47 335 31 288 q 104 403 64 382 q 217 424 144 424 q 338 418 268 424 l 338 449 q 330 520 338 500 q 299 546 322 540 q 218 551 276 551 q 64 544 161 551 l 64 700 q 283 719 188 719 q 449 691 393 719 q 524 602 504 663 q 544 431 544 542 l 544 0 l 346 0 l 340 81 l 328 81 q 273 11 310 33 q 189 -11 236 -11 m 279 161 q 310 166 299 161 q 329 185 322 171 q 338 263 338 204 l 338 299 l 278 299 q 238 285 247 299 q 228 225 228 271 q 236 174 228 186 q 279 161 244 161 m 485 1032 q 471 931 485 971 q 415 867 457 890 q 296 843 374 843 q 177 867 218 843 q 122 931 136 890 q 108 1032 108 971 l 231 1032 q 234 991 231 1006 q 251 967 238 976 q 296 958 265 958 q 351 976 340 958 q 363 1032 363 993 l 485 1032 m 522 1288 q 517 1177 522 1214 q 488 1119 511 1140 q 413 1097 464 1097 q 289 1118 367 1097 q 256 1126 281 1119 q 218 1132 232 1132 q 197 1122 201 1132 q 193 1082 193 1111 l 78 1082 q 83 1192 78 1156 q 113 1249 89 1228 q 189 1271 136 1271 q 313 1250 235 1271 q 383 1238 365 1238 q 403 1247 400 1238 q 407 1288 407 1257 l 522 1288 z "},"ǎ":{"ha":599,"x_min":31,"x_max":544,"o":"m 189 -11 q 67 42 103 -11 q 31 206 31 94 q 47 335 31 288 q 104 403 64 382 q 217 424 144 424 q 338 418 268 424 l 338 449 q 330 520 338 500 q 299 546 322 540 q 218 551 276 551 q 64 544 161 551 l 64 700 q 283 719 188 719 q 449 691 393 719 q 524 602 504 663 q 544 431 544 542 l 544 0 l 346 0 l 340 81 l 328 81 q 273 11 310 33 q 189 -11 236 -11 m 279 161 q 310 166 299 161 q 329 185 322 171 q 338 263 338 204 l 338 299 l 278 299 q 238 285 247 299 q 228 225 228 271 q 236 174 228 186 q 279 161 244 161 m 199 850 l 96 1021 l 96 1032 l 235 1032 l 300 942 l 365 1032 l 504 1032 l 504 1021 l 399 850 l 199 850 z "},"â":{"ha":599,"x_min":31,"x_max":544,"o":"m 189 -11 q 67 42 103 -11 q 31 206 31 94 q 47 335 31 288 q 104 403 64 382 q 217 424 144 424 q 338 418 268 424 l 338 449 q 330 520 338 500 q 299 546 322 540 q 218 551 276 551 q 64 544 161 551 l 64 700 q 283 719 188 719 q 449 691 393 719 q 524 602 504 663 q 544 431 544 542 l 544 0 l 346 0 l 340 81 l 328 81 q 273 11 310 33 q 189 -11 236 -11 m 279 161 q 310 166 299 161 q 329 185 322 171 q 338 263 338 204 l 338 299 l 278 299 q 238 285 247 299 q 228 225 228 271 q 236 174 228 186 q 279 161 244 161 m 97 850 l 97 863 l 200 1032 l 400 1032 l 506 863 l 506 850 l 367 850 l 300 940 l 236 850 l 97 850 z "},"ấ":{"ha":599,"x_min":31,"x_max":599,"o":"m 189 -11 q 67 42 103 -11 q 31 206 31 94 q 47 335 31 288 q 104 403 64 382 q 217 424 144 424 q 338 418 268 424 l 338 449 q 330 520 338 500 q 299 546 322 540 q 218 551 276 551 q 64 544 161 551 l 64 700 q 283 719 188 719 q 449 691 393 719 q 524 602 504 663 q 544 431 544 542 l 544 0 l 346 0 l 340 81 l 328 81 q 273 11 310 33 q 189 -11 236 -11 m 279 161 q 310 166 299 161 q 329 185 322 171 q 338 263 338 204 l 338 299 l 278 299 q 238 285 247 299 q 228 225 228 271 q 236 174 228 186 q 279 161 244 161 m 96 850 l 96 863 l 199 1032 l 399 1032 l 504 863 l 504 850 l 365 850 l 299 940 l 235 850 l 96 850 m 325 1068 l 325 1075 l 399 1272 l 599 1272 l 599 1265 l 488 1068 l 325 1068 z "},"ậ":{"ha":599,"x_min":31,"x_max":544,"o":"m 189 -11 q 67 42 103 -11 q 31 206 31 94 q 47 335 31 288 q 104 403 64 382 q 217 424 144 424 q 338 418 268 424 l 338 449 q 330 520 338 500 q 299 546 322 540 q 218 551 276 551 q 64 544 161 551 l 64 700 q 283 719 188 719 q 449 691 393 719 q 524 602 504 663 q 544 431 544 542 l 544 0 l 346 0 l 340 81 l 328 81 q 273 11 310 33 q 189 -11 236 -11 m 279 161 q 310 166 299 161 q 329 185 322 171 q 338 263 338 204 l 338 299 l 278 299 q 238 285 247 299 q 228 225 228 271 q 236 174 228 186 q 279 161 244 161 m 189 -285 l 189 -86 l 410 -86 l 410 -285 l 189 -285 m 96 850 l 96 863 l 199 1032 l 399 1032 l 504 863 l 504 850 l 365 850 l 299 940 l 235 850 l 96 850 z "},"ầ":{"ha":599,"x_min":31,"x_max":544,"o":"m 189 -11 q 67 42 103 -11 q 31 206 31 94 q 47 335 31 288 q 104 403 64 382 q 217 424 144 424 q 338 418 268 424 l 338 449 q 330 520 338 500 q 299 546 322 540 q 218 551 276 551 q 64 544 161 551 l 64 700 q 283 719 188 719 q 449 691 393 719 q 524 602 504 663 q 544 431 544 542 l 544 0 l 346 0 l 340 81 l 328 81 q 273 11 310 33 q 189 -11 236 -11 m 279 161 q 310 166 299 161 q 329 185 322 171 q 338 263 338 204 l 338 299 l 278 299 q 238 285 247 299 q 228 225 228 271 q 236 174 228 186 q 279 161 244 161 m 82 850 l 82 863 l 185 1032 l 385 1032 l 490 863 l 490 850 l 351 850 l 285 940 l 221 850 l 82 850 m 354 1068 l 243 1265 l 243 1272 l 443 1272 l 517 1075 l 517 1068 l 354 1068 z "},"ẩ":{"ha":599,"x_min":31,"x_max":643,"o":"m 189 -11 q 67 42 103 -11 q 31 206 31 94 q 47 335 31 288 q 104 403 64 382 q 217 424 144 424 q 338 418 268 424 l 338 449 q 330 520 338 500 q 299 546 322 540 q 218 551 276 551 q 64 544 161 551 l 64 700 q 283 719 188 719 q 449 691 393 719 q 524 602 504 663 q 544 431 544 542 l 544 0 l 346 0 l 340 81 l 328 81 q 273 11 310 33 q 189 -11 236 -11 m 279 161 q 310 166 299 161 q 329 185 322 171 q 338 263 338 204 l 338 299 l 278 299 q 238 285 247 299 q 228 225 228 271 q 236 174 228 186 q 279 161 244 161 m 96 850 l 96 863 l 199 1032 l 399 1032 l 504 863 l 504 850 l 365 850 l 299 940 l 235 850 l 96 850 m 369 1090 q 381 1142 369 1126 q 424 1168 393 1158 l 439 1174 q 488 1194 476 1188 q 499 1215 499 1201 q 488 1235 499 1232 q 440 1239 476 1239 q 299 1235 365 1239 l 299 1344 q 464 1363 386 1363 q 597 1339 551 1363 q 643 1242 643 1315 q 628 1165 643 1189 q 565 1122 613 1140 l 549 1114 q 509 1097 519 1103 q 496 1083 499 1090 q 493 1061 493 1076 l 369 1061 l 369 1090 z "},"ẫ":{"ha":599,"x_min":31,"x_max":544,"o":"m 189 -11 q 67 42 103 -11 q 31 206 31 94 q 47 335 31 288 q 104 403 64 382 q 217 424 144 424 q 338 418 268 424 l 338 449 q 330 520 338 500 q 299 546 322 540 q 218 551 276 551 q 64 544 161 551 l 64 700 q 283 719 188 719 q 449 691 393 719 q 524 602 504 663 q 544 431 544 542 l 544 0 l 346 0 l 340 81 l 328 81 q 273 11 310 33 q 189 -11 236 -11 m 279 161 q 310 166 299 161 q 329 185 322 171 q 338 263 338 204 l 338 299 l 278 299 q 238 285 247 299 q 228 225 228 271 q 236 174 228 186 q 279 161 244 161 m 93 850 l 93 863 l 196 1032 l 396 1032 l 501 863 l 501 850 l 363 850 l 296 940 l 232 850 l 93 850 m 521 1272 q 515 1162 521 1199 q 486 1103 510 1125 q 411 1082 463 1082 q 288 1103 365 1082 q 255 1110 279 1104 q 217 1117 231 1117 q 196 1106 200 1117 q 192 1067 192 1096 l 76 1067 q 82 1176 76 1140 q 111 1234 88 1213 q 188 1256 135 1256 q 311 1235 233 1256 q 382 1222 364 1222 q 402 1232 399 1222 q 406 1272 406 1242 l 521 1272 z "},"ȁ":{"ha":599,"x_min":31,"x_max":544,"o":"m 189 -11 q 67 42 103 -11 q 31 206 31 94 q 47 335 31 288 q 104 403 64 382 q 217 424 144 424 q 338 418 268 424 l 338 449 q 330 520 338 500 q 299 546 322 540 q 218 551 276 551 q 64 544 161 551 l 64 700 q 283 719 188 719 q 449 691 393 719 q 524 602 504 663 q 544 431 544 542 l 544 0 l 346 0 l 340 81 l 328 81 q 273 11 310 33 q 189 -11 236 -11 m 279 161 q 310 166 299 161 q 329 185 322 171 q 338 263 338 204 l 338 299 l 278 299 q 238 285 247 299 q 228 225 228 271 q 236 174 228 186 q 279 161 244 161 m 267 849 l 133 849 l 44 1008 l 44 1014 l 207 1014 l 267 854 l 267 849 m 474 849 l 340 849 l 251 1008 l 251 1014 l 415 1014 l 474 854 l 474 849 z "},"ä":{"ha":599,"x_min":31,"x_max":544,"o":"m 189 -11 q 67 42 103 -11 q 31 206 31 94 q 47 335 31 288 q 104 403 64 382 q 217 424 144 424 q 338 418 268 424 l 338 449 q 330 520 338 500 q 299 546 322 540 q 218 551 276 551 q 64 544 161 551 l 64 700 q 283 719 188 719 q 449 691 393 719 q 524 602 504 663 q 544 431 544 542 l 544 0 l 346 0 l 340 81 l 328 81 q 273 11 310 33 q 189 -11 236 -11 m 279 161 q 310 166 299 161 q 329 185 322 171 q 338 263 338 204 l 338 299 l 278 299 q 238 285 247 299 q 228 225 228 271 q 236 174 228 186 q 279 161 244 161 m 93 860 l 93 1013 l 267 1013 l 267 860 l 93 860 m 339 860 l 339 1013 l 513 1013 l 513 860 l 339 860 z "},"ạ":{"ha":599,"x_min":31,"x_max":544,"o":"m 189 -11 q 67 42 103 -11 q 31 206 31 94 q 47 335 31 288 q 104 403 64 382 q 217 424 144 424 q 338 418 268 424 l 338 449 q 330 520 338 500 q 299 546 322 540 q 218 551 276 551 q 64 544 161 551 l 64 700 q 283 719 188 719 q 449 691 393 719 q 524 602 504 663 q 544 431 544 542 l 544 0 l 346 0 l 340 81 l 328 81 q 273 11 310 33 q 189 -11 236 -11 m 279 161 q 310 166 299 161 q 329 185 322 171 q 338 263 338 204 l 338 299 l 278 299 q 238 285 247 299 q 228 225 228 271 q 236 174 228 186 q 279 161 244 161 m 189 -285 l 189 -86 l 410 -86 l 410 -285 l 189 -285 z "},"à":{"ha":599,"x_min":31,"x_max":544,"o":"m 189 -11 q 67 42 103 -11 q 31 206 31 94 q 47 335 31 288 q 104 403 64 382 q 217 424 144 424 q 338 418 268 424 l 338 449 q 330 520 338 500 q 299 546 322 540 q 218 551 276 551 q 64 544 161 551 l 64 700 q 283 719 188 719 q 449 691 393 719 q 524 602 504 663 q 544 431 544 542 l 544 0 l 346 0 l 340 81 l 328 81 q 273 11 310 33 q 189 -11 236 -11 m 279 161 q 310 166 299 161 q 329 185 322 171 q 338 263 338 204 l 338 299 l 278 299 q 238 285 247 299 q 228 225 228 271 q 236 174 228 186 q 279 161 244 161 m 231 828 l 119 1025 l 119 1032 l 319 1032 l 393 835 l 393 828 l 231 828 z "},"ả":{"ha":599,"x_min":31,"x_max":544,"o":"m 189 -11 q 67 42 103 -11 q 31 206 31 94 q 47 335 31 288 q 104 403 64 382 q 217 424 144 424 q 338 418 268 424 l 338 449 q 330 520 338 500 q 299 546 322 540 q 218 551 276 551 q 64 544 161 551 l 64 700 q 283 719 188 719 q 449 691 393 719 q 524 602 504 663 q 544 431 544 542 l 544 0 l 346 0 l 340 81 l 328 81 q 273 11 310 33 q 189 -11 236 -11 m 279 161 q 310 166 299 161 q 329 185 322 171 q 338 263 338 204 l 338 299 l 278 299 q 238 285 247 299 q 228 225 228 271 q 236 174 228 186 q 279 161 244 161 m 199 881 q 210 933 199 917 q 253 958 222 949 l 268 964 q 317 985 306 978 q 328 1006 328 992 q 317 1026 328 1022 q 269 1029 306 1029 q 128 1025 194 1029 l 128 1135 q 293 1153 215 1153 q 426 1129 381 1153 q 472 1032 472 1106 q 457 955 472 979 q 394 913 442 931 l 378 904 q 338 887 349 893 q 325 874 328 881 q 322 851 322 867 l 199 851 l 199 881 z "},"ȃ":{"ha":599,"x_min":31,"x_max":544,"o":"m 189 -11 q 67 42 103 -11 q 31 206 31 94 q 47 335 31 288 q 104 403 64 382 q 217 424 144 424 q 338 418 268 424 l 338 449 q 330 520 338 500 q 299 546 322 540 q 218 551 276 551 q 64 544 161 551 l 64 700 q 283 719 188 719 q 449 691 393 719 q 524 602 504 663 q 544 431 544 542 l 544 0 l 346 0 l 340 81 l 328 81 q 273 11 310 33 q 189 -11 236 -11 m 279 161 q 310 166 299 161 q 329 185 322 171 q 338 263 338 204 l 338 299 l 278 299 q 238 285 247 299 q 228 225 228 271 q 236 174 228 186 q 279 161 244 161 m 111 851 q 125 953 111 913 q 181 1017 139 993 q 300 1040 222 1040 q 419 1017 378 1040 q 474 953 460 993 q 488 851 488 913 l 365 851 q 362 892 365 878 q 344 916 358 907 q 300 925 331 925 q 244 908 256 925 q 233 851 233 890 l 111 851 z "},"ā":{"ha":599,"x_min":31,"x_max":544,"o":"m 189 -11 q 67 42 103 -11 q 31 206 31 94 q 47 335 31 288 q 104 403 64 382 q 217 424 144 424 q 338 418 268 424 l 338 449 q 330 520 338 500 q 299 546 322 540 q 218 551 276 551 q 64 544 161 551 l 64 700 q 283 719 188 719 q 449 691 393 719 q 524 602 504 663 q 544 431 544 542 l 544 0 l 346 0 l 340 81 l 328 81 q 273 11 310 33 q 189 -11 236 -11 m 279 161 q 310 166 299 161 q 329 185 322 171 q 338 263 338 204 l 338 299 l 278 299 q 238 285 247 299 q 228 225 228 271 q 236 174 228 186 q 279 161 244 161 m 154 853 l 154 1032 l 444 1032 l 444 853 l 154 853 z "},"ą":{"ha":599,"x_min":31,"x_max":544,"o":"m 544 0 q 497 -51 518 -18 q 475 -115 475 -83 q 528 -162 475 -162 l 544 -161 l 544 -267 q 465 -272 500 -272 q 350 -239 385 -272 q 315 -154 315 -206 q 393 0 315 -74 l 346 0 l 340 81 l 328 81 q 273 11 310 33 q 189 -11 236 -11 q 67 42 103 -11 q 31 206 31 94 q 47 335 31 288 q 104 403 64 382 q 217 424 144 424 q 338 418 268 424 l 338 449 q 330 520 338 500 q 299 546 322 540 q 218 551 276 551 q 133 549 181 551 q 64 544 86 546 l 64 700 q 283 719 188 719 q 449 691 393 719 q 524 602 504 663 q 544 431 544 542 l 544 0 m 338 299 l 278 299 q 238 285 247 299 q 228 225 228 271 q 236 174 228 186 q 279 161 244 161 q 310 166 299 161 q 329 185 322 171 q 338 263 338 204 l 338 299 z "},"å":{"ha":599,"x_min":31,"x_max":544,"o":"m 189 -11 q 67 42 103 -11 q 31 206 31 94 q 47 335 31 288 q 104 403 64 382 q 217 424 144 424 q 338 418 268 424 l 338 449 q 330 520 338 500 q 299 546 322 540 q 218 551 276 551 q 64 544 161 551 l 64 700 q 283 719 188 719 q 449 691 393 719 q 524 602 504 663 q 544 431 544 542 l 544 0 l 346 0 l 340 81 l 328 81 q 273 11 310 33 q 189 -11 236 -11 m 279 161 q 310 166 299 161 q 329 185 322 171 q 338 263 338 204 l 338 299 l 278 299 q 238 285 247 299 q 228 225 228 271 q 236 174 228 186 q 279 161 244 161 m 301 810 q 176 826 215 810 q 127 872 138 842 q 117 965 117 903 q 127 1059 117 1028 q 176 1106 138 1090 q 301 1122 215 1122 q 425 1106 386 1122 q 474 1059 464 1090 q 485 965 485 1028 q 474 872 485 903 q 425 826 464 842 q 301 810 386 810 m 301 906 q 343 910 331 906 q 358 926 356 915 q 361 965 361 938 q 358 1004 361 993 q 343 1020 356 1015 q 301 1025 331 1025 q 260 1020 272 1025 q 244 1004 247 1015 q 242 965 242 993 q 244 926 242 938 q 260 910 247 915 q 301 906 272 906 z "},"ǻ":{"ha":599,"x_min":31,"x_max":544,"o":"m 189 -11 q 67 42 103 -11 q 31 206 31 94 q 47 335 31 288 q 104 403 64 382 q 217 424 144 424 q 338 418 268 424 l 338 449 q 330 520 338 500 q 299 546 322 540 q 218 551 276 551 q 64 544 161 551 l 64 700 q 283 719 188 719 q 449 691 393 719 q 524 602 504 663 q 544 431 544 542 l 544 0 l 346 0 l 340 81 l 328 81 q 273 11 310 33 q 189 -11 236 -11 m 279 161 q 310 166 299 161 q 329 185 322 171 q 338 263 338 204 l 338 299 l 278 299 q 238 285 247 299 q 228 225 228 271 q 236 174 228 186 q 279 161 244 161 m 300 842 q 175 858 214 842 q 126 904 136 874 q 115 997 115 935 q 126 1091 115 1060 q 175 1138 136 1122 q 300 1154 214 1154 q 424 1138 385 1154 q 473 1091 463 1122 q 483 997 483 1060 q 473 904 483 935 q 424 858 463 874 q 300 842 385 842 m 300 938 q 342 942 329 938 q 357 958 354 947 q 360 997 360 969 q 357 1036 360 1025 q 342 1052 354 1047 q 300 1057 329 1057 q 258 1052 271 1057 q 243 1036 246 1047 q 240 997 240 1025 q 243 958 240 969 q 258 942 246 947 q 300 938 271 938 m 217 1190 l 217 1197 l 290 1394 l 490 1394 l 490 1388 l 379 1190 l 217 1190 z "},"ã":{"ha":599,"x_min":31,"x_max":544,"o":"m 189 -11 q 67 42 103 -11 q 31 206 31 94 q 47 335 31 288 q 104 403 64 382 q 217 424 144 424 q 338 418 268 424 l 338 449 q 330 520 338 500 q 299 546 322 540 q 218 551 276 551 q 64 544 161 551 l 64 700 q 283 719 188 719 q 449 691 393 719 q 524 602 504 663 q 544 431 544 542 l 544 0 l 346 0 l 340 81 l 328 81 q 273 11 310 33 q 189 -11 236 -11 m 279 161 q 310 166 299 161 q 329 185 322 171 q 338 263 338 204 l 338 299 l 278 299 q 238 285 247 299 q 228 225 228 271 q 236 174 228 186 q 279 161 244 161 m 522 1032 q 517 922 522 958 q 488 863 511 885 q 413 842 464 842 q 289 863 367 842 q 256 870 281 864 q 218 876 232 876 q 197 866 201 876 q 193 826 193 856 l 78 826 q 83 936 78 900 q 113 994 89 972 q 189 1015 136 1015 q 313 994 235 1015 q 383 982 365 982 q 403 992 400 982 q 407 1032 407 1001 l 522 1032 z "},"æ":{"ha":892,"x_min":31,"x_max":850,"o":"m 850 297 l 544 297 q 551 200 544 226 q 580 165 557 174 q 664 157 603 157 q 833 164 747 157 l 833 10 q 735 -6 796 0 q 615 -11 674 -11 q 501 1 547 -11 q 426 40 456 14 q 233 -11 357 -11 q 74 40 118 -11 q 31 206 31 92 q 47 335 31 288 q 104 403 64 382 q 217 424 144 424 q 338 419 254 424 l 338 449 q 330 520 338 500 q 299 546 322 540 q 218 551 276 551 q 64 544 151 551 l 64 700 q 278 719 188 719 q 444 674 386 719 q 607 719 501 719 q 776 684 725 719 q 838 579 826 649 q 850 353 850 510 l 850 297 m 601 556 q 564 548 575 556 q 549 513 553 540 q 544 422 546 486 l 658 422 q 654 514 658 488 q 640 548 650 540 q 601 556 629 556 m 338 297 l 278 297 q 236 283 246 297 q 226 225 226 269 q 235 168 226 183 q 279 153 244 153 q 315 160 303 153 q 332 189 326 168 q 338 258 338 211 l 338 297 z "},"ǽ":{"ha":892,"x_min":31,"x_max":850,"o":"m 850 297 l 544 297 q 551 200 544 226 q 580 165 557 174 q 664 157 603 157 q 833 164 747 157 l 833 10 q 735 -6 796 0 q 615 -11 674 -11 q 501 1 547 -11 q 426 40 456 14 q 233 -11 357 -11 q 74 40 118 -11 q 31 206 31 92 q 47 335 31 288 q 104 403 64 382 q 217 424 144 424 q 338 419 254 424 l 338 449 q 330 520 338 500 q 299 546 322 540 q 218 551 276 551 q 64 544 151 551 l 64 700 q 278 719 188 719 q 444 674 386 719 q 607 719 501 719 q 776 684 725 719 q 838 579 826 649 q 850 353 850 510 l 850 297 m 601 556 q 564 548 575 556 q 549 513 553 540 q 544 422 546 486 l 658 422 q 654 514 658 488 q 640 548 650 540 q 601 556 629 556 m 338 297 l 278 297 q 236 283 246 297 q 226 225 226 269 q 235 168 226 183 q 279 153 244 153 q 315 160 303 153 q 332 189 326 168 q 338 258 338 211 l 338 297 m 361 828 l 361 835 l 435 1032 l 635 1032 l 635 1025 l 524 828 l 361 828 z "},"b":{"ha":625,"x_min":56,"x_max":583,"o":"m 411 -11 q 325 10 363 -11 q 272 81 288 31 l 260 81 l 254 0 l 56 0 l 56 1032 l 263 1032 l 263 635 l 274 635 q 326 699 292 679 q 413 719 361 719 q 516 685 479 719 q 568 574 553 651 q 583 354 583 496 q 567 130 583 208 q 513 20 550 51 q 411 -11 476 -11 m 319 169 q 360 178 350 169 q 374 223 371 188 q 378 354 378 258 q 374 485 378 450 q 360 530 371 521 q 319 539 350 539 q 287 533 297 539 q 271 507 276 526 q 263 354 263 479 q 264 263 263 303 q 269 206 265 224 q 285 176 275 183 q 319 169 296 169 z "},"c":{"ha":476,"x_min":40,"x_max":443,"o":"m 443 10 q 282 -11 364 -11 q 124 28 176 -11 q 56 143 72 68 q 40 354 40 218 q 58 567 40 492 q 127 681 75 643 q 282 719 179 719 q 440 700 371 719 l 440 544 q 343 551 392 551 q 279 540 297 551 q 255 489 261 528 q 249 354 249 450 q 255 218 249 257 q 279 168 261 179 q 343 157 297 157 q 443 164 390 157 l 443 10 z "},"ć":{"ha":476,"x_min":40,"x_max":443,"o":"m 443 10 q 282 -11 364 -11 q 124 28 176 -11 q 56 143 72 68 q 40 354 40 218 q 58 567 40 492 q 127 681 75 643 q 282 719 179 719 q 440 700 371 719 l 440 544 q 343 551 392 551 q 279 540 297 551 q 255 489 261 528 q 249 354 249 450 q 255 218 249 257 q 279 168 261 179 q 343 157 297 157 q 443 164 390 157 l 443 10 m 153 828 l 153 835 l 226 1032 l 426 1032 l 426 1025 l 315 828 l 153 828 z "},"č":{"ha":476,"x_min":35,"x_max":443,"o":"m 443 10 q 282 -11 364 -11 q 124 28 176 -11 q 56 143 72 68 q 40 354 40 218 q 58 567 40 492 q 127 681 75 643 q 282 719 179 719 q 440 700 371 719 l 440 544 q 343 551 392 551 q 279 540 297 551 q 255 489 261 528 q 249 354 249 450 q 255 218 249 257 q 279 168 261 179 q 343 157 297 157 q 443 164 390 157 l 443 10 m 138 850 l 35 1021 l 35 1032 l 174 1032 l 239 942 l 304 1032 l 443 1032 l 443 1021 l 338 850 l 138 850 z "},"ç":{"ha":476,"x_min":40,"x_max":443,"o":"m 443 10 q 306 -11 386 -6 l 261 -262 l 83 -262 l 83 -256 l 174 3 q 88 67 117 22 q 49 178 58 111 q 40 354 40 246 q 58 567 40 492 q 127 681 75 643 q 282 719 179 719 q 440 700 371 719 l 440 544 q 343 551 392 551 q 279 540 297 551 q 255 489 261 528 q 249 354 249 450 q 255 218 249 257 q 279 168 261 179 q 343 157 297 157 q 443 164 390 157 l 443 10 z "},"ĉ":{"ha":476,"x_min":35,"x_max":443,"o":"m 443 10 q 282 -11 364 -11 q 124 28 176 -11 q 56 143 72 68 q 40 354 40 218 q 58 567 40 492 q 127 681 75 643 q 282 719 179 719 q 440 700 371 719 l 440 544 q 343 551 392 551 q 279 540 297 551 q 255 489 261 528 q 249 354 249 450 q 255 218 249 257 q 279 168 261 179 q 343 157 297 157 q 443 164 390 157 l 443 10 m 35 850 l 35 863 l 138 1032 l 338 1032 l 443 863 l 443 850 l 304 850 l 238 940 l 174 850 l 35 850 z "},"ċ":{"ha":476,"x_min":40,"x_max":443,"o":"m 443 10 q 282 -11 364 -11 q 124 28 176 -11 q 56 143 72 68 q 40 354 40 218 q 58 567 40 492 q 127 681 75 643 q 282 719 179 719 q 440 700 371 719 l 440 544 q 343 551 392 551 q 279 540 297 551 q 255 489 261 528 q 249 354 249 450 q 255 218 249 257 q 279 168 261 179 q 343 157 297 157 q 443 164 390 157 l 443 10 m 153 861 l 153 1014 l 325 1014 l 325 861 l 153 861 z "},"d":{"ha":625,"x_min":40,"x_max":569,"o":"m 214 -11 q 110 20 147 -11 q 57 129 74 51 q 40 353 40 207 q 56 573 40 494 q 109 685 72 651 q 213 719 146 719 q 350 635 317 719 l 363 635 l 363 1032 l 569 1032 l 569 0 l 371 0 l 365 81 l 353 81 q 299 10 336 31 q 214 -11 261 -11 m 304 169 q 340 177 329 169 q 356 211 350 185 q 363 354 363 253 q 357 488 363 453 q 342 529 353 519 q 304 539 331 539 q 265 530 275 539 q 251 485 254 521 q 247 354 247 450 q 251 223 247 258 q 265 178 254 188 q 304 169 275 169 z "},"ð":{"ha":611,"x_min":40,"x_max":569,"o":"m 306 -11 q 126 21 182 -11 q 56 124 71 53 q 40 353 40 196 q 53 565 40 489 q 108 680 67 640 q 235 719 150 719 q 322 707 285 719 l 328 713 q 292 824 315 765 l 164 806 l 164 922 l 235 932 q 165 1026 201 983 l 165 1032 l 378 1032 q 429 961 401 1003 l 558 981 l 558 863 l 489 851 q 551 631 526 768 q 569 354 569 529 q 554 124 569 196 q 484 21 539 53 q 306 -11 429 -11 m 306 157 q 347 167 336 157 q 361 215 358 178 q 364 354 364 251 q 361 492 364 456 q 347 540 358 529 q 306 551 336 551 q 264 541 275 551 q 250 494 253 531 q 247 354 247 457 q 250 215 247 251 q 264 167 253 178 q 306 157 275 157 z "},"ď":{"ha":751,"x_min":40,"x_max":822,"o":"m 214 -11 q 110 20 147 -11 q 57 129 74 51 q 40 353 40 207 q 56 573 40 494 q 109 685 72 651 q 213 719 146 719 q 350 635 317 719 l 363 635 l 363 1032 l 569 1032 l 569 0 l 371 0 l 365 81 l 353 81 q 299 10 336 31 q 214 -11 261 -11 m 304 169 q 340 177 329 169 q 356 211 350 185 q 363 354 363 253 q 357 488 363 453 q 342 529 353 519 q 304 539 331 539 q 265 530 275 539 q 251 485 254 521 q 247 354 247 450 q 251 223 247 258 q 265 178 254 188 q 304 169 275 169 m 611 588 l 632 889 l 632 956 l 822 956 l 822 889 l 760 588 l 611 588 z "},"đ":{"ha":625,"x_min":40,"x_max":625,"o":"m 625 792 l 569 792 l 569 0 l 371 0 l 365 81 l 353 81 q 299 10 336 31 q 214 -11 261 -11 q 110 20 147 -11 q 57 129 74 51 q 40 353 40 207 q 56 573 40 494 q 109 685 72 651 q 213 719 146 719 q 350 635 317 719 l 363 635 l 363 792 l 236 792 l 236 956 l 363 956 l 363 1032 l 569 1032 l 569 956 l 625 956 l 625 792 m 356 211 q 363 354 363 253 q 357 488 363 453 q 342 529 353 519 q 304 539 331 539 q 265 530 275 539 q 251 485 254 521 q 247 354 247 450 q 251 223 247 258 q 265 178 254 188 q 304 169 275 169 q 340 177 329 169 q 356 211 350 185 z "},"ḍ":{"ha":625,"x_min":40,"x_max":569,"o":"m 214 -11 q 110 20 147 -11 q 57 129 74 51 q 40 353 40 207 q 56 573 40 494 q 109 685 72 651 q 213 719 146 719 q 350 635 317 719 l 363 635 l 363 1032 l 569 1032 l 569 0 l 371 0 l 365 81 l 353 81 q 299 10 336 31 q 214 -11 261 -11 m 304 169 q 340 177 329 169 q 356 211 350 185 q 363 354 363 253 q 357 488 363 453 q 342 529 353 519 q 304 539 331 539 q 265 530 275 539 q 251 485 254 521 q 247 354 247 450 q 251 223 247 258 q 265 178 254 188 q 304 169 275 169 m 201 -285 l 201 -86 l 422 -86 l 422 -285 l 201 -285 z "},"ǳ":{"ha":1183,"x_min":40,"x_max":1142,"o":"m 214 -11 q 110 20 147 -11 q 57 129 74 51 q 40 353 40 207 q 56 573 40 494 q 109 685 72 651 q 213 719 146 719 q 350 635 317 719 l 363 635 l 363 1032 l 569 1032 l 569 0 l 371 0 l 365 81 l 353 81 q 299 10 336 31 q 214 -11 261 -11 m 304 169 q 340 177 329 169 q 356 211 350 185 q 363 354 363 253 q 357 488 363 453 q 342 529 353 519 q 304 539 331 539 q 265 530 275 539 q 251 485 254 521 q 247 354 247 450 q 251 223 247 258 q 265 178 254 188 q 304 169 275 169 m 667 0 l 667 157 l 897 540 l 676 540 l 676 708 l 1139 708 l 1139 553 l 910 168 l 1142 168 l 1142 0 l 667 0 z "},"ǆ":{"ha":1183,"x_min":40,"x_max":1142,"o":"m 214 -11 q 110 20 147 -11 q 57 129 74 51 q 40 353 40 207 q 56 573 40 494 q 109 685 72 651 q 213 719 146 719 q 350 635 317 719 l 363 635 l 363 1032 l 569 1032 l 569 0 l 371 0 l 365 81 l 353 81 q 299 10 336 31 q 214 -11 261 -11 m 304 169 q 340 177 329 169 q 356 211 350 185 q 363 354 363 253 q 357 488 363 453 q 342 529 353 519 q 304 539 331 539 q 265 530 275 539 q 251 485 254 521 q 247 354 247 450 q 251 223 247 258 q 265 178 254 188 q 304 169 275 169 m 667 0 l 667 157 l 897 540 l 676 540 l 676 708 l 1139 708 l 1139 553 l 910 168 l 1142 168 l 1142 0 l 667 0 m 794 850 l 692 1021 l 692 1032 l 831 1032 l 896 942 l 961 1032 l 1100 1032 l 1100 1021 l 994 850 l 794 850 z "},"e":{"ha":593,"x_min":40,"x_max":551,"o":"m 551 297 l 246 297 q 252 199 246 225 q 281 165 258 172 q 365 157 304 157 q 535 164 442 157 l 535 10 q 438 -6 499 0 q 317 -11 376 -11 q 129 26 188 -11 q 56 136 71 64 q 40 353 40 208 q 56 569 40 496 q 128 681 72 643 q 303 719 183 719 q 476 684 424 719 q 540 579 528 649 q 551 353 551 510 l 551 297 m 303 556 q 265 548 276 556 q 250 513 254 540 q 246 422 246 486 l 358 422 q 355 514 358 488 q 341 548 351 540 q 303 556 331 556 z "},"é":{"ha":593,"x_min":40,"x_max":551,"o":"m 551 297 l 246 297 q 252 199 246 225 q 281 165 258 172 q 365 157 304 157 q 535 164 442 157 l 535 10 q 438 -6 499 0 q 317 -11 376 -11 q 129 26 188 -11 q 56 136 71 64 q 40 353 40 208 q 56 569 40 496 q 128 681 72 643 q 303 719 183 719 q 476 684 424 719 q 540 579 528 649 q 551 353 551 510 l 551 297 m 303 556 q 265 548 276 556 q 250 513 254 540 q 246 422 246 486 l 358 422 q 355 514 358 488 q 341 548 351 540 q 303 556 331 556 m 222 828 l 222 835 l 296 1032 l 496 1032 l 496 1025 l 385 828 l 222 828 z "},"ĕ":{"ha":593,"x_min":40,"x_max":551,"o":"m 551 297 l 246 297 q 252 199 246 225 q 281 165 258 172 q 365 157 304 157 q 535 164 442 157 l 535 10 q 438 -6 499 0 q 317 -11 376 -11 q 129 26 188 -11 q 56 136 71 64 q 40 353 40 208 q 56 569 40 496 q 128 681 72 643 q 303 719 183 719 q 476 684 424 719 q 540 579 528 649 q 551 353 551 510 l 551 297 m 303 556 q 265 548 276 556 q 250 513 254 540 q 246 422 246 486 l 358 422 q 355 514 358 488 q 341 548 351 540 q 303 556 331 556 m 485 1032 q 471 931 485 971 q 415 867 457 890 q 296 843 374 843 q 177 867 218 843 q 122 931 136 890 q 108 1032 108 971 l 231 1032 q 234 991 231 1006 q 251 967 238 976 q 296 958 265 958 q 351 976 340 958 q 363 1032 363 993 l 485 1032 z "},"ě":{"ha":593,"x_min":40,"x_max":551,"o":"m 551 297 l 246 297 q 252 199 246 225 q 281 165 258 172 q 365 157 304 157 q 535 164 442 157 l 535 10 q 438 -6 499 0 q 317 -11 376 -11 q 129 26 188 -11 q 56 136 71 64 q 40 353 40 208 q 56 569 40 496 q 128 681 72 643 q 303 719 183 719 q 476 684 424 719 q 540 579 528 649 q 551 353 551 510 l 551 297 m 303 556 q 265 548 276 556 q 250 513 254 540 q 246 422 246 486 l 358 422 q 355 514 358 488 q 341 548 351 540 q 303 556 331 556 m 196 850 l 93 1021 l 93 1032 l 232 1032 l 297 942 l 363 1032 l 501 1032 l 501 1021 l 396 850 l 196 850 z "},"ê":{"ha":593,"x_min":40,"x_max":551,"o":"m 551 297 l 246 297 q 252 199 246 225 q 281 165 258 172 q 365 157 304 157 q 535 164 442 157 l 535 10 q 438 -6 499 0 q 317 -11 376 -11 q 129 26 188 -11 q 56 136 71 64 q 40 353 40 208 q 56 569 40 496 q 128 681 72 643 q 303 719 183 719 q 476 684 424 719 q 540 579 528 649 q 551 353 551 510 l 551 297 m 303 556 q 265 548 276 556 q 250 513 254 540 q 246 422 246 486 l 358 422 q 355 514 358 488 q 341 548 351 540 q 303 556 331 556 m 104 850 l 104 863 l 207 1032 l 407 1032 l 513 863 l 513 850 l 374 850 l 307 940 l 243 850 l 104 850 z "},"ế":{"ha":593,"x_min":40,"x_max":596,"o":"m 551 297 l 246 297 q 252 199 246 225 q 281 165 258 172 q 365 157 304 157 q 535 164 442 157 l 535 10 q 438 -6 499 0 q 317 -11 376 -11 q 129 26 188 -11 q 56 136 71 64 q 40 353 40 208 q 56 569 40 496 q 128 681 72 643 q 303 719 183 719 q 476 684 424 719 q 540 579 528 649 q 551 353 551 510 l 551 297 m 303 556 q 265 548 276 556 q 250 513 254 540 q 246 422 246 486 l 358 422 q 355 514 358 488 q 341 548 351 540 q 303 556 331 556 m 93 850 l 93 863 l 196 1032 l 396 1032 l 501 863 l 501 850 l 363 850 l 296 940 l 232 850 l 93 850 m 322 1068 l 322 1075 l 396 1272 l 596 1272 l 596 1265 l 485 1068 l 322 1068 z "},"ệ":{"ha":593,"x_min":40,"x_max":551,"o":"m 551 297 l 246 297 q 252 199 246 225 q 281 165 258 172 q 365 157 304 157 q 535 164 442 157 l 535 10 q 438 -6 499 0 q 317 -11 376 -11 q 129 26 188 -11 q 56 136 71 64 q 40 353 40 208 q 56 569 40 496 q 128 681 72 643 q 303 719 183 719 q 476 684 424 719 q 540 579 528 649 q 551 353 551 510 l 551 297 m 303 556 q 265 548 276 556 q 250 513 254 540 q 246 422 246 486 l 358 422 q 355 514 358 488 q 341 548 351 540 q 303 556 331 556 m 186 -285 l 186 -86 l 407 -86 l 407 -285 l 186 -285 m 93 850 l 93 863 l 196 1032 l 396 1032 l 501 863 l 501 850 l 363 850 l 296 940 l 232 850 l 93 850 z "},"ề":{"ha":593,"x_min":40,"x_max":551,"o":"m 551 297 l 246 297 q 252 199 246 225 q 281 165 258 172 q 365 157 304 157 q 535 164 442 157 l 535 10 q 438 -6 499 0 q 317 -11 376 -11 q 129 26 188 -11 q 56 136 71 64 q 40 353 40 208 q 56 569 40 496 q 128 681 72 643 q 303 719 183 719 q 476 684 424 719 q 540 579 528 649 q 551 353 551 510 l 551 297 m 303 556 q 265 548 276 556 q 250 513 254 540 q 246 422 246 486 l 358 422 q 355 514 358 488 q 341 548 351 540 q 303 556 331 556 m 79 850 l 79 863 l 182 1032 l 382 1032 l 488 863 l 488 850 l 349 850 l 282 940 l 218 850 l 79 850 m 351 1068 l 240 1265 l 240 1272 l 440 1272 l 514 1075 l 514 1068 l 351 1068 z "},"ể":{"ha":593,"x_min":40,"x_max":640,"o":"m 551 297 l 246 297 q 252 199 246 225 q 281 165 258 172 q 365 157 304 157 q 535 164 442 157 l 535 10 q 438 -6 499 0 q 317 -11 376 -11 q 129 26 188 -11 q 56 136 71 64 q 40 353 40 208 q 56 569 40 496 q 128 681 72 643 q 303 719 183 719 q 476 684 424 719 q 540 579 528 649 q 551 353 551 510 l 551 297 m 303 556 q 265 548 276 556 q 250 513 254 540 q 246 422 246 486 l 358 422 q 355 514 358 488 q 341 548 351 540 q 303 556 331 556 m 93 850 l 93 863 l 196 1032 l 396 1032 l 501 863 l 501 850 l 363 850 l 296 940 l 232 850 l 93 850 m 367 1090 q 378 1142 367 1126 q 421 1168 390 1158 l 436 1174 q 485 1194 474 1188 q 496 1215 496 1201 q 485 1235 496 1232 q 438 1239 474 1239 q 296 1235 363 1239 l 296 1344 q 461 1363 383 1363 q 594 1339 549 1363 q 640 1242 640 1315 q 625 1165 640 1189 q 563 1122 610 1140 l 546 1114 q 506 1097 517 1103 q 493 1083 496 1090 q 490 1061 490 1076 l 367 1061 l 367 1090 z "},"ễ":{"ha":593,"x_min":40,"x_max":551,"o":"m 551 297 l 246 297 q 252 199 246 225 q 281 165 258 172 q 365 157 304 157 q 535 164 442 157 l 535 10 q 438 -6 499 0 q 317 -11 376 -11 q 129 26 188 -11 q 56 136 71 64 q 40 353 40 208 q 56 569 40 496 q 128 681 72 643 q 303 719 183 719 q 476 684 424 719 q 540 579 528 649 q 551 353 551 510 l 551 297 m 303 556 q 265 548 276 556 q 250 513 254 540 q 246 422 246 486 l 358 422 q 355 514 358 488 q 341 548 351 540 q 303 556 331 556 m 90 850 l 90 863 l 193 1032 l 393 1032 l 499 863 l 499 850 l 360 850 l 293 940 l 229 850 l 90 850 m 518 1272 q 513 1162 518 1199 q 483 1103 507 1125 q 408 1082 460 1082 q 285 1103 363 1082 q 252 1110 276 1104 q 214 1117 228 1117 q 193 1106 197 1117 q 189 1067 189 1096 l 74 1067 q 79 1176 74 1140 q 108 1234 85 1213 q 185 1256 132 1256 q 308 1235 231 1256 q 379 1222 361 1222 q 399 1232 396 1222 q 403 1272 403 1242 l 518 1272 z "},"ȅ":{"ha":593,"x_min":40,"x_max":551,"o":"m 551 297 l 246 297 q 252 199 246 225 q 281 165 258 172 q 365 157 304 157 q 535 164 442 157 l 535 10 q 438 -6 499 0 q 317 -11 376 -11 q 129 26 188 -11 q 56 136 71 64 q 40 353 40 208 q 56 569 40 496 q 128 681 72 643 q 303 719 183 719 q 476 684 424 719 q 540 579 528 649 q 551 353 551 510 l 551 297 m 303 556 q 265 548 276 556 q 250 513 254 540 q 246 422 246 486 l 358 422 q 355 514 358 488 q 341 548 351 540 q 303 556 331 556 m 264 849 l 131 849 l 42 1008 l 42 1014 l 204 1014 l 264 854 l 264 849 m 471 849 l 338 849 l 249 1008 l 249 1014 l 413 1014 l 471 854 l 471 849 z "},"ë":{"ha":593,"x_min":40,"x_max":551,"o":"m 551 297 l 246 297 q 252 199 246 225 q 281 165 258 172 q 365 157 304 157 q 535 164 442 157 l 535 10 q 438 -6 499 0 q 317 -11 376 -11 q 129 26 188 -11 q 56 136 71 64 q 40 353 40 208 q 56 569 40 496 q 128 681 72 643 q 303 719 183 719 q 476 684 424 719 q 540 579 528 649 q 551 353 551 510 l 551 297 m 303 556 q 265 548 276 556 q 250 513 254 540 q 246 422 246 486 l 358 422 q 355 514 358 488 q 341 548 351 540 q 303 556 331 556 m 97 860 l 97 1013 l 271 1013 l 271 860 l 97 860 m 343 860 l 343 1013 l 517 1013 l 517 860 l 343 860 z "},"ė":{"ha":593,"x_min":40,"x_max":551,"o":"m 551 297 l 246 297 q 252 199 246 225 q 281 165 258 172 q 365 157 304 157 q 535 164 442 157 l 535 10 q 438 -6 499 0 q 317 -11 376 -11 q 129 26 188 -11 q 56 136 71 64 q 40 353 40 208 q 56 569 40 496 q 128 681 72 643 q 303 719 183 719 q 476 684 424 719 q 540 579 528 649 q 551 353 551 510 l 551 297 m 303 556 q 265 548 276 556 q 250 513 254 540 q 246 422 246 486 l 358 422 q 355 514 358 488 q 341 548 351 540 q 303 556 331 556 m 211 861 l 211 1014 l 383 1014 l 383 861 l 211 861 z "},"ẹ":{"ha":593,"x_min":40,"x_max":551,"o":"m 551 297 l 246 297 q 252 199 246 225 q 281 165 258 172 q 365 157 304 157 q 535 164 442 157 l 535 10 q 438 -6 499 0 q 317 -11 376 -11 q 129 26 188 -11 q 56 136 71 64 q 40 353 40 208 q 56 569 40 496 q 128 681 72 643 q 303 719 183 719 q 476 684 424 719 q 540 579 528 649 q 551 353 551 510 l 551 297 m 303 556 q 265 548 276 556 q 250 513 254 540 q 246 422 246 486 l 358 422 q 355 514 358 488 q 341 548 351 540 q 303 556 331 556 m 186 -285 l 186 -86 l 407 -86 l 407 -285 l 186 -285 z "},"è":{"ha":593,"x_min":40,"x_max":551,"o":"m 551 297 l 246 297 q 252 199 246 225 q 281 165 258 172 q 365 157 304 157 q 535 164 442 157 l 535 10 q 438 -6 499 0 q 317 -11 376 -11 q 129 26 188 -11 q 56 136 71 64 q 40 353 40 208 q 56 569 40 496 q 128 681 72 643 q 303 719 183 719 q 476 684 424 719 q 540 579 528 649 q 551 353 551 510 l 551 297 m 303 556 q 265 548 276 556 q 250 513 254 540 q 246 422 246 486 l 358 422 q 355 514 358 488 q 341 548 351 540 q 303 556 331 556 m 233 828 l 122 1025 l 122 1032 l 322 1032 l 396 835 l 396 828 l 233 828 z "},"ẻ":{"ha":593,"x_min":40,"x_max":551,"o":"m 551 297 l 246 297 q 252 199 246 225 q 281 165 258 172 q 365 157 304 157 q 535 164 442 157 l 535 10 q 438 -6 499 0 q 317 -11 376 -11 q 129 26 188 -11 q 56 136 71 64 q 40 353 40 208 q 56 569 40 496 q 128 681 72 643 q 303 719 183 719 q 476 684 424 719 q 540 579 528 649 q 551 353 551 510 l 551 297 m 303 556 q 265 548 276 556 q 250 513 254 540 q 246 422 246 486 l 358 422 q 355 514 358 488 q 341 548 351 540 q 303 556 331 556 m 196 881 q 208 933 196 917 q 250 958 219 949 l 265 964 q 314 985 303 978 q 325 1006 325 992 q 314 1026 325 1022 q 267 1029 303 1029 q 125 1025 192 1029 l 125 1135 q 290 1153 213 1153 q 424 1129 378 1153 q 469 1032 469 1106 q 454 955 469 979 q 392 913 439 931 l 375 904 q 335 887 346 893 q 322 874 325 881 q 319 851 319 867 l 196 851 l 196 881 z "},"ȇ":{"ha":593,"x_min":40,"x_max":551,"o":"m 551 297 l 246 297 q 252 199 246 225 q 281 165 258 172 q 365 157 304 157 q 535 164 442 157 l 535 10 q 438 -6 499 0 q 317 -11 376 -11 q 129 26 188 -11 q 56 136 71 64 q 40 353 40 208 q 56 569 40 496 q 128 681 72 643 q 303 719 183 719 q 476 684 424 719 q 540 579 528 649 q 551 353 551 510 l 551 297 m 303 556 q 265 548 276 556 q 250 513 254 540 q 246 422 246 486 l 358 422 q 355 514 358 488 q 341 548 351 540 q 303 556 331 556 m 108 851 q 122 953 108 913 q 178 1017 136 993 q 297 1040 219 1040 q 416 1017 375 1040 q 471 953 457 993 q 485 851 485 913 l 363 851 q 359 892 363 878 q 342 916 356 907 q 297 925 328 925 q 242 908 253 925 q 231 851 231 890 l 108 851 z "},"ē":{"ha":593,"x_min":40,"x_max":551,"o":"m 551 297 l 246 297 q 252 199 246 225 q 281 165 258 172 q 365 157 304 157 q 535 164 442 157 l 535 10 q 438 -6 499 0 q 317 -11 376 -11 q 129 26 188 -11 q 56 136 71 64 q 40 353 40 208 q 56 569 40 496 q 128 681 72 643 q 303 719 183 719 q 476 684 424 719 q 540 579 528 649 q 551 353 551 510 l 551 297 m 303 556 q 265 548 276 556 q 250 513 254 540 q 246 422 246 486 l 358 422 q 355 514 358 488 q 341 548 351 540 q 303 556 331 556 m 151 853 l 151 1032 l 442 1032 l 442 853 l 151 853 z "},"ę":{"ha":593,"x_min":40,"x_max":551,"o":"m 551 297 l 246 297 q 252 199 246 225 q 281 165 258 172 q 365 157 304 157 q 535 164 442 157 l 535 10 q 472 -46 500 -12 q 444 -117 444 -79 q 497 -162 444 -162 q 514 -161 507 -162 l 514 -267 q 435 -272 475 -272 q 320 -238 356 -272 q 285 -154 285 -204 q 360 -10 285 -81 q 317 -11 344 -11 q 129 26 188 -11 q 56 136 71 64 q 40 353 40 208 q 56 569 40 496 q 128 681 72 643 q 303 719 183 719 q 476 684 424 719 q 540 579 528 649 q 551 353 551 510 l 551 297 m 303 556 q 265 548 276 556 q 250 513 254 540 q 246 422 246 486 l 358 422 q 355 514 358 488 q 341 548 351 540 q 303 556 331 556 z "},"ẽ":{"ha":593,"x_min":40,"x_max":551,"o":"m 551 297 l 246 297 q 252 199 246 225 q 281 165 258 172 q 365 157 304 157 q 535 164 442 157 l 535 10 q 438 -6 499 0 q 317 -11 376 -11 q 129 26 188 -11 q 56 136 71 64 q 40 353 40 208 q 56 569 40 496 q 128 681 72 643 q 303 719 183 719 q 476 684 424 719 q 540 579 528 649 q 551 353 551 510 l 551 297 m 303 556 q 265 548 276 556 q 250 513 254 540 q 246 422 246 486 l 358 422 q 355 514 358 488 q 341 548 351 540 q 303 556 331 556 m 518 1032 q 513 922 518 958 q 483 863 507 885 q 408 842 460 842 q 285 863 363 842 q 252 870 276 864 q 214 876 228 876 q 193 866 197 876 q 189 826 189 856 l 74 826 q 79 936 74 900 q 108 994 85 972 q 185 1015 132 1015 q 308 994 231 1015 q 379 982 361 982 q 399 992 396 982 q 403 1032 403 1001 l 518 1032 z "},"ə":{"ha":593,"x_min":42,"x_max":553,"o":"m 276 719 q 464 682 406 719 q 538 572 522 644 q 553 356 553 500 q 537 139 553 213 q 465 27 521 65 q 290 -11 410 -11 q 117 24 169 -11 q 53 129 65 60 q 42 356 42 199 l 42 411 l 347 411 q 341 510 347 483 q 312 544 335 536 q 228 551 289 551 q 58 544 151 551 l 58 699 q 156 714 94 708 q 276 719 217 719 m 290 153 q 328 160 317 153 q 343 195 339 168 q 347 286 347 222 l 235 286 q 238 194 235 221 q 252 160 242 168 q 290 153 263 153 z "},"f":{"ha":450,"x_min":18,"x_max":425,"o":"m 103 540 l 18 540 l 18 708 l 103 708 l 103 733 q 126 939 103 879 q 211 1015 149 999 q 425 1032 274 1032 l 425 883 q 346 877 368 883 q 317 850 324 871 q 310 778 310 829 l 310 708 l 425 708 l 425 540 l 310 540 l 310 0 l 103 0 l 103 540 z "},"g":{"ha":624,"x_min":40,"x_max":568,"o":"m 292 -285 q 182 -281 239 -285 q 88 -269 125 -276 l 88 -117 l 240 -118 q 326 -109 303 -118 q 355 -73 349 -100 q 361 28 361 -46 l 361 90 l 350 90 q 299 26 333 46 q 213 7 265 7 q 109 40 146 7 q 56 149 72 72 q 40 364 40 225 q 57 582 40 506 q 110 689 74 658 q 214 719 147 719 q 299 699 261 719 q 353 628 336 678 l 365 628 l 371 708 l 568 708 l 568 81 q 553 -135 568 -62 q 478 -246 538 -207 q 292 -285 419 -285 m 304 186 q 340 193 329 186 q 356 224 350 200 q 360 277 360 240 q 361 363 361 314 q 357 492 361 467 q 340 530 351 521 q 304 539 329 539 q 264 530 275 539 q 250 488 253 521 q 247 363 247 456 q 251 238 247 271 q 265 195 254 204 q 304 186 275 186 z "},"ǵ":{"ha":624,"x_min":40,"x_max":568,"o":"m 292 -285 q 182 -281 239 -285 q 88 -269 125 -276 l 88 -117 l 240 -118 q 326 -109 303 -118 q 355 -73 349 -100 q 361 28 361 -46 l 361 90 l 350 90 q 299 26 333 46 q 213 7 265 7 q 109 40 146 7 q 56 149 72 72 q 40 364 40 225 q 57 582 40 506 q 110 689 74 658 q 214 719 147 719 q 299 699 261 719 q 353 628 336 678 l 365 628 l 371 708 l 568 708 l 568 81 q 553 -135 568 -62 q 478 -246 538 -207 q 292 -285 419 -285 m 304 186 q 340 193 329 186 q 356 224 350 200 q 360 277 360 240 q 361 363 361 314 q 357 492 361 467 q 340 530 351 521 q 304 539 329 539 q 264 530 275 539 q 250 488 253 521 q 247 363 247 456 q 251 238 247 271 q 265 195 254 204 q 304 186 275 186 m 226 828 l 226 835 l 300 1032 l 500 1032 l 500 1025 l 389 828 l 226 828 z "},"ğ":{"ha":624,"x_min":40,"x_max":568,"o":"m 292 -285 q 182 -281 239 -285 q 88 -269 125 -276 l 88 -117 l 240 -118 q 326 -109 303 -118 q 355 -73 349 -100 q 361 28 361 -46 l 361 90 l 350 90 q 299 26 333 46 q 213 7 265 7 q 109 40 146 7 q 56 149 72 72 q 40 364 40 225 q 57 582 40 506 q 110 689 74 658 q 214 719 147 719 q 299 699 261 719 q 353 628 336 678 l 365 628 l 371 708 l 568 708 l 568 81 q 553 -135 568 -62 q 478 -246 538 -207 q 292 -285 419 -285 m 304 186 q 340 193 329 186 q 356 224 350 200 q 360 277 360 240 q 361 363 361 314 q 357 492 361 467 q 340 530 351 521 q 304 539 329 539 q 264 530 275 539 q 250 488 253 521 q 247 363 247 456 q 251 238 247 271 q 265 195 254 204 q 304 186 275 186 m 500 1032 q 486 931 500 971 q 431 867 472 890 q 311 843 389 843 q 192 867 233 843 q 138 931 151 890 q 124 1032 124 971 l 246 1032 q 249 991 246 1006 q 267 967 253 976 q 311 958 281 958 q 367 976 356 958 q 378 1032 378 993 l 500 1032 z "},"ǧ":{"ha":624,"x_min":40,"x_max":568,"o":"m 292 -285 q 182 -281 239 -285 q 88 -269 125 -276 l 88 -117 l 240 -118 q 326 -109 303 -118 q 355 -73 349 -100 q 361 28 361 -46 l 361 90 l 350 90 q 299 26 333 46 q 213 7 265 7 q 109 40 146 7 q 56 149 72 72 q 40 364 40 225 q 57 582 40 506 q 110 689 74 658 q 214 719 147 719 q 299 699 261 719 q 353 628 336 678 l 365 628 l 371 708 l 568 708 l 568 81 q 553 -135 568 -62 q 478 -246 538 -207 q 292 -285 419 -285 m 304 186 q 340 193 329 186 q 356 224 350 200 q 360 277 360 240 q 361 363 361 314 q 357 492 361 467 q 340 530 351 521 q 304 539 329 539 q 264 530 275 539 q 250 488 253 521 q 247 363 247 456 q 251 238 247 271 q 265 195 254 204 q 304 186 275 186 m 211 850 l 108 1021 l 108 1032 l 247 1032 l 313 942 l 378 1032 l 517 1032 l 517 1021 l 411 850 l 211 850 z "},"ĝ":{"ha":624,"x_min":40,"x_max":568,"o":"m 292 -285 q 182 -281 239 -285 q 88 -269 125 -276 l 88 -117 l 240 -118 q 326 -109 303 -118 q 355 -73 349 -100 q 361 28 361 -46 l 361 90 l 350 90 q 299 26 333 46 q 213 7 265 7 q 109 40 146 7 q 56 149 72 72 q 40 364 40 225 q 57 582 40 506 q 110 689 74 658 q 214 719 147 719 q 299 699 261 719 q 353 628 336 678 l 365 628 l 371 708 l 568 708 l 568 81 q 553 -135 568 -62 q 478 -246 538 -207 q 292 -285 419 -285 m 304 186 q 340 193 329 186 q 356 224 350 200 q 360 277 360 240 q 361 363 361 314 q 357 492 361 467 q 340 530 351 521 q 304 539 329 539 q 264 530 275 539 q 250 488 253 521 q 247 363 247 456 q 251 238 247 271 q 265 195 254 204 q 304 186 275 186 m 108 850 l 108 863 l 211 1032 l 411 1032 l 517 863 l 517 850 l 378 850 l 311 940 l 247 850 l 108 850 z "},"ģ":{"ha":624,"x_min":40,"x_max":568,"o":"m 292 -285 q 182 -281 239 -285 q 88 -269 125 -276 l 88 -117 l 240 -118 q 326 -109 303 -118 q 355 -73 349 -100 q 361 28 361 -46 l 361 90 l 350 90 q 299 26 333 46 q 213 7 265 7 q 109 40 146 7 q 56 149 72 72 q 40 364 40 225 q 57 582 40 506 q 110 689 74 658 q 214 719 147 719 q 299 699 261 719 q 353 628 336 678 l 365 628 l 371 708 l 568 708 l 568 81 q 553 -135 568 -62 q 478 -246 538 -207 q 292 -285 419 -285 m 304 186 q 340 193 329 186 q 356 224 350 200 q 360 277 360 240 q 361 363 361 314 q 357 492 361 467 q 340 530 351 521 q 304 539 329 539 q 264 530 275 539 q 250 488 253 521 q 247 363 247 456 q 251 238 247 271 q 265 195 254 204 q 304 186 275 186 m 417 1060 q 355 1047 369 1060 q 340 997 340 1033 l 340 981 l 417 981 l 417 829 l 208 829 l 208 922 q 222 1062 208 1017 q 279 1126 236 1107 q 417 1146 322 1146 l 417 1060 z "},"ġ":{"ha":624,"x_min":40,"x_max":568,"o":"m 292 -285 q 182 -281 239 -285 q 88 -269 125 -276 l 88 -117 l 240 -118 q 326 -109 303 -118 q 355 -73 349 -100 q 361 28 361 -46 l 361 90 l 350 90 q 299 26 333 46 q 213 7 265 7 q 109 40 146 7 q 56 149 72 72 q 40 364 40 225 q 57 582 40 506 q 110 689 74 658 q 214 719 147 719 q 299 699 261 719 q 353 628 336 678 l 365 628 l 371 708 l 568 708 l 568 81 q 553 -135 568 -62 q 478 -246 538 -207 q 292 -285 419 -285 m 304 186 q 340 193 329 186 q 356 224 350 200 q 360 277 360 240 q 361 363 361 314 q 357 492 361 467 q 340 530 351 521 q 304 539 329 539 q 264 530 275 539 q 250 488 253 521 q 247 363 247 456 q 251 238 247 271 q 265 195 254 204 q 304 186 275 186 m 226 861 l 226 1014 l 399 1014 l 399 861 l 226 861 z "},"h":{"ha":629,"x_min":56,"x_max":576,"o":"m 369 381 q 367 492 369 463 q 354 531 364 522 q 317 539 344 539 q 278 528 289 539 q 265 482 268 517 q 263 358 263 447 l 263 0 l 56 0 l 56 1032 l 263 1032 l 263 628 l 274 628 q 422 719 310 719 q 521 694 488 719 q 565 615 554 668 q 576 469 576 563 l 576 0 l 369 0 l 369 381 z "},"ħ":{"ha":629,"x_min":0,"x_max":576,"o":"m 422 719 q 521 694 488 719 q 565 615 554 668 q 576 469 576 563 l 576 0 l 369 0 l 369 381 q 367 492 369 463 q 354 531 364 522 q 317 539 344 539 q 278 528 289 539 q 265 482 268 517 q 263 358 263 447 l 263 0 l 56 0 l 56 792 l 0 792 l 0 956 l 56 956 l 56 1032 l 263 1032 l 263 956 l 389 956 l 389 792 l 263 792 l 263 628 l 274 628 q 422 719 310 719 z "},"ĥ":{"ha":629,"x_min":-46,"x_max":576,"o":"m 369 381 q 367 492 369 463 q 354 531 364 522 q 317 539 344 539 q 278 528 289 539 q 265 482 268 517 q 263 358 263 447 l 263 0 l 56 0 l 56 1032 l 263 1032 l 263 628 l 274 628 q 422 719 310 719 q 521 694 488 719 q 565 615 554 668 q 576 469 576 563 l 576 0 l 369 0 l 369 381 m -46 1097 l -46 1110 l 57 1279 l 257 1279 l 363 1110 l 363 1097 l 224 1097 l 157 1188 l 93 1097 l -46 1097 z "},"ḥ":{"ha":629,"x_min":56,"x_max":576,"o":"m 369 381 q 367 492 369 463 q 354 531 364 522 q 317 539 344 539 q 278 528 289 539 q 265 482 268 517 q 263 358 263 447 l 263 0 l 56 0 l 56 1032 l 263 1032 l 263 628 l 274 628 q 422 719 310 719 q 521 694 488 719 q 565 615 554 668 q 576 469 576 563 l 576 0 l 369 0 l 369 381 m 204 -285 l 204 -86 l 425 -86 l 425 -285 l 204 -285 z "},"i":{"ha":319,"x_min":56,"x_max":264,"o":"m 56 850 l 56 1032 l 264 1032 l 264 850 l 56 850 m 56 0 l 56 708 l 264 708 l 264 0 l 56 0 z "},"ı":{"ha":319,"x_min":56,"x_max":264,"o":"m 56 0 l 56 708 l 264 708 l 264 0 l 56 0 z "},"í":{"ha":319,"x_min":56,"x_max":329,"o":"m 56 0 l 56 708 l 264 708 l 264 0 l 56 0 m 56 828 l 56 835 l 129 1032 l 329 1032 l 329 1025 l 218 828 l 56 828 z "},"ĭ":{"ha":319,"x_min":-29,"x_max":347,"o":"m 56 0 l 56 708 l 264 708 l 264 0 l 56 0 m 347 1032 q 333 931 347 971 q 278 867 319 890 q 158 843 236 843 q 40 867 81 843 q -15 931 -1 890 q -29 1032 -29 971 l 93 1032 q 97 991 93 1006 q 114 967 100 976 q 158 958 128 958 q 214 976 203 958 q 225 1032 225 993 l 347 1032 z "},"ǐ":{"ha":319,"x_min":-44,"x_max":364,"o":"m 56 0 l 56 708 l 264 708 l 264 0 l 56 0 m 58 850 l -44 1021 l -44 1032 l 94 1032 l 160 942 l 225 1032 l 364 1032 l 364 1021 l 258 850 l 58 850 z "},"î":{"ha":319,"x_min":-44,"x_max":364,"o":"m 56 0 l 56 708 l 264 708 l 264 0 l 56 0 m -44 850 l -44 863 l 58 1032 l 258 1032 l 364 863 l 364 850 l 225 850 l 158 940 l 94 850 l -44 850 z "},"ȉ":{"ha":319,"x_min":-96,"x_max":333,"o":"m 56 0 l 56 708 l 264 708 l 264 0 l 56 0 m 126 849 l -7 849 l -96 1008 l -96 1014 l 67 1014 l 126 854 l 126 849 m 333 849 l 200 849 l 111 1008 l 111 1014 l 275 1014 l 333 854 l 333 849 z "},"ï":{"ha":319,"x_min":-50,"x_max":369,"o":"m 56 0 l 56 708 l 264 708 l 264 0 l 56 0 m -50 860 l -50 1013 l 124 1013 l 124 860 l -50 860 m 196 860 l 196 1013 l 369 1013 l 369 860 l 196 860 z "},"ị":{"ha":319,"x_min":56,"x_max":292,"o":"m 56 850 l 56 1032 l 264 1032 l 264 850 l 56 850 m 56 0 l 56 708 l 264 708 l 264 0 l 56 0 m 71 -285 l 71 -86 l 292 -86 l 292 -285 l 71 -285 z "},"ì":{"ha":319,"x_min":-11,"x_max":264,"o":"m 56 0 l 56 708 l 264 708 l 264 0 l 56 0 m 100 828 l -11 1025 l -11 1032 l 189 1032 l 263 835 l 263 828 l 100 828 z "},"ỉ":{"ha":319,"x_min":-12,"x_max":332,"o":"m 56 0 l 56 708 l 264 708 l 264 0 l 56 0 m 58 881 q 70 933 58 917 q 113 958 82 949 l 128 964 q 176 985 165 978 q 188 1006 188 992 q 176 1026 188 1022 q 129 1029 165 1029 q -12 1025 54 1029 l -12 1135 q 153 1153 75 1153 q 286 1129 240 1153 q 332 1032 332 1106 q 317 955 332 979 q 254 913 301 931 l 238 904 q 198 887 208 893 q 185 874 188 881 q 182 851 182 867 l 58 851 l 58 881 z "},"ȋ":{"ha":319,"x_min":-29,"x_max":347,"o":"m 56 0 l 56 708 l 264 708 l 264 0 l 56 0 m -29 851 q -15 953 -29 913 q 40 1017 -1 993 q 160 1040 82 1040 q 278 1017 238 1040 q 333 953 319 993 q 347 851 347 913 l 225 851 q 222 892 225 878 q 204 916 218 907 q 160 925 190 925 q 104 908 115 925 q 93 851 93 890 l -29 851 z "},"ĳ":{"ha":639,"x_min":56,"x_max":583,"o":"m 56 850 l 56 1032 l 264 1032 l 264 850 l 56 850 m 56 0 l 56 708 l 264 708 l 264 0 l 56 0 m 375 850 l 375 1032 l 583 1032 l 583 850 l 375 850 m 296 -122 q 350 -115 333 -122 q 371 -94 367 -108 q 375 -51 375 -81 l 375 708 l 583 708 l 583 32 q 560 -174 583 -111 q 481 -256 538 -237 q 296 -275 424 -275 l 296 -122 z "},"ī":{"ha":319,"x_min":14,"x_max":304,"o":"m 56 0 l 56 708 l 264 708 l 264 0 l 56 0 m 14 853 l 14 1032 l 304 1032 l 304 853 l 14 853 z "},"į":{"ha":319,"x_min":33,"x_max":264,"o":"m 246 1014 l 246 861 l 72 861 l 72 1014 l 246 1014 m 264 0 q 215 -51 238 -18 q 193 -115 193 -83 q 246 -162 193 -162 q 264 -161 256 -162 l 264 -267 q 185 -272 217 -272 q 69 -239 104 -272 q 33 -154 33 -206 q 54 -73 33 -112 q 111 0 75 -33 l 56 0 l 56 708 l 264 708 l 264 0 z "},"ĩ":{"ha":319,"x_min":-64,"x_max":381,"o":"m 56 0 l 56 708 l 264 708 l 264 0 l 56 0 m 381 1032 q 375 922 381 958 q 346 863 369 885 q 271 842 322 842 q 147 863 225 842 q 115 870 139 864 q 76 876 90 876 q 56 866 60 876 q 51 826 51 856 l -64 826 q -58 936 -64 900 q -29 994 -53 972 q 47 1015 -6 1015 q 171 994 93 1015 q 242 982 224 982 q 262 992 258 982 q 265 1032 265 1001 l 381 1032 z "},"j":{"ha":319,"x_min":-24,"x_max":264,"o":"m 56 850 l 56 1032 l 264 1032 l 264 850 l 56 850 m -24 -122 q 31 -115 14 -122 q 51 -94 47 -108 q 56 -51 56 -81 l 56 708 l 264 708 l 264 32 q 241 -174 264 -111 q 161 -256 218 -237 q -24 -275 104 -275 l -24 -122 z "},"ȷ":{"ha":319,"x_min":-24,"x_max":264,"o":"m -24 -122 q 31 -115 14 -122 q 51 -94 47 -108 q 56 -51 56 -81 l 56 708 l 264 708 l 264 32 q 241 -174 264 -111 q 161 -256 218 -237 q -24 -275 104 -275 l -24 -122 z "},"ĵ":{"ha":319,"x_min":-44,"x_max":364,"o":"m -24 -122 q 31 -115 14 -122 q 51 -94 47 -108 q 56 -51 56 -81 l 56 708 l 264 708 l 264 32 q 241 -174 264 -111 q 161 -256 218 -237 q -24 -275 104 -275 l -24 -122 m -44 850 l -44 863 l 58 1032 l 258 1032 l 364 863 l 364 850 l 225 850 l 158 940 l 94 850 l -44 850 z "},"k":{"ha":614,"x_min":56,"x_max":607,"o":"m 389 0 l 289 267 l 263 267 l 263 0 l 56 0 l 56 1032 l 263 1032 l 263 435 l 289 435 l 394 708 l 604 708 l 461 372 l 607 0 l 389 0 z "},"ķ":{"ha":614,"x_min":56,"x_max":607,"o":"m 389 0 l 289 267 l 263 267 l 263 0 l 56 0 l 56 1032 l 263 1032 l 263 435 l 289 435 l 394 708 l 604 708 l 461 372 l 607 0 l 389 0 m 204 -315 q 266 -303 251 -315 q 281 -253 281 -290 l 281 -236 l 204 -236 l 204 -85 l 413 -85 l 413 -178 q 399 -317 413 -272 q 342 -382 385 -362 q 204 -401 299 -401 l 204 -315 z "},"ĸ":{"ha":614,"x_min":56,"x_max":607,"o":"m 389 0 l 289 267 l 263 267 l 263 0 l 56 0 l 56 708 l 263 708 l 263 435 l 289 435 l 394 708 l 604 708 l 461 372 l 607 0 l 389 0 z "},"l":{"ha":319,"x_min":56,"x_max":264,"o":"m 56 0 l 56 1032 l 264 1032 l 264 0 l 56 0 z "},"ĺ":{"ha":319,"x_min":56,"x_max":347,"o":"m 56 0 l 56 1032 l 264 1032 l 264 0 l 56 0 m 74 1075 l 74 1082 l 147 1279 l 347 1279 l 347 1272 l 236 1075 l 74 1075 z "},"ľ":{"ha":458,"x_min":56,"x_max":517,"o":"m 56 0 l 56 1032 l 264 1032 l 264 0 l 56 0 m 306 588 l 326 889 l 326 956 l 517 956 l 517 889 l 454 588 l 306 588 z "},"ļ":{"ha":319,"x_min":56,"x_max":265,"o":"m 56 0 l 56 1032 l 264 1032 l 264 0 l 56 0 m 57 -315 q 119 -303 104 -315 q 133 -253 133 -290 l 133 -236 l 57 -236 l 57 -85 l 265 -85 l 265 -178 q 251 -317 265 -272 q 194 -382 238 -362 q 57 -401 151 -401 l 57 -315 z "},"ŀ":{"ha":471,"x_min":56,"x_max":490,"o":"m 56 0 l 56 1032 l 264 1032 l 264 0 l 56 0 m 303 315 l 303 514 l 490 514 l 490 315 l 303 315 z "},"ǉ":{"ha":639,"x_min":56,"x_max":583,"o":"m 56 0 l 56 1032 l 264 1032 l 264 0 l 56 0 m 375 850 l 375 1032 l 583 1032 l 583 850 l 375 850 m 296 -122 q 350 -115 333 -122 q 371 -94 367 -108 q 375 -51 375 -81 l 375 708 l 583 708 l 583 32 q 560 -174 583 -111 q 481 -256 538 -237 q 296 -275 424 -275 l 296 -122 z "},"ł":{"ha":335,"x_min":8,"x_max":326,"o":"m 61 0 l 61 386 l 8 368 l 8 539 l 61 557 l 61 1032 l 269 1032 l 269 631 l 326 651 l 326 479 l 269 458 l 269 0 l 61 0 z "},"m":{"ha":931,"x_min":56,"x_max":878,"o":"m 671 381 q 668 492 671 463 q 656 531 665 522 q 621 539 647 539 q 585 528 594 539 q 572 483 575 517 q 569 358 569 449 l 569 0 l 363 0 l 363 381 q 360 492 363 463 q 348 531 357 522 q 314 539 339 539 q 278 528 288 539 q 265 483 268 517 q 263 358 263 450 l 263 0 l 56 0 l 56 708 l 254 708 l 260 626 l 271 626 q 331 699 293 678 q 422 719 368 719 q 515 697 482 719 q 560 626 547 674 l 572 626 q 633 699 594 678 q 725 719 671 719 q 820 694 788 719 q 865 616 853 668 q 878 476 878 564 l 878 0 l 671 0 l 671 381 z "},"n":{"ha":629,"x_min":56,"x_max":576,"o":"m 369 381 q 367 492 369 463 q 354 531 364 522 q 317 539 344 539 q 278 528 289 539 q 265 482 268 517 q 263 358 263 447 l 263 0 l 56 0 l 56 708 l 254 708 l 260 626 l 271 626 q 422 719 307 719 q 521 693 488 719 q 565 614 554 667 q 576 468 576 561 l 576 0 l 369 0 l 369 381 z "},"ń":{"ha":629,"x_min":56,"x_max":576,"o":"m 369 381 q 367 492 369 463 q 354 531 364 522 q 317 539 344 539 q 278 528 289 539 q 265 482 268 517 q 263 358 263 447 l 263 0 l 56 0 l 56 708 l 254 708 l 260 626 l 271 626 q 422 719 307 719 q 521 693 488 719 q 565 614 554 667 q 576 468 576 561 l 576 0 l 369 0 l 369 381 m 229 828 l 229 835 l 303 1032 l 503 1032 l 503 1025 l 392 828 l 229 828 z "},"ŉ":{"ha":814,"x_min":25,"x_max":761,"o":"m 25 767 q 88 788 72 767 q 103 867 103 808 l 103 886 l 25 886 l 25 1032 l 235 1032 l 235 942 q 221 778 235 831 q 163 703 207 725 q 25 681 119 681 l 25 767 m 554 381 q 551 492 554 463 q 539 531 549 522 q 501 539 529 539 q 463 528 474 539 q 450 482 453 517 q 447 358 447 447 l 447 0 l 240 0 l 240 708 l 439 708 l 444 626 l 456 626 q 607 719 492 719 q 706 693 672 719 q 750 614 739 667 q 761 468 761 561 l 761 0 l 554 0 l 554 381 z "},"ň":{"ha":629,"x_min":56,"x_max":576,"o":"m 369 381 q 367 492 369 463 q 354 531 364 522 q 317 539 344 539 q 278 528 289 539 q 265 482 268 517 q 263 358 263 447 l 263 0 l 56 0 l 56 708 l 254 708 l 260 626 l 271 626 q 422 719 307 719 q 521 693 488 719 q 565 614 554 667 q 576 468 576 561 l 576 0 l 369 0 l 369 381 m 214 850 l 111 1021 l 111 1032 l 250 1032 l 315 942 l 381 1032 l 519 1032 l 519 1021 l 414 850 l 214 850 z "},"ņ":{"ha":629,"x_min":56,"x_max":576,"o":"m 369 381 q 367 492 369 463 q 354 531 364 522 q 317 539 344 539 q 278 528 289 539 q 265 482 268 517 q 263 358 263 447 l 263 0 l 56 0 l 56 708 l 254 708 l 260 626 l 271 626 q 422 719 307 719 q 521 693 488 719 q 565 614 554 667 q 576 468 576 561 l 576 0 l 369 0 l 369 381 m 213 -315 q 274 -303 260 -315 q 289 -253 289 -290 l 289 -236 l 213 -236 l 213 -85 l 421 -85 l 421 -178 q 407 -317 421 -272 q 350 -382 393 -362 q 213 -401 307 -401 l 213 -315 z "},"ṅ":{"ha":629,"x_min":56,"x_max":576,"o":"m 369 381 q 367 492 369 463 q 354 531 364 522 q 317 539 344 539 q 278 528 289 539 q 265 482 268 517 q 263 358 263 447 l 263 0 l 56 0 l 56 708 l 254 708 l 260 626 l 271 626 q 422 719 307 719 q 521 693 488 719 q 565 614 554 667 q 576 468 576 561 l 576 0 l 369 0 l 369 381 m 229 861 l 229 1014 l 401 1014 l 401 861 l 229 861 z "},"ŋ":{"ha":629,"x_min":56,"x_max":576,"o":"m 422 719 q 521 693 488 719 q 565 614 554 667 q 576 468 576 561 l 576 32 q 553 -174 576 -111 q 474 -256 531 -237 q 290 -275 417 -275 l 290 -122 q 344 -115 328 -122 q 365 -94 361 -108 q 369 -51 369 -81 l 369 381 q 367 492 369 463 q 354 531 364 522 q 317 539 344 539 q 278 528 289 539 q 265 482 268 517 q 263 358 263 447 l 263 0 l 56 0 l 56 708 l 254 708 l 260 626 l 271 626 q 422 719 307 719 z "},"ɲ":{"ha":629,"x_min":-24,"x_max":576,"o":"m -24 -122 q 31 -115 14 -122 q 51 -94 47 -108 q 56 -51 56 -81 l 56 708 l 254 708 l 260 626 l 271 626 q 422 719 307 719 q 521 693 488 719 q 565 614 554 667 q 576 468 576 561 l 576 0 l 369 0 l 369 381 q 367 492 369 463 q 354 531 364 522 q 317 539 344 539 q 278 528 289 539 q 265 483 268 517 q 263 360 263 449 l 263 32 q 240 -174 263 -111 q 160 -256 217 -237 q -24 -275 103 -275 l -24 -122 z "},"ǌ":{"ha":949,"x_min":56,"x_max":893,"o":"m 369 381 q 367 492 369 463 q 354 531 364 522 q 317 539 344 539 q 278 528 289 539 q 265 482 268 517 q 263 358 263 447 l 263 0 l 56 0 l 56 708 l 254 708 l 260 626 l 271 626 q 422 719 307 719 q 521 693 488 719 q 565 614 554 667 q 576 468 576 561 l 576 0 l 369 0 l 369 381 m 685 850 l 685 1032 l 893 1032 l 893 850 l 685 850 m 606 -122 q 660 -115 643 -122 q 681 -94 676 -108 q 685 -51 685 -81 l 685 708 l 893 708 l 893 32 q 870 -174 893 -111 q 790 -256 847 -237 q 606 -275 733 -275 l 606 -122 z "},"ñ":{"ha":629,"x_min":56,"x_max":576,"o":"m 369 381 q 367 492 369 463 q 354 531 364 522 q 317 539 344 539 q 278 528 289 539 q 265 482 268 517 q 263 358 263 447 l 263 0 l 56 0 l 56 708 l 254 708 l 260 626 l 271 626 q 422 719 307 719 q 521 693 488 719 q 565 614 554 667 q 576 468 576 561 l 576 0 l 369 0 l 369 381 m 540 1032 q 535 922 540 958 q 506 863 529 885 q 431 842 482 842 q 307 863 385 842 q 274 870 299 864 q 236 876 250 876 q 215 866 219 876 q 211 826 211 856 l 96 826 q 101 936 96 900 q 131 994 107 972 q 207 1015 154 1015 q 331 994 253 1015 q 401 982 383 982 q 422 992 418 982 q 425 1032 425 1001 l 540 1032 z "},"o":{"ha":610,"x_min":40,"x_max":569,"o":"m 306 -11 q 127 19 182 -11 q 56 122 72 50 q 40 354 40 194 q 56 586 40 514 q 127 689 72 658 q 306 719 182 719 q 483 689 429 719 q 553 586 538 658 q 569 354 569 514 q 553 122 569 194 q 483 19 538 50 q 306 -11 429 -11 m 306 157 q 347 167 336 157 q 360 215 357 178 q 364 354 364 253 q 360 493 364 456 q 347 541 357 531 q 306 551 336 551 q 264 541 275 551 q 250 494 253 531 q 247 354 247 457 q 250 215 247 251 q 264 167 253 178 q 306 157 275 157 z "},"ó":{"ha":610,"x_min":40,"x_max":569,"o":"m 306 -11 q 127 19 182 -11 q 56 122 72 50 q 40 354 40 194 q 56 586 40 514 q 127 689 72 658 q 306 719 182 719 q 483 689 429 719 q 553 586 538 658 q 569 354 569 514 q 553 122 569 194 q 483 19 538 50 q 306 -11 429 -11 m 306 157 q 347 167 336 157 q 360 215 357 178 q 364 354 364 253 q 360 493 364 456 q 347 541 357 531 q 306 551 336 551 q 264 541 275 551 q 250 494 253 531 q 247 354 247 457 q 250 215 247 251 q 264 167 253 178 q 306 157 275 157 m 214 828 l 214 835 l 288 1032 l 488 1032 l 488 1025 l 376 828 l 214 828 z "},"ŏ":{"ha":610,"x_min":40,"x_max":569,"o":"m 306 -11 q 127 19 182 -11 q 56 122 72 50 q 40 354 40 194 q 56 586 40 514 q 127 689 72 658 q 306 719 182 719 q 483 689 429 719 q 553 586 538 658 q 569 354 569 514 q 553 122 569 194 q 483 19 538 50 q 306 -11 429 -11 m 306 157 q 347 167 336 157 q 360 215 357 178 q 364 354 364 253 q 360 493 364 456 q 347 541 357 531 q 306 551 336 551 q 264 541 275 551 q 250 494 253 531 q 247 354 247 457 q 250 215 247 251 q 264 167 253 178 q 306 157 275 157 m 493 1032 q 479 931 493 971 q 424 867 465 890 q 304 843 382 843 q 185 867 226 843 q 131 931 144 890 q 117 1032 117 971 l 239 1032 q 242 991 239 1006 q 260 967 246 976 q 304 958 274 958 q 360 976 349 958 q 371 1032 371 993 l 493 1032 z "},"ǒ":{"ha":610,"x_min":40,"x_max":569,"o":"m 306 -11 q 127 19 182 -11 q 56 122 72 50 q 40 354 40 194 q 56 586 40 514 q 127 689 72 658 q 306 719 182 719 q 483 689 429 719 q 553 586 538 658 q 569 354 569 514 q 553 122 569 194 q 483 19 538 50 q 306 -11 429 -11 m 306 157 q 347 167 336 157 q 360 215 357 178 q 364 354 364 253 q 360 493 364 456 q 347 541 357 531 q 306 551 336 551 q 264 541 275 551 q 250 494 253 531 q 247 354 247 457 q 250 215 247 251 q 264 167 253 178 q 306 157 275 157 m 204 850 l 101 1021 l 101 1032 l 240 1032 l 306 942 l 371 1032 l 510 1032 l 510 1021 l 404 850 l 204 850 z "},"ô":{"ha":610,"x_min":40,"x_max":569,"o":"m 306 -11 q 127 19 182 -11 q 56 122 72 50 q 40 354 40 194 q 56 586 40 514 q 127 689 72 658 q 306 719 182 719 q 483 689 429 719 q 553 586 538 658 q 569 354 569 514 q 553 122 569 194 q 483 19 538 50 q 306 -11 429 -11 m 306 157 q 347 167 336 157 q 360 215 357 178 q 364 354 364 253 q 360 493 364 456 q 347 541 357 531 q 306 551 336 551 q 264 541 275 551 q 250 494 253 531 q 247 354 247 457 q 250 215 247 251 q 264 167 253 178 q 306 157 275 157 m 103 850 l 103 863 l 206 1032 l 406 1032 l 511 863 l 511 850 l 372 850 l 306 940 l 242 850 l 103 850 z "},"ố":{"ha":610,"x_min":40,"x_max":604,"o":"m 306 -11 q 127 19 182 -11 q 56 122 72 50 q 40 354 40 194 q 56 586 40 514 q 127 689 72 658 q 306 719 182 719 q 483 689 429 719 q 553 586 538 658 q 569 354 569 514 q 553 122 569 194 q 483 19 538 50 q 306 -11 429 -11 m 306 157 q 347 167 336 157 q 360 215 357 178 q 364 354 364 253 q 360 493 364 456 q 347 541 357 531 q 306 551 336 551 q 264 541 275 551 q 250 494 253 531 q 247 354 247 457 q 250 215 247 251 q 264 167 253 178 q 306 157 275 157 m 101 850 l 101 863 l 204 1032 l 404 1032 l 510 863 l 510 850 l 371 850 l 304 940 l 240 850 l 101 850 m 331 1068 l 331 1075 l 404 1272 l 604 1272 l 604 1265 l 493 1068 l 331 1068 z "},"ộ":{"ha":610,"x_min":40,"x_max":569,"o":"m 306 -11 q 127 19 182 -11 q 56 122 72 50 q 40 354 40 194 q 56 586 40 514 q 127 689 72 658 q 306 719 182 719 q 483 689 429 719 q 553 586 538 658 q 569 354 569 514 q 553 122 569 194 q 483 19 538 50 q 306 -11 429 -11 m 306 157 q 347 167 336 157 q 360 215 357 178 q 364 354 364 253 q 360 493 364 456 q 347 541 357 531 q 306 551 336 551 q 264 541 275 551 q 250 494 253 531 q 247 354 247 457 q 250 215 247 251 q 264 167 253 178 q 306 157 275 157 m 194 -285 l 194 -86 l 415 -86 l 415 -285 l 194 -285 m 101 850 l 101 863 l 204 1032 l 404 1032 l 510 863 l 510 850 l 371 850 l 304 940 l 240 850 l 101 850 z "},"ồ":{"ha":610,"x_min":40,"x_max":569,"o":"m 306 -11 q 127 19 182 -11 q 56 122 72 50 q 40 354 40 194 q 56 586 40 514 q 127 689 72 658 q 306 719 182 719 q 483 689 429 719 q 553 586 538 658 q 569 354 569 514 q 553 122 569 194 q 483 19 538 50 q 306 -11 429 -11 m 306 157 q 347 167 336 157 q 360 215 357 178 q 364 354 364 253 q 360 493 364 456 q 347 541 357 531 q 306 551 336 551 q 264 541 275 551 q 250 494 253 531 q 247 354 247 457 q 250 215 247 251 q 264 167 253 178 q 306 157 275 157 m 88 850 l 88 863 l 190 1032 l 390 1032 l 496 863 l 496 850 l 357 850 l 290 940 l 226 850 l 88 850 m 360 1068 l 249 1265 l 249 1272 l 449 1272 l 522 1075 l 522 1068 l 360 1068 z "},"ổ":{"ha":610,"x_min":40,"x_max":649,"o":"m 306 -11 q 127 19 182 -11 q 56 122 72 50 q 40 354 40 194 q 56 586 40 514 q 127 689 72 658 q 306 719 182 719 q 483 689 429 719 q 553 586 538 658 q 569 354 569 514 q 553 122 569 194 q 483 19 538 50 q 306 -11 429 -11 m 306 157 q 347 167 336 157 q 360 215 357 178 q 364 354 364 253 q 360 493 364 456 q 347 541 357 531 q 306 551 336 551 q 264 541 275 551 q 250 494 253 531 q 247 354 247 457 q 250 215 247 251 q 264 167 253 178 q 306 157 275 157 m 101 850 l 101 863 l 204 1032 l 404 1032 l 510 863 l 510 850 l 371 850 l 304 940 l 240 850 l 101 850 m 375 1090 q 387 1142 375 1126 q 429 1168 399 1158 l 444 1174 q 493 1194 482 1188 q 504 1215 504 1201 q 493 1235 504 1232 q 446 1239 482 1239 q 304 1235 371 1239 l 304 1344 q 469 1363 392 1363 q 603 1339 557 1363 q 649 1242 649 1315 q 633 1165 649 1189 q 571 1122 618 1140 l 554 1114 q 515 1097 525 1103 q 501 1083 504 1090 q 499 1061 499 1076 l 375 1061 l 375 1090 z "},"ỗ":{"ha":610,"x_min":40,"x_max":569,"o":"m 306 -11 q 127 19 182 -11 q 56 122 72 50 q 40 354 40 194 q 56 586 40 514 q 127 689 72 658 q 306 719 182 719 q 483 689 429 719 q 553 586 538 658 q 569 354 569 514 q 553 122 569 194 q 483 19 538 50 q 306 -11 429 -11 m 306 157 q 347 167 336 157 q 360 215 357 178 q 364 354 364 253 q 360 493 364 456 q 347 541 357 531 q 306 551 336 551 q 264 541 275 551 q 250 494 253 531 q 247 354 247 457 q 250 215 247 251 q 264 167 253 178 q 306 157 275 157 m 99 850 l 99 863 l 201 1032 l 401 1032 l 507 863 l 507 850 l 368 850 l 301 940 l 238 850 l 99 850 m 526 1272 q 521 1162 526 1199 q 492 1103 515 1125 q 417 1082 468 1082 q 293 1103 371 1082 q 260 1110 285 1104 q 222 1117 236 1117 q 201 1106 206 1117 q 197 1067 197 1096 l 82 1067 q 88 1176 82 1140 q 117 1234 93 1213 q 193 1256 140 1256 q 317 1235 239 1256 q 388 1222 369 1222 q 408 1232 404 1222 q 411 1272 411 1242 l 526 1272 z "},"ȍ":{"ha":610,"x_min":40,"x_max":569,"o":"m 306 -11 q 127 19 182 -11 q 56 122 72 50 q 40 354 40 194 q 56 586 40 514 q 127 689 72 658 q 306 719 182 719 q 483 689 429 719 q 553 586 538 658 q 569 354 569 514 q 553 122 569 194 q 483 19 538 50 q 306 -11 429 -11 m 306 157 q 347 167 336 157 q 360 215 357 178 q 364 354 364 253 q 360 493 364 456 q 347 541 357 531 q 306 551 336 551 q 264 541 275 551 q 250 494 253 531 q 247 354 247 457 q 250 215 247 251 q 264 167 253 178 q 306 157 275 157 m 272 849 l 139 849 l 50 1008 l 50 1014 l 213 1014 l 272 854 l 272 849 m 479 849 l 346 849 l 257 1008 l 257 1014 l 421 1014 l 479 854 l 479 849 z "},"ö":{"ha":610,"x_min":40,"x_max":569,"o":"m 306 -11 q 127 19 182 -11 q 56 122 72 50 q 40 354 40 194 q 56 586 40 514 q 127 689 72 658 q 306 719 182 719 q 483 689 429 719 q 553 586 538 658 q 569 354 569 514 q 553 122 569 194 q 483 19 538 50 q 306 -11 429 -11 m 306 157 q 347 167 336 157 q 360 215 357 178 q 364 354 364 253 q 360 493 364 456 q 347 541 357 531 q 306 551 336 551 q 264 541 275 551 q 250 494 253 531 q 247 354 247 457 q 250 215 247 251 q 264 167 253 178 q 306 157 275 157 m 97 860 l 97 1013 l 271 1013 l 271 860 l 97 860 m 343 860 l 343 1013 l 517 1013 l 517 860 l 343 860 z "},"ọ":{"ha":610,"x_min":40,"x_max":569,"o":"m 306 -11 q 127 19 182 -11 q 56 122 72 50 q 40 354 40 194 q 56 586 40 514 q 127 689 72 658 q 306 719 182 719 q 483 689 429 719 q 553 586 538 658 q 569 354 569 514 q 553 122 569 194 q 483 19 538 50 q 306 -11 429 -11 m 306 157 q 347 167 336 157 q 360 215 357 178 q 364 354 364 253 q 360 493 364 456 q 347 541 357 531 q 306 551 336 551 q 264 541 275 551 q 250 494 253 531 q 247 354 247 457 q 250 215 247 251 q 264 167 253 178 q 306 157 275 157 m 194 -285 l 194 -86 l 415 -86 l 415 -285 l 194 -285 z "},"ò":{"ha":610,"x_min":40,"x_max":569,"o":"m 306 -11 q 127 19 182 -11 q 56 122 72 50 q 40 354 40 194 q 56 586 40 514 q 127 689 72 658 q 306 719 182 719 q 483 689 429 719 q 553 586 538 658 q 569 354 569 514 q 553 122 569 194 q 483 19 538 50 q 306 -11 429 -11 m 306 157 q 347 167 336 157 q 360 215 357 178 q 364 354 364 253 q 360 493 364 456 q 347 541 357 531 q 306 551 336 551 q 264 541 275 551 q 250 494 253 531 q 247 354 247 457 q 250 215 247 251 q 264 167 253 178 q 306 157 275 157 m 229 828 l 118 1025 l 118 1032 l 318 1032 l 392 835 l 392 828 l 229 828 z "},"ỏ":{"ha":610,"x_min":40,"x_max":569,"o":"m 306 -11 q 127 19 182 -11 q 56 122 72 50 q 40 354 40 194 q 56 586 40 514 q 127 689 72 658 q 306 719 182 719 q 483 689 429 719 q 553 586 538 658 q 569 354 569 514 q 553 122 569 194 q 483 19 538 50 q 306 -11 429 -11 m 306 157 q 347 167 336 157 q 360 215 357 178 q 364 354 364 253 q 360 493 364 456 q 347 541 357 531 q 306 551 336 551 q 264 541 275 551 q 250 494 253 531 q 247 354 247 457 q 250 215 247 251 q 264 167 253 178 q 306 157 275 157 m 204 881 q 216 933 204 917 q 258 958 228 949 l 274 964 q 322 985 311 978 q 333 1006 333 992 q 322 1026 333 1022 q 275 1029 311 1029 q 133 1025 200 1029 l 133 1135 q 299 1153 221 1153 q 432 1129 386 1153 q 478 1032 478 1106 q 463 955 478 979 q 400 913 447 931 l 383 904 q 344 887 354 893 q 331 874 333 881 q 328 851 328 867 l 204 851 l 204 881 z "},"ơ":{"ha":610,"x_min":40,"x_max":643,"o":"m 643 833 l 643 808 q 635 713 643 747 q 606 658 628 679 q 539 629 583 638 q 563 527 557 590 q 569 354 569 464 q 553 122 569 194 q 483 19 538 50 q 306 -11 429 -11 q 127 19 182 -11 q 56 122 72 50 q 40 354 40 194 q 56 586 40 514 q 127 689 72 658 q 306 719 182 719 q 431 708 386 719 q 494 724 479 708 q 510 785 510 740 l 510 833 l 643 833 m 306 157 q 347 167 336 157 q 360 215 357 178 q 364 354 364 253 q 360 493 364 456 q 347 541 357 531 q 306 551 336 551 q 264 541 275 551 q 250 494 253 531 q 247 354 247 457 q 250 215 247 251 q 264 167 253 178 q 306 157 275 157 z "},"ớ":{"ha":610,"x_min":40,"x_max":643,"o":"m 643 833 l 643 808 q 635 713 643 747 q 606 658 628 679 q 539 629 583 638 q 563 527 557 590 q 569 354 569 464 q 553 122 569 194 q 483 19 538 50 q 306 -11 429 -11 q 127 19 182 -11 q 56 122 72 50 q 40 354 40 194 q 56 586 40 514 q 127 689 72 658 q 306 719 182 719 q 431 708 386 719 q 494 724 479 708 q 510 785 510 740 l 510 833 l 643 833 m 306 157 q 347 167 336 157 q 360 215 357 178 q 364 354 364 253 q 360 493 364 456 q 347 541 357 531 q 306 551 336 551 q 264 541 275 551 q 250 494 253 531 q 247 354 247 457 q 250 215 247 251 q 264 167 253 178 q 306 157 275 157 m 219 828 l 219 835 l 293 1032 l 493 1032 l 493 1025 l 382 828 l 219 828 z "},"ợ":{"ha":610,"x_min":40,"x_max":643,"o":"m 643 833 l 643 808 q 635 713 643 747 q 606 658 628 679 q 539 629 583 638 q 563 527 557 590 q 569 354 569 464 q 553 122 569 194 q 483 19 538 50 q 306 -11 429 -11 q 127 19 182 -11 q 56 122 72 50 q 40 354 40 194 q 56 586 40 514 q 127 689 72 658 q 306 719 182 719 q 431 708 386 719 q 494 724 479 708 q 510 785 510 740 l 510 833 l 643 833 m 306 157 q 347 167 336 157 q 360 215 357 178 q 364 354 364 253 q 360 493 364 456 q 347 541 357 531 q 306 551 336 551 q 264 541 275 551 q 250 494 253 531 q 247 354 247 457 q 250 215 247 251 q 264 167 253 178 q 306 157 275 157 m 194 -285 l 194 -86 l 415 -86 l 415 -285 l 194 -285 z "},"ờ":{"ha":610,"x_min":40,"x_max":643,"o":"m 643 833 l 643 808 q 635 713 643 747 q 606 658 628 679 q 539 629 583 638 q 563 527 557 590 q 569 354 569 464 q 553 122 569 194 q 483 19 538 50 q 306 -11 429 -11 q 127 19 182 -11 q 56 122 72 50 q 40 354 40 194 q 56 586 40 514 q 127 689 72 658 q 306 719 182 719 q 431 708 386 719 q 494 724 479 708 q 510 785 510 740 l 510 833 l 643 833 m 306 157 q 347 167 336 157 q 360 215 357 178 q 364 354 364 253 q 360 493 364 456 q 347 541 357 531 q 306 551 336 551 q 264 541 275 551 q 250 494 253 531 q 247 354 247 457 q 250 215 247 251 q 264 167 253 178 q 306 157 275 157 m 224 828 l 113 1025 l 113 1032 l 313 1032 l 386 835 l 386 828 l 224 828 z "},"ở":{"ha":610,"x_min":40,"x_max":643,"o":"m 643 833 l 643 808 q 635 713 643 747 q 606 658 628 679 q 539 629 583 638 q 563 527 557 590 q 569 354 569 464 q 553 122 569 194 q 483 19 538 50 q 306 -11 429 -11 q 127 19 182 -11 q 56 122 72 50 q 40 354 40 194 q 56 586 40 514 q 127 689 72 658 q 306 719 182 719 q 431 708 386 719 q 494 724 479 708 q 510 785 510 740 l 510 833 l 643 833 m 306 157 q 347 167 336 157 q 360 215 357 178 q 364 354 364 253 q 360 493 364 456 q 347 541 357 531 q 306 551 336 551 q 264 541 275 551 q 250 494 253 531 q 247 354 247 457 q 250 215 247 251 q 264 167 253 178 q 306 157 275 157 m 204 881 q 216 933 204 917 q 258 958 228 949 l 274 964 q 322 985 311 978 q 333 1006 333 992 q 322 1026 333 1022 q 275 1029 311 1029 q 133 1025 200 1029 l 133 1135 q 299 1153 221 1153 q 432 1129 386 1153 q 478 1032 478 1106 q 463 955 478 979 q 400 913 447 931 l 383 904 q 344 887 354 893 q 331 874 333 881 q 328 851 328 867 l 204 851 l 204 881 z "},"ỡ":{"ha":610,"x_min":40,"x_max":643,"o":"m 643 833 l 643 808 q 635 713 643 747 q 606 658 628 679 q 539 629 583 638 q 563 527 557 590 q 569 354 569 464 q 553 122 569 194 q 483 19 538 50 q 306 -11 429 -11 q 127 19 182 -11 q 56 122 72 50 q 40 354 40 194 q 56 586 40 514 q 127 689 72 658 q 306 719 182 719 q 431 708 386 719 q 494 724 479 708 q 510 785 510 740 l 510 833 l 643 833 m 306 157 q 347 167 336 157 q 360 215 357 178 q 364 354 364 253 q 360 493 364 456 q 347 541 357 531 q 306 551 336 551 q 264 541 275 551 q 250 494 253 531 q 247 354 247 457 q 250 215 247 251 q 264 167 253 178 q 306 157 275 157 m 526 1032 q 521 922 526 958 q 492 863 515 885 q 417 842 468 842 q 293 863 371 842 q 260 870 285 864 q 222 876 236 876 q 201 866 206 876 q 197 826 197 856 l 82 826 q 88 936 82 900 q 117 994 93 972 q 193 1015 140 1015 q 317 994 239 1015 q 388 982 369 982 q 408 992 404 982 q 411 1032 411 1001 l 526 1032 z "},"ő":{"ha":610,"x_min":40,"x_max":572,"o":"m 306 -11 q 127 19 182 -11 q 56 122 72 50 q 40 354 40 194 q 56 586 40 514 q 127 689 72 658 q 306 719 182 719 q 483 689 429 719 q 553 586 538 658 q 569 354 569 514 q 553 122 569 194 q 483 19 538 50 q 306 -11 429 -11 m 306 157 q 347 167 336 157 q 360 215 357 178 q 364 354 364 253 q 360 493 364 456 q 347 541 357 531 q 306 551 336 551 q 264 541 275 551 q 250 494 253 531 q 247 354 247 457 q 250 215 247 251 q 264 167 253 178 q 306 157 275 157 m 143 849 l 143 854 l 201 1014 l 365 1014 l 365 1008 l 276 849 l 143 849 m 350 849 l 350 854 l 410 1014 l 572 1014 l 572 1008 l 483 849 l 350 849 z "},"ȏ":{"ha":610,"x_min":40,"x_max":569,"o":"m 306 -11 q 127 19 182 -11 q 56 122 72 50 q 40 354 40 194 q 56 586 40 514 q 127 689 72 658 q 306 719 182 719 q 483 689 429 719 q 553 586 538 658 q 569 354 569 514 q 553 122 569 194 q 483 19 538 50 q 306 -11 429 -11 m 306 157 q 347 167 336 157 q 360 215 357 178 q 364 354 364 253 q 360 493 364 456 q 347 541 357 531 q 306 551 336 551 q 264 541 275 551 q 250 494 253 531 q 247 354 247 457 q 250 215 247 251 q 264 167 253 178 q 306 157 275 157 m 117 851 q 131 953 117 913 q 186 1017 144 993 q 306 1040 228 1040 q 424 1017 383 1040 q 479 953 465 993 q 493 851 493 913 l 371 851 q 367 892 371 878 q 350 916 364 907 q 306 925 336 925 q 250 908 261 925 q 239 851 239 890 l 117 851 z "},"ō":{"ha":610,"x_min":40,"x_max":569,"o":"m 306 -11 q 127 19 182 -11 q 56 122 72 50 q 40 354 40 194 q 56 586 40 514 q 127 689 72 658 q 306 719 182 719 q 483 689 429 719 q 553 586 538 658 q 569 354 569 514 q 553 122 569 194 q 483 19 538 50 q 306 -11 429 -11 m 306 157 q 347 167 336 157 q 360 215 357 178 q 364 354 364 253 q 360 493 364 456 q 347 541 357 531 q 306 551 336 551 q 264 541 275 551 q 250 494 253 531 q 247 354 247 457 q 250 215 247 251 q 264 167 253 178 q 306 157 275 157 m 160 853 l 160 1032 l 450 1032 l 450 853 l 160 853 z "},"ǫ":{"ha":610,"x_min":40,"x_max":569,"o":"m 306 719 q 483 689 429 719 q 553 586 538 658 q 569 354 569 514 q 556 134 569 204 q 497 29 543 64 q 442 -35 463 1 q 422 -112 422 -72 q 475 -162 422 -162 q 492 -161 485 -162 l 492 -267 q 413 -272 453 -272 q 297 -238 332 -272 q 263 -151 263 -204 q 313 -11 263 -85 l 303 -11 q 125 21 179 -10 q 56 123 71 51 q 40 354 40 194 q 56 586 40 514 q 127 689 72 658 q 306 719 182 719 m 247 354 q 250 215 247 251 q 264 167 253 178 q 306 157 275 157 q 347 167 336 157 q 360 215 357 178 q 364 354 364 253 q 360 493 364 456 q 347 541 357 531 q 306 551 336 551 q 264 541 275 551 q 250 494 253 531 q 247 354 247 457 z "},"ø":{"ha":610,"x_min":40,"x_max":569,"o":"m 92 49 q 50 154 60 86 q 40 354 40 222 q 56 586 40 514 q 127 689 72 658 q 306 719 182 719 q 364 717 346 719 l 392 785 l 569 785 l 519 658 q 560 553 550 621 q 569 354 569 486 q 553 122 569 194 q 483 19 538 50 q 306 -11 429 -11 q 246 -8 263 -11 l 218 -76 l 40 -76 l 92 49 m 306 157 q 347 167 336 157 q 360 215 357 178 q 364 354 364 253 q 360 493 364 456 q 347 541 357 531 q 306 551 336 551 q 264 541 275 551 q 250 494 253 531 q 247 354 247 457 q 250 215 247 251 q 264 167 253 178 q 306 157 275 157 z "},"ǿ":{"ha":610,"x_min":40,"x_max":569,"o":"m 92 49 q 50 154 60 86 q 40 354 40 222 q 56 586 40 514 q 127 689 72 658 q 306 719 182 719 q 364 717 346 719 l 392 785 l 569 785 l 519 658 q 560 553 550 621 q 569 354 569 486 q 553 122 569 194 q 483 19 538 50 q 306 -11 429 -11 q 246 -8 263 -11 l 218 -76 l 40 -76 l 92 49 m 306 157 q 347 167 336 157 q 360 215 357 178 q 364 354 364 253 q 360 493 364 456 q 347 541 357 531 q 306 551 336 551 q 264 541 275 551 q 250 494 253 531 q 247 354 247 457 q 250 215 247 251 q 264 167 253 178 q 306 157 275 157 m 219 828 l 219 835 l 293 1032 l 493 1032 l 493 1025 l 382 828 l 219 828 z "},"õ":{"ha":610,"x_min":40,"x_max":569,"o":"m 306 -11 q 127 19 182 -11 q 56 122 72 50 q 40 354 40 194 q 56 586 40 514 q 127 689 72 658 q 306 719 182 719 q 483 689 429 719 q 553 586 538 658 q 569 354 569 514 q 553 122 569 194 q 483 19 538 50 q 306 -11 429 -11 m 306 157 q 347 167 336 157 q 360 215 357 178 q 364 354 364 253 q 360 493 364 456 q 347 541 357 531 q 306 551 336 551 q 264 541 275 551 q 250 494 253 531 q 247 354 247 457 q 250 215 247 251 q 264 167 253 178 q 306 157 275 157 m 529 1032 q 524 922 529 958 q 494 863 518 885 q 419 842 471 842 q 296 863 374 842 q 263 870 288 864 q 225 876 239 876 q 204 866 208 876 q 200 826 200 856 l 85 826 q 90 936 85 900 q 119 994 96 972 q 196 1015 143 1015 q 319 994 242 1015 q 390 982 372 982 q 410 992 407 982 q 414 1032 414 1001 l 529 1032 z "},"œ":{"ha":918,"x_min":40,"x_max":875,"o":"m 875 297 l 571 297 q 577 199 571 225 q 606 165 583 172 q 690 157 628 157 q 860 164 783 157 l 860 10 q 763 -6 822 0 q 644 -11 703 -11 q 472 31 532 -11 q 303 -11 417 -11 q 126 19 181 -11 q 56 122 71 50 q 40 354 40 194 q 56 586 40 514 q 126 689 71 658 q 303 719 181 719 q 472 676 418 719 q 632 719 528 719 q 801 684 750 719 q 863 579 851 649 q 875 353 875 510 l 875 297 m 626 556 q 589 548 600 556 q 574 513 578 540 q 571 422 571 486 l 683 422 q 679 514 683 488 q 665 548 675 540 q 626 556 654 556 m 306 157 q 347 167 336 157 q 360 215 357 178 q 364 354 364 253 q 360 493 364 456 q 347 541 357 531 q 306 551 336 551 q 264 541 275 551 q 250 494 253 531 q 247 354 247 457 q 250 215 247 251 q 264 167 253 178 q 306 157 275 157 z "},"p":{"ha":625,"x_min":56,"x_max":583,"o":"m 56 708 l 254 708 l 260 628 l 272 628 q 325 699 288 678 q 411 719 363 719 q 513 688 476 719 q 567 579 550 657 q 583 356 583 501 q 568 135 583 214 q 516 23 553 57 q 413 -11 479 -11 q 326 9 361 -11 q 274 74 292 29 l 263 74 l 263 -275 l 56 -275 l 56 708 m 319 169 q 360 178 350 169 q 374 223 371 188 q 378 354 378 258 q 374 485 378 450 q 360 530 371 521 q 319 539 350 539 q 285 531 296 539 q 268 499 274 524 q 263 444 264 482 q 263 354 263 406 q 267 215 263 236 q 284 178 272 188 q 319 169 296 169 z "},"þ":{"ha":625,"x_min":56,"x_max":583,"o":"m 56 1032 l 263 1032 l 263 628 l 275 628 q 411 719 303 719 q 513 688 476 719 q 567 579 550 657 q 583 356 583 501 q 568 135 583 214 q 516 23 553 57 q 413 -11 479 -11 q 326 9 361 -11 q 274 74 292 29 l 263 74 l 263 -262 l 56 -262 l 56 1032 m 319 169 q 360 178 350 169 q 374 223 371 188 q 378 354 378 258 q 374 485 378 450 q 360 530 371 521 q 319 539 350 539 q 283 530 293 539 q 268 489 272 521 q 263 354 263 463 q 265 226 263 249 q 282 180 271 190 q 319 169 293 169 z "},"q":{"ha":625,"x_min":40,"x_max":569,"o":"m 363 74 l 350 74 q 213 -11 317 -11 q 109 22 146 -11 q 56 134 72 56 q 40 354 40 213 q 57 578 40 500 q 110 688 74 657 q 214 719 147 719 q 299 699 261 719 q 353 628 336 678 l 365 628 l 371 708 l 569 708 l 569 -275 l 363 -275 l 363 74 m 304 169 q 339 176 328 169 q 356 207 350 183 q 363 354 363 233 q 354 504 363 471 q 338 533 349 526 q 304 539 328 539 q 265 530 275 539 q 251 485 254 521 q 247 354 247 450 q 251 223 247 258 q 265 178 254 188 q 304 169 275 169 z "},"r":{"ha":450,"x_min":56,"x_max":432,"o":"m 56 708 l 254 708 l 260 594 l 271 594 q 331 692 293 664 q 432 719 368 719 l 432 510 q 335 494 371 510 q 281 437 299 479 q 263 315 263 394 l 263 0 l 56 0 l 56 708 z "},"ŕ":{"ha":450,"x_min":56,"x_max":432,"o":"m 56 708 l 254 708 l 260 594 l 271 594 q 331 692 293 664 q 432 719 368 719 l 432 510 q 335 494 371 510 q 281 437 299 479 q 263 315 263 394 l 263 0 l 56 0 l 56 708 m 139 828 l 139 835 l 213 1032 l 413 1032 l 413 1025 l 301 828 l 139 828 z "},"ř":{"ha":450,"x_min":21,"x_max":432,"o":"m 56 708 l 254 708 l 260 594 l 271 594 q 331 692 293 664 q 432 719 368 719 l 432 510 q 335 494 371 510 q 281 437 299 479 q 263 315 263 394 l 263 0 l 56 0 l 56 708 m 124 850 l 21 1021 l 21 1032 l 160 1032 l 225 942 l 290 1032 l 429 1032 l 429 1021 l 324 850 l 124 850 z "},"ŗ":{"ha":450,"x_min":56,"x_max":432,"o":"m 56 708 l 254 708 l 260 594 l 271 594 q 331 692 293 664 q 432 719 368 719 l 432 510 q 335 494 371 510 q 281 437 299 479 q 263 315 263 394 l 263 0 l 56 0 l 56 708 m 56 -315 q 117 -303 103 -315 q 132 -253 132 -290 l 132 -236 l 56 -236 l 56 -85 l 264 -85 l 264 -178 q 250 -317 264 -272 q 193 -382 236 -362 q 56 -401 150 -401 l 56 -315 z "},"ȑ":{"ha":450,"x_min":-31,"x_max":432,"o":"m 56 708 l 254 708 l 260 594 l 271 594 q 331 692 293 664 q 432 719 368 719 l 432 510 q 335 494 371 510 q 281 437 299 479 q 263 315 263 394 l 263 0 l 56 0 l 56 708 m 192 849 l 58 849 l -31 1008 l -31 1014 l 132 1014 l 192 854 l 192 849 m 399 849 l 265 849 l 176 1008 l 176 1014 l 340 1014 l 399 854 l 399 849 z "},"ṛ":{"ha":450,"x_min":47,"x_max":432,"o":"m 56 708 l 254 708 l 260 594 l 271 594 q 331 692 293 664 q 432 719 368 719 l 432 510 q 335 494 371 510 q 281 437 299 479 q 263 315 263 394 l 263 0 l 56 0 l 56 708 m 47 -285 l 47 -86 l 268 -86 l 268 -285 l 47 -285 z "},"ȓ":{"ha":450,"x_min":36,"x_max":432,"o":"m 56 708 l 254 708 l 260 594 l 271 594 q 331 692 293 664 q 432 719 368 719 l 432 510 q 335 494 371 510 q 281 437 299 479 q 263 315 263 394 l 263 0 l 56 0 l 56 708 m 36 851 q 50 953 36 913 q 106 1017 64 993 q 225 1040 147 1040 q 344 1017 303 1040 q 399 953 385 993 q 413 851 413 913 l 290 851 q 287 892 290 878 q 269 916 283 907 q 225 925 256 925 q 169 908 181 925 q 158 851 158 890 l 36 851 z "},"s":{"ha":517,"x_min":28,"x_max":490,"o":"m 263 -11 q 149 -5 211 -11 q 44 11 88 1 l 44 164 q 194 156 139 156 q 256 159 238 156 q 283 174 275 163 q 292 210 292 185 q 288 247 292 236 q 275 262 285 257 q 240 271 265 267 l 126 290 q 50 347 72 299 q 28 503 28 396 q 89 671 28 622 q 267 719 150 719 q 369 713 315 719 q 456 697 422 707 l 456 543 q 314 553 371 553 q 260 549 278 553 q 237 535 243 544 q 231 503 231 525 q 237 460 231 468 q 272 446 243 451 l 369 431 q 432 408 407 424 q 474 349 457 392 q 490 224 490 306 q 463 79 490 131 q 387 8 436 28 q 263 -11 338 -11 z "},"ś":{"ha":517,"x_min":28,"x_max":490,"o":"m 263 -11 q 149 -5 211 -11 q 44 11 88 1 l 44 164 q 194 156 139 156 q 256 159 238 156 q 283 174 275 163 q 292 210 292 185 q 288 247 292 236 q 275 262 285 257 q 240 271 265 267 l 126 290 q 50 347 72 299 q 28 503 28 396 q 89 671 28 622 q 267 719 150 719 q 369 713 315 719 q 456 697 422 707 l 456 543 q 314 553 371 553 q 260 549 278 553 q 237 535 243 544 q 231 503 231 525 q 237 460 231 468 q 272 446 243 451 l 369 431 q 432 408 407 424 q 474 349 457 392 q 490 224 490 306 q 463 79 490 131 q 387 8 436 28 q 263 -11 338 -11 m 172 828 l 172 835 l 246 1032 l 446 1032 l 446 1025 l 335 828 l 172 828 z "},"ꞌ":{"ha":257,"x_min":33,"x_max":224,"o":"m 33 365 l 33 1032 l 224 1032 l 224 725 l 182 365 l 33 365 z "},"š":{"ha":517,"x_min":28,"x_max":490,"o":"m 263 -11 q 149 -5 211 -11 q 44 11 88 1 l 44 164 q 194 156 139 156 q 256 159 238 156 q 283 174 275 163 q 292 210 292 185 q 288 247 292 236 q 275 262 285 257 q 240 271 265 267 l 126 290 q 50 347 72 299 q 28 503 28 396 q 89 671 28 622 q 267 719 150 719 q 369 713 315 719 q 456 697 422 707 l 456 543 q 314 553 371 553 q 260 549 278 553 q 237 535 243 544 q 231 503 231 525 q 237 460 231 468 q 272 446 243 451 l 369 431 q 432 408 407 424 q 474 349 457 392 q 490 224 490 306 q 463 79 490 131 q 387 8 436 28 q 263 -11 338 -11 m 163 850 l 60 1021 l 60 1032 l 199 1032 l 264 942 l 329 1032 l 468 1032 l 468 1021 l 363 850 l 163 850 z "},"ş":{"ha":517,"x_min":28,"x_max":490,"o":"m 490 224 q 449 56 490 108 q 326 -7 408 4 l 281 -262 l 103 -262 l 103 -256 l 189 -8 q 44 11 104 -1 l 44 164 q 194 156 139 156 q 256 159 238 156 q 283 174 275 163 q 292 210 292 185 q 288 247 292 236 q 275 262 285 257 q 240 271 265 267 l 126 290 q 50 347 72 299 q 28 503 28 396 q 89 671 28 622 q 267 719 150 719 q 369 713 315 719 q 456 697 422 707 l 456 543 q 314 553 371 553 q 260 549 278 553 q 237 535 243 544 q 231 503 231 525 q 237 460 231 468 q 272 446 243 451 l 369 431 q 432 408 407 424 q 474 349 457 392 q 490 224 490 306 z "},"ŝ":{"ha":517,"x_min":28,"x_max":490,"o":"m 263 -11 q 149 -5 211 -11 q 44 11 88 1 l 44 164 q 194 156 139 156 q 256 159 238 156 q 283 174 275 163 q 292 210 292 185 q 288 247 292 236 q 275 262 285 257 q 240 271 265 267 l 126 290 q 50 347 72 299 q 28 503 28 396 q 89 671 28 622 q 267 719 150 719 q 369 713 315 719 q 456 697 422 707 l 456 543 q 314 553 371 553 q 260 549 278 553 q 237 535 243 544 q 231 503 231 525 q 237 460 231 468 q 272 446 243 451 l 369 431 q 432 408 407 424 q 474 349 457 392 q 490 224 490 306 q 463 79 490 131 q 387 8 436 28 q 263 -11 338 -11 m 54 850 l 54 863 l 157 1032 l 357 1032 l 463 863 l 463 850 l 324 850 l 257 940 l 193 850 l 54 850 z "},"ș":{"ha":517,"x_min":28,"x_max":490,"o":"m 263 -11 q 149 -5 211 -11 q 44 11 88 1 l 44 164 q 194 156 139 156 q 256 159 238 156 q 283 174 275 163 q 292 210 292 185 q 288 247 292 236 q 275 262 285 257 q 240 271 265 267 l 126 290 q 50 347 72 299 q 28 503 28 396 q 89 671 28 622 q 267 719 150 719 q 369 713 315 719 q 456 697 422 707 l 456 543 q 314 553 371 553 q 260 549 278 553 q 237 535 243 544 q 231 503 231 525 q 237 460 231 468 q 272 446 243 451 l 369 431 q 432 408 407 424 q 474 349 457 392 q 490 224 490 306 q 463 79 490 131 q 387 8 436 28 q 263 -11 338 -11 m 156 -315 q 217 -303 203 -315 q 232 -253 232 -290 l 232 -236 l 156 -236 l 156 -85 l 364 -85 l 364 -178 q 350 -317 364 -272 q 293 -382 336 -362 q 156 -401 250 -401 l 156 -315 z "},"ṣ":{"ha":517,"x_min":28,"x_max":490,"o":"m 263 -11 q 149 -5 211 -11 q 44 11 88 1 l 44 164 q 194 156 139 156 q 256 159 238 156 q 283 174 275 163 q 292 210 292 185 q 288 247 292 236 q 275 262 285 257 q 240 271 265 267 l 126 290 q 50 347 72 299 q 28 503 28 396 q 89 671 28 622 q 267 719 150 719 q 369 713 315 719 q 456 697 422 707 l 456 543 q 314 553 371 553 q 260 549 278 553 q 237 535 243 544 q 231 503 231 525 q 237 460 231 468 q 272 446 243 451 l 369 431 q 432 408 407 424 q 474 349 457 392 q 490 224 490 306 q 463 79 490 131 q 387 8 436 28 q 263 -11 338 -11 m 147 -285 l 147 -86 l 368 -86 l 368 -285 l 147 -285 z "},"ß":{"ha":638,"x_min":56,"x_max":597,"o":"m 317 0 l 317 168 l 328 168 q 370 177 358 168 q 385 223 382 186 q 389 356 389 260 q 384 472 389 438 q 367 516 379 507 q 325 525 356 525 l 317 525 l 317 693 l 325 693 q 363 699 351 693 q 377 722 374 704 q 381 783 381 740 q 376 843 381 824 q 359 868 371 863 q 324 874 347 874 q 285 866 297 874 q 267 833 272 858 q 263 750 263 807 l 263 0 l 56 0 l 56 756 q 80 919 56 857 q 162 1011 104 981 q 322 1042 219 1042 q 529 987 468 1042 q 590 814 590 932 q 559 680 590 728 q 460 618 528 632 l 460 613 q 565 535 532 596 q 597 340 597 474 q 578 144 597 215 q 503 36 558 72 q 343 0 449 0 l 317 0 z "},"ſ":{"ha":429,"x_min":18,"x_max":425,"o":"m 103 540 l 18 540 l 18 708 l 103 708 l 103 733 q 126 939 103 879 q 211 1015 149 999 q 425 1032 274 1032 l 425 883 q 346 877 368 883 q 317 850 324 871 q 310 778 310 829 l 310 0 l 103 0 l 103 540 z "},"t":{"ha":438,"x_min":18,"x_max":419,"o":"m 101 0 l 101 540 l 18 540 l 18 708 l 101 708 l 101 914 l 310 914 l 310 708 l 419 708 l 419 540 l 310 540 l 310 0 l 101 0 z "},"ŧ":{"ha":438,"x_min":18,"x_max":419,"o":"m 419 540 l 310 540 l 310 433 l 419 433 l 419 269 l 310 269 l 310 0 l 101 0 l 101 269 l 18 269 l 18 433 l 101 433 l 101 540 l 18 540 l 18 708 l 101 708 l 101 914 l 310 914 l 310 708 l 419 708 l 419 540 z "},"ť":{"ha":611,"x_min":18,"x_max":672,"o":"m 101 0 l 101 540 l 18 540 l 18 708 l 101 708 l 101 914 l 310 914 l 310 708 l 419 708 l 419 540 l 310 540 l 310 0 l 101 0 m 461 588 l 482 889 l 482 956 l 672 956 l 672 889 l 610 588 l 461 588 z "},"ţ":{"ha":438,"x_min":18,"x_max":419,"o":"m 310 708 l 419 708 l 419 540 l 310 540 l 310 0 l 274 0 l 228 -262 l 50 -262 l 50 -256 l 139 0 l 101 0 l 101 540 l 18 540 l 18 708 l 101 708 l 101 914 l 310 914 l 310 708 z "},"ț":{"ha":438,"x_min":18,"x_max":419,"o":"m 101 0 l 101 540 l 18 540 l 18 708 l 101 708 l 101 914 l 310 914 l 310 708 l 419 708 l 419 540 l 310 540 l 310 0 l 101 0 m 103 -315 q 165 -303 150 -315 q 179 -253 179 -290 l 179 -236 l 103 -236 l 103 -85 l 311 -85 l 311 -178 q 297 -317 311 -272 q 240 -382 283 -362 q 103 -401 197 -401 l 103 -315 z "},"ṭ":{"ha":438,"x_min":18,"x_max":419,"o":"m 101 0 l 101 540 l 18 540 l 18 708 l 101 708 l 101 914 l 310 914 l 310 708 l 419 708 l 419 540 l 310 540 l 310 0 l 101 0 m 94 -285 l 94 -86 l 315 -86 l 315 -285 l 94 -285 z "},"u":{"ha":629,"x_min":53,"x_max":574,"o":"m 371 82 l 358 82 q 208 -11 322 -11 q 109 15 143 -11 q 64 94 75 42 q 53 240 53 146 l 53 708 l 260 708 l 260 328 q 263 217 260 247 q 276 178 267 186 q 313 169 286 169 q 351 181 340 169 q 364 225 361 192 q 367 350 367 258 l 367 708 l 574 708 l 574 0 l 376 0 l 371 82 z "},"ú":{"ha":629,"x_min":53,"x_max":574,"o":"m 371 82 l 358 82 q 208 -11 322 -11 q 109 15 143 -11 q 64 94 75 42 q 53 240 53 146 l 53 708 l 260 708 l 260 328 q 263 217 260 247 q 276 178 267 186 q 313 169 286 169 q 351 181 340 169 q 364 225 361 192 q 367 350 367 258 l 367 708 l 574 708 l 574 0 l 376 0 l 371 82 m 229 828 l 229 835 l 303 1032 l 503 1032 l 503 1025 l 392 828 l 229 828 z "},"ŭ":{"ha":629,"x_min":53,"x_max":574,"o":"m 371 82 l 358 82 q 208 -11 322 -11 q 109 15 143 -11 q 64 94 75 42 q 53 240 53 146 l 53 708 l 260 708 l 260 328 q 263 217 260 247 q 276 178 267 186 q 313 169 286 169 q 351 181 340 169 q 364 225 361 192 q 367 350 367 258 l 367 708 l 574 708 l 574 0 l 376 0 l 371 82 m 503 1032 q 489 931 503 971 q 433 867 475 890 q 314 843 392 843 q 195 867 236 843 q 140 931 154 890 q 126 1032 126 971 l 249 1032 q 252 991 249 1006 q 269 967 256 976 q 314 958 283 958 q 369 976 358 958 q 381 1032 381 993 l 503 1032 z "},"ǔ":{"ha":629,"x_min":53,"x_max":574,"o":"m 371 82 l 358 82 q 208 -11 322 -11 q 109 15 143 -11 q 64 94 75 42 q 53 240 53 146 l 53 708 l 260 708 l 260 328 q 263 217 260 247 q 276 178 267 186 q 313 169 286 169 q 351 181 340 169 q 364 225 361 192 q 367 350 367 258 l 367 708 l 574 708 l 574 0 l 376 0 l 371 82 m 214 850 l 111 1021 l 111 1032 l 250 1032 l 315 942 l 381 1032 l 519 1032 l 519 1021 l 414 850 l 214 850 z "},"û":{"ha":629,"x_min":53,"x_max":574,"o":"m 371 82 l 358 82 q 208 -11 322 -11 q 109 15 143 -11 q 64 94 75 42 q 53 240 53 146 l 53 708 l 260 708 l 260 328 q 263 217 260 247 q 276 178 267 186 q 313 169 286 169 q 351 181 340 169 q 364 225 361 192 q 367 350 367 258 l 367 708 l 574 708 l 574 0 l 376 0 l 371 82 m 110 850 l 110 863 l 213 1032 l 413 1032 l 518 863 l 518 850 l 379 850 l 313 940 l 249 850 l 110 850 z "},"ȕ":{"ha":629,"x_min":53,"x_max":574,"o":"m 371 82 l 358 82 q 208 -11 322 -11 q 109 15 143 -11 q 64 94 75 42 q 53 240 53 146 l 53 708 l 260 708 l 260 328 q 263 217 260 247 q 276 178 267 186 q 313 169 286 169 q 351 181 340 169 q 364 225 361 192 q 367 350 367 258 l 367 708 l 574 708 l 574 0 l 376 0 l 371 82 m 282 849 l 149 849 l 60 1008 l 60 1014 l 222 1014 l 282 854 l 282 849 m 489 849 l 356 849 l 267 1008 l 267 1014 l 431 1014 l 489 854 l 489 849 z "},"ü":{"ha":629,"x_min":53,"x_max":574,"o":"m 371 82 l 358 82 q 208 -11 322 -11 q 109 15 143 -11 q 64 94 75 42 q 53 240 53 146 l 53 708 l 260 708 l 260 328 q 263 217 260 247 q 276 178 267 186 q 313 169 286 169 q 351 181 340 169 q 364 225 361 192 q 367 350 367 258 l 367 708 l 574 708 l 574 0 l 376 0 l 371 82 m 104 860 l 104 1013 l 278 1013 l 278 860 l 104 860 m 350 860 l 350 1013 l 524 1013 l 524 860 l 350 860 z "},"ǘ":{"ha":629,"x_min":53,"x_max":574,"o":"m 371 82 l 358 82 q 208 -11 322 -11 q 109 15 143 -11 q 64 94 75 42 q 53 240 53 146 l 53 708 l 260 708 l 260 328 q 263 217 260 247 q 276 178 267 186 q 313 169 286 169 q 351 181 340 169 q 364 225 361 192 q 367 350 367 258 l 367 708 l 574 708 l 574 0 l 376 0 l 371 82 m 106 861 l 106 1014 l 279 1014 l 279 861 l 106 861 m 351 861 l 351 1014 l 525 1014 l 525 861 l 351 861 m 232 1050 l 232 1057 l 306 1254 l 506 1254 l 506 1247 l 394 1050 l 232 1050 z "},"ǚ":{"ha":629,"x_min":53,"x_max":574,"o":"m 371 82 l 358 82 q 208 -11 322 -11 q 109 15 143 -11 q 64 94 75 42 q 53 240 53 146 l 53 708 l 260 708 l 260 328 q 263 217 260 247 q 276 178 267 186 q 313 169 286 169 q 351 181 340 169 q 364 225 361 192 q 367 350 367 258 l 367 708 l 574 708 l 574 0 l 376 0 l 371 82 m 106 861 l 106 1014 l 279 1014 l 279 861 l 106 861 m 351 861 l 351 1014 l 525 1014 l 525 861 l 351 861 m 217 1072 l 114 1243 l 114 1254 l 253 1254 l 318 1164 l 383 1254 l 522 1254 l 522 1243 l 417 1072 l 217 1072 z "},"ǜ":{"ha":629,"x_min":53,"x_max":574,"o":"m 371 82 l 358 82 q 208 -11 322 -11 q 109 15 143 -11 q 64 94 75 42 q 53 240 53 146 l 53 708 l 260 708 l 260 328 q 263 217 260 247 q 276 178 267 186 q 313 169 286 169 q 351 181 340 169 q 364 225 361 192 q 367 350 367 258 l 367 708 l 574 708 l 574 0 l 376 0 l 371 82 m 106 861 l 106 1014 l 279 1014 l 279 861 l 106 861 m 351 861 l 351 1014 l 525 1014 l 525 861 l 351 861 m 236 1050 l 125 1247 l 125 1254 l 325 1254 l 399 1057 l 399 1050 l 236 1050 z "},"ǖ":{"ha":629,"x_min":53,"x_max":574,"o":"m 371 82 l 358 82 q 208 -11 322 -11 q 109 15 143 -11 q 64 94 75 42 q 53 240 53 146 l 53 708 l 260 708 l 260 328 q 263 217 260 247 q 276 178 267 186 q 313 169 286 169 q 351 181 340 169 q 364 225 361 192 q 367 350 367 258 l 367 708 l 574 708 l 574 0 l 376 0 l 371 82 m 106 861 l 106 1014 l 279 1014 l 279 861 l 106 861 m 351 861 l 351 1014 l 525 1014 l 525 861 l 351 861 m 172 1075 l 172 1254 l 463 1254 l 463 1075 l 172 1075 z "},"ụ":{"ha":629,"x_min":53,"x_max":574,"o":"m 371 82 l 358 82 q 208 -11 322 -11 q 109 15 143 -11 q 64 94 75 42 q 53 240 53 146 l 53 708 l 260 708 l 260 328 q 263 217 260 247 q 276 178 267 186 q 313 169 286 169 q 351 181 340 169 q 364 225 361 192 q 367 350 367 258 l 367 708 l 574 708 l 574 0 l 376 0 l 371 82 m 196 -285 l 196 -86 l 417 -86 l 417 -285 l 196 -285 z "},"ù":{"ha":629,"x_min":53,"x_max":574,"o":"m 371 82 l 358 82 q 208 -11 322 -11 q 109 15 143 -11 q 64 94 75 42 q 53 240 53 146 l 53 708 l 260 708 l 260 328 q 263 217 260 247 q 276 178 267 186 q 313 169 286 169 q 351 181 340 169 q 364 225 361 192 q 367 350 367 258 l 367 708 l 574 708 l 574 0 l 376 0 l 371 82 m 240 828 l 129 1025 l 129 1032 l 329 1032 l 403 835 l 403 828 l 240 828 z "},"ủ":{"ha":629,"x_min":53,"x_max":574,"o":"m 371 82 l 358 82 q 208 -11 322 -11 q 109 15 143 -11 q 64 94 75 42 q 53 240 53 146 l 53 708 l 260 708 l 260 328 q 263 217 260 247 q 276 178 267 186 q 313 169 286 169 q 351 181 340 169 q 364 225 361 192 q 367 350 367 258 l 367 708 l 574 708 l 574 0 l 376 0 l 371 82 m 214 881 q 226 933 214 917 q 268 958 238 949 l 283 964 q 332 985 321 978 q 343 1006 343 992 q 332 1026 343 1022 q 285 1029 321 1029 q 143 1025 210 1029 l 143 1135 q 308 1153 231 1153 q 442 1129 396 1153 q 488 1032 488 1106 q 472 955 488 979 q 410 913 457 931 l 393 904 q 353 887 364 893 q 340 874 343 881 q 338 851 338 867 l 214 851 l 214 881 z "},"ư":{"ha":629,"x_min":53,"x_max":663,"o":"m 663 833 l 663 808 q 646 686 663 724 q 574 633 629 649 l 574 0 l 376 0 l 371 82 l 358 82 q 208 -11 322 -11 q 109 15 143 -11 q 64 94 75 42 q 53 240 53 146 l 53 708 l 260 708 l 260 328 q 263 217 260 247 q 276 178 267 186 q 313 169 286 169 q 351 181 340 169 q 364 225 361 192 q 367 350 367 258 l 367 708 l 450 708 q 514 724 499 708 q 529 785 529 740 l 529 833 l 663 833 z "},"ứ":{"ha":629,"x_min":53,"x_max":663,"o":"m 663 833 l 663 808 q 646 686 663 724 q 574 633 629 649 l 574 0 l 376 0 l 371 82 l 358 82 q 208 -11 322 -11 q 109 15 143 -11 q 64 94 75 42 q 53 240 53 146 l 53 708 l 260 708 l 260 328 q 263 217 260 247 q 276 178 267 186 q 313 169 286 169 q 351 181 340 169 q 364 225 361 192 q 367 350 367 258 l 367 708 l 450 708 q 514 724 499 708 q 529 785 529 740 l 529 833 l 663 833 m 229 828 l 229 835 l 303 1032 l 503 1032 l 503 1025 l 392 828 l 229 828 z "},"ự":{"ha":629,"x_min":53,"x_max":663,"o":"m 663 833 l 663 808 q 646 686 663 724 q 574 633 629 649 l 574 0 l 376 0 l 371 82 l 358 82 q 208 -11 322 -11 q 109 15 143 -11 q 64 94 75 42 q 53 240 53 146 l 53 708 l 260 708 l 260 328 q 263 217 260 247 q 276 178 267 186 q 313 169 286 169 q 351 181 340 169 q 364 225 361 192 q 367 350 367 258 l 367 708 l 450 708 q 514 724 499 708 q 529 785 529 740 l 529 833 l 663 833 m 196 -285 l 196 -86 l 417 -86 l 417 -285 l 196 -285 z "},"ừ":{"ha":629,"x_min":53,"x_max":663,"o":"m 663 833 l 663 808 q 646 686 663 724 q 574 633 629 649 l 574 0 l 376 0 l 371 82 l 358 82 q 208 -11 322 -11 q 109 15 143 -11 q 64 94 75 42 q 53 240 53 146 l 53 708 l 260 708 l 260 328 q 263 217 260 247 q 276 178 267 186 q 313 169 286 169 q 351 181 340 169 q 364 225 361 192 q 367 350 367 258 l 367 708 l 450 708 q 514 724 499 708 q 529 785 529 740 l 529 833 l 663 833 m 233 828 l 122 1025 l 122 1032 l 322 1032 l 396 835 l 396 828 l 233 828 z "},"ử":{"ha":629,"x_min":53,"x_max":663,"o":"m 663 833 l 663 808 q 646 686 663 724 q 574 633 629 649 l 574 0 l 376 0 l 371 82 l 358 82 q 208 -11 322 -11 q 109 15 143 -11 q 64 94 75 42 q 53 240 53 146 l 53 708 l 260 708 l 260 328 q 263 217 260 247 q 276 178 267 186 q 313 169 286 169 q 351 181 340 169 q 364 225 361 192 q 367 350 367 258 l 367 708 l 450 708 q 514 724 499 708 q 529 785 529 740 l 529 833 l 663 833 m 214 881 q 226 933 214 917 q 268 958 238 949 l 283 964 q 332 985 321 978 q 343 1006 343 992 q 332 1026 343 1022 q 285 1029 321 1029 q 143 1025 210 1029 l 143 1135 q 308 1153 231 1153 q 442 1129 396 1153 q 488 1032 488 1106 q 472 955 488 979 q 410 913 457 931 l 393 904 q 353 887 364 893 q 340 874 343 881 q 338 851 338 867 l 214 851 l 214 881 z "},"ữ":{"ha":629,"x_min":53,"x_max":663,"o":"m 663 833 l 663 808 q 646 686 663 724 q 574 633 629 649 l 574 0 l 376 0 l 371 82 l 358 82 q 208 -11 322 -11 q 109 15 143 -11 q 64 94 75 42 q 53 240 53 146 l 53 708 l 260 708 l 260 328 q 263 217 260 247 q 276 178 267 186 q 313 169 286 169 q 351 181 340 169 q 364 225 361 192 q 367 350 367 258 l 367 708 l 450 708 q 514 724 499 708 q 529 785 529 740 l 529 833 l 663 833 m 536 1032 q 531 922 536 958 q 501 863 525 885 q 426 842 478 842 q 303 863 381 842 q 270 870 294 864 q 232 876 246 876 q 211 866 215 876 q 207 826 207 856 l 92 826 q 97 936 92 900 q 126 994 103 972 q 203 1015 150 1015 q 326 994 249 1015 q 397 982 379 982 q 417 992 414 982 q 421 1032 421 1001 l 536 1032 z "},"ű":{"ha":629,"x_min":53,"x_max":582,"o":"m 371 82 l 358 82 q 208 -11 322 -11 q 109 15 143 -11 q 64 94 75 42 q 53 240 53 146 l 53 708 l 260 708 l 260 328 q 263 217 260 247 q 276 178 267 186 q 313 169 286 169 q 351 181 340 169 q 364 225 361 192 q 367 350 367 258 l 367 708 l 574 708 l 574 0 l 376 0 l 371 82 m 153 849 l 153 854 l 211 1014 l 375 1014 l 375 1008 l 286 849 l 153 849 m 360 849 l 360 854 l 419 1014 l 582 1014 l 582 1008 l 493 849 l 360 849 z "},"ȗ":{"ha":629,"x_min":53,"x_max":574,"o":"m 371 82 l 358 82 q 208 -11 322 -11 q 109 15 143 -11 q 64 94 75 42 q 53 240 53 146 l 53 708 l 260 708 l 260 328 q 263 217 260 247 q 276 178 267 186 q 313 169 286 169 q 351 181 340 169 q 364 225 361 192 q 367 350 367 258 l 367 708 l 574 708 l 574 0 l 376 0 l 371 82 m 126 851 q 140 953 126 913 q 196 1017 154 993 q 315 1040 238 1040 q 434 1017 393 1040 q 489 953 475 993 q 503 851 503 913 l 381 851 q 377 892 381 878 q 360 916 374 907 q 315 925 346 925 q 260 908 271 925 q 249 851 249 890 l 126 851 z "},"ū":{"ha":629,"x_min":53,"x_max":574,"o":"m 371 82 l 358 82 q 208 -11 322 -11 q 109 15 143 -11 q 64 94 75 42 q 53 240 53 146 l 53 708 l 260 708 l 260 328 q 263 217 260 247 q 276 178 267 186 q 313 169 286 169 q 351 181 340 169 q 364 225 361 192 q 367 350 367 258 l 367 708 l 574 708 l 574 0 l 376 0 l 371 82 m 169 853 l 169 1032 l 460 1032 l 460 853 l 169 853 z "},"ų":{"ha":629,"x_min":53,"x_max":574,"o":"m 574 0 q 522 -51 546 -19 q 497 -117 497 -82 q 550 -162 497 -162 l 567 -161 l 567 -267 q 488 -272 522 -272 q 372 -239 407 -272 q 338 -154 338 -206 q 422 0 338 -75 l 376 0 l 371 82 l 358 82 q 208 -11 322 -11 q 109 15 143 -11 q 64 94 75 42 q 53 240 53 146 l 53 708 l 260 708 l 260 328 q 263 217 260 247 q 276 178 267 186 q 313 169 286 169 q 351 181 340 169 q 364 225 361 192 q 367 350 367 258 l 367 708 l 574 708 l 574 0 z "}}}
